<?xml version="1.0" encoding="UTF-8" standalone="no"?>
<!-- Created with Inkscape (http://www.inkscape.org/) -->

<svg
   xmlns:dc="http://purl.org/dc/elements/1.1/"
   xmlns:cc="http://creativecommons.org/ns#"
   xmlns:rdf="http://www.w3.org/1999/02/22-rdf-syntax-ns#"
   xmlns:svg="http://www.w3.org/2000/svg"
   xmlns="http://www.w3.org/2000/svg"
   xmlns:sodipodi="http://sodipodi.sourceforge.net/DTD/sodipodi-0.dtd"
   xmlns:inkscape="http://www.inkscape.org/namespaces/inkscape"
   width="602.36218"
   height="248.03149"
   id="svg6408"
   version="1.1"
   inkscape:version="0.92.3 (2405546, 2018-03-11)"
   sodipodi:docname="mainLayer4Center.svg">
  <defs
     id="defs6410">
    <linearGradient
       id="SVGID_1_-4"
       gradientUnits="userSpaceOnUse"
       x1="205"
       y1="-679.70001"
       x2="357.5"
       y2="-679.70001"
       gradientTransform="matrix(0,1,-1,-9.525e-4,-4.086e-4,-1.735e-4)">
      <stop
         offset="0"
         style="stop-color:#9CB198"
         id="stop4-3" />
      <stop
         offset="1"
         style="stop-color:#C0D0BD"
         id="stop6-9" />
    </linearGradient>
    <linearGradient
       id="SVGID_2_-94"
       gradientUnits="userSpaceOnUse"
       x1="62.119999"
       y1="-550"
       x2="332.60001"
       y2="-550"
       gradientTransform="matrix(0.0961,0.9954,-0.9954,0.0961,-835.1,-67.17)">
      <stop
         offset="0"
         style="stop-color:#A3C1CF"
         id="stop11-4" />
      <stop
         offset="1"
         style="stop-color:#CCD9E0"
         id="stop13-01" />
    </linearGradient>
    <linearGradient
       id="SVGID_3_"
       gradientUnits="userSpaceOnUse"
       x1="141.8"
       y1="-673.59998"
       x2="444.5"
       y2="-673.59998"
       gradientTransform="matrix(0.1922,0.9814,-0.9836,0.1807,-835.1,-67.17)">
      <stop
         offset="0"
         style="stop-color:#86A8B9"
         id="stop18" />
      <stop
         offset="1"
         style="stop-color:#CBDBE3"
         id="stop20" />
    </linearGradient>
    <linearGradient
       id="SVGID_4_"
       gradientUnits="userSpaceOnUse"
       x1="81.18"
       y1="-419.20001"
       x2="426.89999"
       y2="-419.20001"
       gradientTransform="matrix(0.1789,0.9839,-0.9858,0.1681,-835.1,-67.17)">
      <stop
         offset="0"
         style="stop-color:#C1D7E3"
         id="stop25" />
      <stop
         offset="1"
         style="stop-color:#DCE1E3"
         id="stop27" />
    </linearGradient>
    <linearGradient
       id="SVGID_5_"
       gradientUnits="userSpaceOnUse"
       x1="38.25"
       y1="-640.70001"
       x2="392.39999"
       y2="-640.70001"
       gradientTransform="matrix(0.0962,0.9954,-0.9954,0.0962,-835.1,-67.17)">
      <stop
         offset="0"
         style="stop-color:#A3C1CF"
         id="stop32" />
      <stop
         offset="1"
         style="stop-color:#CCD9E0"
         id="stop34" />
    </linearGradient>
    <linearGradient
       id="SVGID_6_"
       gradientUnits="userSpaceOnUse"
       x1="38.650002"
       y1="-745.40002"
       x2="392.79999"
       y2="-745.40002"
       gradientTransform="matrix(0.0962,0.9954,-0.9954,0.0962,-835.1,-67.17)">
      <stop
         offset="0"
         style="stop-color:#A3C1CF"
         id="stop39" />
      <stop
         offset="1"
         style="stop-color:#CCD9E0"
         id="stop41" />
    </linearGradient>
    <linearGradient
       id="SVGID_7_"
       gradientUnits="userSpaceOnUse"
       x1="137.39999"
       y1="-540"
       x2="440.10001"
       y2="-540"
       gradientTransform="matrix(0.1922,0.9814,-0.9836,0.1807,-835.1,-67.17)">
      <stop
         offset="0"
         style="stop-color:#86A8B9"
         id="stop46" />
      <stop
         offset="1"
         style="stop-color:#CBDBE3"
         id="stop48" />
    </linearGradient>
    <linearGradient
       id="SVGID_8_"
       gradientUnits="userSpaceOnUse"
       x1="37.84"
       y1="-485.89999"
       x2="391.89999"
       y2="-485.89999"
       gradientTransform="matrix(0.0962,0.9954,-0.9954,0.0962,-835.1,-67.17)">
      <stop
         offset="0"
         style="stop-color:#A3C1CF"
         id="stop53" />
      <stop
         offset="1"
         style="stop-color:#CCD9E0"
         id="stop55" />
    </linearGradient>
    <linearGradient
       id="SVGID_9_"
       gradientUnits="userSpaceOnUse"
       x1="37.639999"
       y1="-439.5"
       x2="391.70001"
       y2="-439.5"
       gradientTransform="matrix(0.0962,0.9954,-0.9954,0.0962,-835.1,-67.17)">
      <stop
         offset="0"
         style="stop-color:#A3C1CF"
         id="stop60" />
      <stop
         offset="1"
         style="stop-color:#CCD9E0"
         id="stop62" />
    </linearGradient>
    <linearGradient
       id="SVGID_10_"
       gradientUnits="userSpaceOnUse"
       x1="124.8"
       y1="-382.60001"
       x2="450.70001"
       y2="-382.60001"
       gradientTransform="matrix(0.1922,0.9814,-0.9836,0.1807,-835.1,-67.17)">
      <stop
         offset="0"
         style="stop-color:#86A8B9"
         id="stop67" />
      <stop
         offset="1"
         style="stop-color:#CBDBE3"
         id="stop69" />
    </linearGradient>
    <linearGradient
       id="SVGID_11_"
       gradientUnits="userSpaceOnUse"
       x1="124.4"
       y1="-407.39999"
       x2="451.70001"
       y2="-407.39999"
       gradientTransform="matrix(0.1922,0.9814,-0.9836,0.1807,-835.1,-67.17)">
      <stop
         offset="0"
         style="stop-color:#86A8B9"
         id="stop74" />
      <stop
         offset="1"
         style="stop-color:#CBDBE3"
         id="stop76" />
    </linearGradient>
    <linearGradient
       id="SVGID_12_"
       gradientUnits="userSpaceOnUse"
       x1="215.39999"
       y1="-240.2"
       x2="353"
       y2="-240.2"
       gradientTransform="matrix(0,1,-1,-0.0011,-835.1,-67.17)">
      <stop
         offset="0"
         style="stop-color:#8EA68B"
         id="stop81" />
      <stop
         offset="1"
         style="stop-color:#C0D0BD"
         id="stop83" />
    </linearGradient>
    <linearGradient
       id="SVGID_13_"
       gradientUnits="userSpaceOnUse"
       x1="131.39999"
       y1="-430.39999"
       x2="444.70001"
       y2="-430.39999"
       gradientTransform="matrix(0.1922,0.9814,-0.9836,0.1807,-835.1,-67.17)">
      <stop
         offset="0"
         style="stop-color:#86A8B9"
         id="stop88" />
      <stop
         offset="1"
         style="stop-color:#CBDBE3"
         id="stop90" />
    </linearGradient>
    <linearGradient
       id="SVGID_14_"
       gradientUnits="userSpaceOnUse"
       x1="132.8"
       y1="-244.2"
       x2="439.79999"
       y2="-244.2"
       gradientTransform="matrix(0.1922,0.9814,-0.9836,0.1807,-835.1,-67.17)">
      <stop
         offset="0"
         style="stop-color:#86A8B9"
         id="stop95" />
      <stop
         offset="1"
         style="stop-color:#CBDBE3"
         id="stop97" />
    </linearGradient>
    <linearGradient
       id="SVGID_15_"
       gradientUnits="userSpaceOnUse"
       x1="58.790001"
       y1="-257.29999"
       x2="382.29999"
       y2="-257.29999"
       gradientTransform="matrix(0.0961,0.9954,-0.9954,0.0961,-835.1,-67.17)">
      <stop
         offset="0"
         style="stop-color:#A3C1CF"
         id="stop102" />
      <stop
         offset="1"
         style="stop-color:#CCD9E0"
         id="stop104" />
    </linearGradient>
    <linearGradient
       id="SVGID_16_"
       gradientUnits="userSpaceOnUse"
       x1="37.18"
       y1="-298.20001"
       x2="391.20001"
       y2="-298.20001"
       gradientTransform="matrix(0.0961,0.9954,-0.9954,0.0961,-835.1,-67.17)">
      <stop
         offset="0"
         style="stop-color:#A3C1CF"
         id="stop109" />
      <stop
         offset="1"
         style="stop-color:#CCD9E0"
         id="stop111" />
    </linearGradient>
    <filter
       style="color-interpolation-filters:sRGB"
       inkscape:label="Drop Shadow"
       id="filter8391">
      <feFlood
         flood-opacity="0.498039"
         flood-color="rgb(0,0,0)"
         result="flood"
         id="feFlood8393" />
      <feComposite
         in="flood"
         in2="SourceGraphic"
         operator="in"
         result="composite1"
         id="feComposite8395" />
      <feGaussianBlur
         in="composite1"
         stdDeviation="3"
         result="blur"
         id="feGaussianBlur8397" />
      <feOffset
         dx="6"
         dy="6"
         result="offset"
         id="feOffset8399" />
      <feComposite
         in="SourceGraphic"
         in2="offset"
         operator="over"
         result="composite2"
         id="feComposite8401" />
    </filter>
  </defs>
  <sodipodi:namedview
     id="base"
     pagecolor="#ffffff"
     bordercolor="#666666"
     borderopacity="1.0"
     inkscape:pageopacity="0.0"
     inkscape:pageshadow="2"
     inkscape:zoom="11.313709"
     inkscape:cx="488.30115"
     inkscape:cy="50.669508"
     inkscape:document-units="cm"
     inkscape:current-layer="svg6408"
     showgrid="false"
     units="cm"
     inkscape:window-width="1920"
     inkscape:window-height="1017"
     inkscape:window-x="-8"
     inkscape:window-y="-8"
     inkscape:window-maximized="1"
     inkscape:snap-global="false" />
  <metadata
     id="metadata6413">
    <rdf:RDF>
      <cc:Work
         rdf:about="">
        <dc:format>image/svg+xml</dc:format>
        <dc:type
           rdf:resource="http://purl.org/dc/dcmitype/StillImage" />
        <dc:title />
      </cc:Work>
    </rdf:RDF>
  </metadata>
  <path
     style="fill:#86a8b9;fill-opacity:1;stroke:#000000;stroke-width:0;stroke-miterlimit:4;stroke-dasharray:none;stroke-opacity:1;paint-order:stroke fill markers"
     d="m 420.63041,195.6952 v -4.46361 c 0,0 6.99193,-4.8564 11.04854,-1.70148 6.03149,4.69083 31.2523,1.41785 46.89002,1.70148 9.65484,0.17512 37.22798,3.55505 48.30416,-1.24366 5.72718,-2.48128 9.6344,1.24366 9.6344,1.24366 v 4.46361 4.46361 h -57.93856 -57.93856 z"
     id="path935"
     inkscape:connector-curvature="0"
     sodipodi:nodetypes="ccssscccccc" />
  <g
     id="g927"
     style="display:inline">
    <path
       inkscape:connector-curvature="0"
       style="display:inline;fill:#a3c1cf;fill-opacity:1;fill-rule:evenodd;stroke-width:0.1793251"
       d="m 482.48007,198.56605 c -0.75,0.6516 1.2321,-1.1522 1.2321,-1.18803 -0.12552,-1.47046 -1.57278,-1.44805 -1.84177,-2.07568 l -2.1519,-0.21519 c 0.39452,0.95042 0.56922,1.72152 0.4437,2.33122 -0.0538,0.35865 -0.22922,0.71499 -0.49821,0.98398 -5.86186,-0.28769 -10.37293,-1.48492 -15.56471,-2.34685 0.0179,-0.10759 0.0179,-0.19726 0.0359,-0.28692 l 0.12553,-0.14346 h -0.0538 c -0.0179,0 -0.0179,0 0,-0.0359 h -0.0359 c 0.0897,-0.46625 0.19726,-0.8787 0.34072,-1.23735 0.14346,-0.34072 0.80696,-1.14768 1.95464,-2.42089 0.95043,-1.21941 1.12975,-2.06224 0.53798,-2.54641 -0.28692,-0.23313 -0.73523,-0.34072 -1.34494,-0.30486 -0.37658,0.0179 -0.98629,0.1076 -1.79325,0.28692 -0.89662,0.17933 -1.52426,0.30486 -1.88291,0.34072 -0.66351,0.0717 -1.16562,0.0179 -1.5422,-0.16139 0.60971,-0.68144 0.87869,-1.45253 0.84283,-2.28998 -0.46625,-0.0897 -1.14768,-0.0359 -2.08017,0.16139 -0.91456,0.21519 -1.596,0.26899 -2.06224,0.17933 0.26899,-0.21519 0.86076,-0.60971 1.81118,-1.18355 0.7711,-0.48418 1.32701,-0.91456 1.66773,-1.32701 -0.46625,0 -1.04009,0 -1.70359,0.0179 -0.75317,0.0179 -1.32701,0.0359 -1.72152,0.0538 0.80696,-0.25105 1.64979,-0.84282 2.54641,-1.77531 0.89663,-0.9325 1.57806,-1.93672 2.06224,-3.01267 0.53798,-1.20147 0.68144,-2.2057 0.44831,-3.04852 -0.26898,-0.96836 -1.04008,-1.596 -2.29536,-1.86498 0.21519,-0.50211 0.19726,-1.15127 -0.0538,-1.94568 -0.34072,-0.88587 -0.55591,-1.53682 -0.64557,-1.95429 -0.32279,-1.56004 -0.43038,-2.77416 -0.35865,-3.64066 l -0.0538,-0.31381 v -0.0179 h 0.0897 c 0.0717,-0.0126 0.16139,-0.0143 0.23312,-0.009 0.37659,0.0305 0.80697,0.36403 1.30908,1.00458 0.7173,0.93249 1.09388,1.4042 1.11181,1.41675 -0.12553,-0.0951 -0.28692,-0.28701 -0.50211,-0.57393 -0.0538,0.48956 0.0538,0.93787 0.32279,1.34494 0.14346,0.25106 0.43038,0.63123 0.82489,1.13872 0.0359,0.0409 0.28692,0.35829 0.75317,0.95006 0.30485,0.37658 0.50211,0.72268 0.6097,1.04009 0.0538,0.13808 0.0179,0.35865 -0.10759,0.6635 -0.12553,0.2923 -0.16139,0.4788 -0.12553,0.55591 0.26899,0.53259 0.73523,1.11181 1.39874,1.72152 0.68143,0.62764 1.30907,1.07595 1.90084,1.327 0.41245,0.19726 1.07595,0.34072 1.97258,0.46625 0.62764,0.21519 0.82489,0.75317 0.59177,1.61393 -0.16139,0.53797 -0.6635,1.12974 -1.52426,1.79325 -0.46625,0.35865 -1.12975,0.78903 -2.00844,1.30907 2.0443,0.19726 3.51477,0.32279 4.42933,0.37658 1.61392,0.0897 3.08439,0.0717 4.41139,-0.0179 0.23313,-1.93671 -0.0897,-3.38924 -0.96835,-4.37553 -0.34072,-0.37658 -0.86076,-0.8249 -1.59599,-1.34494 -2.74433,-1.07894 -3.39872,-0.163 -3.26372,-2.923 -0.1076,-0.20264 -0.25106,-0.4519 -0.39452,-0.7442 0.57384,0.56846 1.07595,1.02753 1.52427,1.3808 0.21519,0.17036 0.86076,0.56488 1.90084,1.13872 0.86076,0.50211 1.45254,0.93249 1.73946,1.27321 0.25105,0.30485 0.5559,0.87869 0.89662,1.70359 0.30485,0.73523 0.62764,1.25527 0.98629,1.56012 0.34072,0.28692 0.87869,0.50211 1.64979,0.66351 0.43038,0.0897 1.07595,0.21519 1.97258,0.37658 0.7173,0.19726 1.23734,0.48418 1.54219,0.87869 0.37659,0.48418 0.48418,1.18355 0.34072,2.08017 0.75317,0.28692 1.56013,0.48418 2.38503,0.62764 0.86076,0.14346 1.66772,0.21519 2.42088,0.19726 0.0359,0.35865 0.0359,0.91456 0.0179,1.66772 0.0359,0.65813 0.12552,1.17817 0.30485,1.55475 0.0717,0.12553 0.28692,0.19726 0.6635,0.23312 0.37658,0.0359 0.60971,0.1614 0.69937,0.35865 0.12553,0.26899 0.16139,0.64558 0.14346,1.14769 0,0.0179 -0.0359,0.41244 -0.10759,1.14768 0.43038,0.10759 0.93249,0.35865 1.48839,0.75316 0.57384,0.41245 1.00422,0.6635 1.29114,0.73523 0.23313,-0.17932 0.48418,-0.48417 0.73524,-0.87869 0.26898,-0.43038 0.46624,-0.84283 0.55591,-1.23734 0.28692,-1.04009 -0.14346,-1.47047 -1.29115,-1.30908 0.52005,-0.6097 1.39874,-1.23734 2.65402,-1.86498 1.68565,-0.81951 2.67194,-1.32162 2.94093,-1.51888 0.89662,-0.59177 1.34494,-1.07595 1.36287,-1.45253 0.0179,-0.19726 -0.0538,-0.44832 -0.19726,-0.78903 l -0.59177,-1.18355 h -1.66773 c -0.68143,0 -1.20147,-0.0538 -1.57806,-0.19726 0.26899,-0.44831 0.44832,-0.91456 0.53798,-1.39873 0.0897,-0.52005 0.0717,-1.02216 -0.0717,-1.47047 -0.34072,-0.0179 -0.89663,-0.0179 -1.68566,0 -0.73523,0.0179 -1.29114,0.0179 -1.70359,-0.0179 0.0359,-0.1076 0.25106,-0.52004 0.62764,-1.25528 0.26899,-0.52004 0.39452,-0.95042 0.35865,-1.327 -0.0538,-0.59178 -0.28692,-1.00422 -0.68143,-1.21941 -0.25106,-0.12553 -0.44832,-0.21519 -0.59178,-0.30486 -0.25105,-0.14346 -0.48417,-0.30485 -0.68143,-0.52004 -0.19726,-0.21519 -0.37658,-0.54335 -0.52004,-0.98629 -0.14346,-0.46086 -0.34072,-0.81234 -0.55591,-1.05802 -0.19726,-0.22057 -0.57384,-0.43934 -1.14768,-0.65453 -0.53798,-0.20981 -0.8787,-0.40886 -1.04009,-0.60074 -0.0717,-0.095 -0.0717,-0.32637 -0.0179,-0.69004 0.0717,-0.35327 0.0538,-0.5595 -0.0179,-0.61868 -0.19726,-0.19187 -0.68144,-0.44472 -1.4346,-0.76213 -0.68144,-0.28683 -1.11182,-0.52892 -1.27321,-0.72626 -0.17933,-0.25106 -0.26899,-0.8249 -0.25106,-1.72188 0.0179,-0.99884 -0.0179,-1.61931 -0.10759,-1.86499 -0.0717,-0.19187 -0.26899,-0.45369 -0.60971,-0.78903 -0.32278,-0.3174 -0.50211,-0.58818 -0.55591,-0.81592 -0.0359,-0.15602 0.0179,-0.373 0.14346,-0.65454 0.12553,-0.27437 0.1614,-0.49315 0.12553,-0.65454 -0.26899,-1.17816 -0.53797,-2.06224 -0.80696,-2.65401 -0.43038,-0.9558 -1.00422,-1.70359 -1.73945,-2.24156 l -0.1076,-0.17933 c 0.59177,0.31023 1.30907,0.90021 2.11604,1.76635 0.43038,0.44832 1.04008,0.97733 1.81118,1.58703 0.98629,0.7711 1.61393,1.27859 1.88291,1.52426 0.60971,0.54336 1.09389,1.20507 1.41667,1.98155 0.19726,0.45369 0.50211,1.18892 0.89663,2.2057 0.30485,0.62225 0.80696,1.26101 1.50633,1.91913 0.0897,0.0771 0.16139,0.15243 0.23312,0.22416 -0.10759,-0.10222 -0.21519,-0.19188 -0.28692,-0.26899 0.17933,0.85547 0.57384,1.85064 1.21941,2.98541 0.28692,0.48417 0.78903,1.28576 1.52427,2.40295 0.25105,0.35865 0.46624,0.73524 0.64557,1.12975 0.19725,0.30485 0.59177,0.68144 1.20147,1.09388 1.09389,0.75317 1.81119,1.34494 2.13397,1.73946 0.43038,0.52004 0.78903,1.327 1.05802,2.42089 1.21941,-0.0359 1.91878,-0.0179 2.11604,0.0538 0.35865,0.14346 0.62764,0.62764 0.82489,1.45254 0.1614,0.64557 0.1614,1.25527 0,1.79325 -0.17932,0.6097 -0.52004,1.05802 -1.04008,1.34494 0.26898,0.41244 0.87869,0.91455 1.82911,1.50633 0.73524,0.62764 0.86076,1.39335 0.41245,2.30791 -0.37658,0.8249 -1.41667,1.50633 -3.08439,2.06224 -0.55591,0.17933 -1.23734,0.35865 -2.04431,0.55591 -0.82489,0.19726 -1.3808,0.32278 -1.68565,0.39451 3.42511,0.14346 6.52743,0.0717 9.28904,-0.17932 0.37658,-0.78903 0.53797,-1.97258 0.52004,-3.51477 -0.0897,-1.71614 -0.12553,-2.95349 -0.10759,-3.67079 0.0897,-1.34494 0.14346,-2.34916 0.16139,-3.01266 0.0359,-1.14768 -0.0359,-2.1519 -0.21519,-3.03059 l -0.12553,-0.46625 0.0717,-0.0897 v 0 c 0.39452,0.80696 0.64557,1.70359 0.7711,2.67194 0.10759,0.84283 0.12553,1.77532 0.0538,2.81541 l 0.30485,0.0179 c 0.0359,0.28692 0.0359,1.02215 -0.0179,2.18776 -0.0179,0.9325 0.0359,1.6498 0.16139,2.14653 0.21519,0.77109 0.46624,1.18354 0.73523,1.21941 0.28692,0.0538 0.44831,0.0717 0.46625,0.0717 0.23312,0.0897 0.48417,0.26898 0.73523,0.53797 0.23312,0.25106 0.35865,0.59178 0.34072,1.02216 0,0.48417 0.0717,0.84282 0.23312,1.05801 0.21519,0.32279 0.55591,0.55591 1.00422,0.68144 2.4016,2.75 1.0978,7.0179 1.06197,7.0179 -0.31771,-0.005 -17.49492,0.0206 -25.81358,-0.0295 z m -16.21099,-25.23463 c -0.12553,-0.0484 -0.23313,-0.10401 -0.35865,-0.17036 0,-0.005 -0.0179,-0.0215 -0.0717,-0.0448 0.16139,0.0843 0.28692,0.15602 0.43038,0.21519 z m 55.01694,18.68927 v -0.0179 l -0.0179,0.0179 c -0.21519,0.0897 -0.44831,0.17932 -0.7173,0.26898 -0.21519,0.0717 -0.41245,0.12553 -0.60971,0.19726 0.0179,-0.0179 0.0359,-0.0359 0.0359,-0.0538 -3.09852,0.57632 -1.39976,6.49093 -4.23577,6.00976 0.23312,-0.35865 -0.49842,-6.60153 -0.42669,-7.08571 0.0897,-0.57384 0.12553,-1.3808 0.0717,-2.42089 -0.0538,-1.28576 -0.0717,-2.09272 -0.0538,-2.39757 1.25527,0.16139 2.00844,-0.12553 2.25949,-0.86076 0.23313,-0.69937 0,-1.41667 -0.73523,-2.13397 -0.0897,-0.0897 -0.41245,-0.35865 -0.98629,-0.8249 -0.28692,-0.21519 -0.50211,-0.52004 -0.68143,-0.89662 -0.0717,-0.17933 -0.0897,-0.48418 -0.0359,-0.91456 0.0538,-0.41245 0.0359,-0.7173 -0.0538,-0.91456 -0.14346,-0.34072 -0.44831,-0.69937 -0.89662,-1.07595 -0.52004,-0.44831 -0.86076,-0.75317 -1.00422,-0.95042 -0.14346,-0.21519 -0.32279,-0.59178 -0.50211,-1.12975 -0.19726,-0.53798 -0.37658,-0.93249 -0.53798,-1.16561 -0.80696,-1.0096 -1.3808,-1.74484 -1.72152,-2.2057 -0.53797,-0.79441 -0.82489,-1.69068 -0.87869,-2.68952 0.7711,0.48418 2.88713,2.49764 6.36604,6.0429 0.46625,0.44831 0.89663,0.89662 1.30907,1.327 0.1614,1.05802 0.73524,2.27743 1.72152,3.65823 0.69937,0.98629 1.50634,1.93672 2.42089,2.88714 0.21519,0.19726 0.66351,0.55591 1.36287,1.09388 0.62764,0.50211 0.93249,0.91456 0.95043,1.25528 0.0359,0.41245 -0.12553,0.78903 -0.44832,1.1423 -0.43038,0.35865 -0.73523,0.62764 -0.95042,0.82489 -0.35865,0.32279 -0.55591,0.64557 -0.6097,0.96836 -0.0717,0.43038 0.10759,0.96836 0.53797,1.59599 -0.26899,0.14346 -0.57384,0.28692 -0.93249,0.44832 z m 8.23461,0.96835 c 0.0538,-0.25105 0.0897,-0.53797 0.1076,-0.86076 0.0179,-0.34072 0.0359,-0.95042 0,-1.86498 -0.68144,-0.44831 -1.38081,-0.96836 -2.11604,-1.57806 -0.50211,-0.39452 -1.00422,-0.83745 -1.52785,-1.30369 -1.16561,-1.05802 -2.18777,-2.11604 -3.08439,-3.15613 l 3.91287,3.88598 c 0.0897,0.0717 0.19726,0.14346 0.28692,0.23312 0.14346,0.1076 0.26899,0.23312 0.41245,0.34072 l 4.26794,2.68988 c -0.0538,0.32278 -0.12553,0.6635 -0.23313,1.02215 -0.14346,0.46624 -0.46624,1.04008 -0.96835,1.70359 -0.62381,-0.61536 0.008,-0.0323 -1.05802,-1.11182 z m 6.59916,0.59177 c -0.70422,0.57716 -0.93471,-0.27801 -1.54219,-0.6635 -0.0717,-0.10759 -0.16139,-0.21519 -0.26899,-0.32278 -0.59177,-0.68144 -0.93249,-1.14768 -1.05802,-1.39874 0.0359,0 0.0717,0.0179 0.1076,0.0359 l 0.0897,0.0538 0.6635,0.41245 c 0.46625,0.32279 0.96836,0.78903 1.5422,1.3808 0.14346,0.14346 0.30485,0.30486 0.46624,0.50211 z m -59.82644,-7.27522 c -1.20148,0.0179 -2.0981,0.0359 -2.68988,0.0717 0.35865,0.57385 0.75317,1.21942 1.21941,1.9134 0.26899,0.44832 0.37659,0.78903 0.32279,1.00422 -0.0538,0.25106 -0.28692,0.52005 -0.7173,0.84283 -0.7173,0.48418 -1.36287,0.93249 -1.93671,1.32701 1.73945,0.30485 3.03059,0.21519 3.87342,-0.23312 1.05802,-0.55591 1.4884,-1.68566 1.30907,-3.38387 z"
       id="path15"
       sodipodi:nodetypes="cccccccccsccccccccccccccccsccccccccccccccccccccccccccccccccccccccccccccscccccccccccccscccccccccsccccccccccccccccccccccccccccccccccccccccccccccccccccccccccccccccccccsccccccccccccccccccccccccccsccccccccccccccccccccccccccccccccccccc" />
    <path
       inkscape:connector-curvature="0"
       style="display:inline;fill:#cbdbe3;fill-opacity:1;fill-rule:evenodd;stroke-width:0.1793251"
       d="m 522.21851,191.57237 c -0.43038,-0.62763 -0.6097,-1.16561 -0.53797,-1.59599 0.0538,-0.32279 0.25105,-0.64557 0.62763,-0.96836 0.19726,-0.19725 0.50211,-0.46624 0.93249,-0.82489 0.32279,-0.35327 0.48418,-0.72985 0.44832,-1.1423 -0.0179,-0.34072 -0.32279,-0.75317 -0.93249,-1.25528 -0.7173,-0.53797 -1.16562,-0.89662 -1.38081,-1.09388 -0.91455,-0.95042 -1.72152,-1.90085 -2.42089,-2.88714 -0.98628,-1.3808 -1.56012,-2.60021 -1.72152,-3.65823 v -0.0179 c 0.1076,0.12553 0.23313,0.23312 0.34072,0.35865 l 2.08017,2.1519 c 0.73524,0.78903 1.39874,1.4884 1.97258,2.11604 0.48418,0.55591 0.91456,1.04008 1.27321,1.45253 0.89662,1.05802 1.91878,2.11604 3.08439,3.17406 0.52363,0.46624 1.02574,0.90917 1.52785,1.30369 0.73523,0.6097 1.4346,1.12975 2.11604,1.57806 0.0359,0.89663 0.0179,1.52426 0,1.86498 -0.0179,0.32279 -0.0265,0.59959 -0.0803,0.85064 -1.00466,-0.29526 -5.70097,-0.71134 -7.32942,-1.40658 z"
       id="path22"
       sodipodi:nodetypes="cscccccccccccccccccc" />
    <path
       inkscape:connector-curvature="0"
       style="display:inline;fill:#c1d7e3;fill-opacity:1;fill-rule:evenodd;stroke-width:0.1793251"
       d="m 449.39564,199.6395 c -2.41673,1.01639 -23.87355,-0.16943 -25.34333,-0.0221 -2.55875,-0.0138 -3.24215,-1.46382 -3.31388,-1.49971 l 0.14346,-0.14346 v -0.0179 c 0.1076,-0.0717 0.16139,-0.12553 0.16139,-0.1614 0.69937,-0.69936 1.56013,-1.34493 2.61815,-1.91877 1.07595,-0.59178 2.08017,-1.30908 3.01266,-2.11604 0.78903,-0.68144 1.64979,-1.5422 2.58228,-2.60021 0.62764,-0.73524 1.32701,-1.38081 2.09811,-1.97258 0.95042,-0.7173 1.72152,-1.37542 2.31329,-1.9672 0.59178,-0.6097 1.25528,-1.3808 1.97258,-2.33122 0.78903,-1.07595 1.84705,-2.15191 3.17405,-3.24579 0.84283,-0.69937 2.08017,-1.63186 3.6941,-2.77954 0.19726,-0.14346 0.39452,-0.25105 0.59177,-0.35865 0.35865,0.55591 0.44832,1.05802 0.26899,1.4884 -0.0717,0.14346 -0.19726,0.39452 -0.37658,0.7711 -0.17933,0.39451 -0.32279,0.80696 -0.41245,1.25527 2.40296,-0.14346 2.43882,0.69937 0.1076,2.54642 -1.32701,1.04009 -2.923,2.0981 -4.80592,3.17406 0.34072,0.0897 0.86076,0.10759 1.57806,0.0717 0.41245,-0.0179 1.05802,-0.0538 1.95465,-0.0897 1.64979,-0.0359 2.72574,0.30486 3.20992,1.01678 0.16139,0.25105 0.25105,0.95042 0.25105,2.11603 0,1.07595 -0.0538,1.86498 -0.16139,2.36709 -0.12553,0.60971 1.96634,2.27306 1.53596,2.72138 0,0 4.34059,2.69782 3.14548,3.69599 z m -4.0538,-21.31387 c -0.7711,-0.17933 -1.4346,-0.14346 -2.02638,0.0897 0.25106,-0.12553 0.52005,-0.19726 0.7711,-0.21519 0.34072,-0.0359 0.7711,0 1.25528,0.12553 z m 18.84725,17.22314 c -0.1859,1.84345 -1.89057,4.24269 -3.24733,4.35172 -2.55497,0.17678 -8.73376,0.17678 -11.35502,-0.0179 l -0.35355,-5.08233 c -0.19814,-2.8482 -0.50211,-6.11499 -0.64557,-7.90286 -0.17932,-2.38503 -0.30485,-4.53693 -0.37658,-6.43777 0.0179,-0.28692 0.0717,-0.64557 0.14346,-1.07595 0.0897,-0.53798 0.14346,-0.9325 0.17932,-1.16562 0.73524,-0.39451 1.63186,-1.12975 2.67195,-2.18776 0.21519,-0.20981 1.11181,-1.20686 2.70781,-2.99473 0.39451,-0.425 1.16561,-1.51494 2.34916,-3.27233 1.00422,-1.31445 1.86498,-2.0357 2.60021,-2.16122 l 0.0538,0.31381 c -0.0897,0.8665 0.0359,2.08062 0.35865,3.64066 0.0897,0.41747 0.30485,1.07022 0.64557,1.95429 0.23312,0.79441 0.25105,1.44357 0.0359,1.94568 1.25528,0.26898 2.02638,0.89662 2.29536,1.86498 0.23313,0.84282 0.0897,1.84705 -0.43038,3.04852 -0.48417,1.07595 -1.18354,2.08017 -2.06223,3.01267 -0.89663,0.93249 -1.75739,1.52426 -2.54642,1.77531 0.37658,-0.0179 0.95042,-0.0359 1.70359,-0.0538 0.6635,-0.0179 1.23734,-0.0179 1.70359,-0.0179 -0.34072,0.41245 -0.8787,0.84283 -1.64979,1.32701 -0.95043,0.57384 -1.56013,0.96836 -1.81119,1.18355 0.44831,0.0897 1.12975,0.0359 2.06224,-0.17933 0.91456,-0.19726 1.61393,-0.25105 2.08017,-0.16139 0.0359,0.83745 -0.25105,1.60854 -0.86076,2.28998 0.37658,0.17932 0.89663,0.23312 1.56013,0.16139 0.35865,-0.0359 0.96836,-0.16139 1.86498,-0.34072 0.80696,-0.17932 1.41667,-0.26898 1.81118,-0.28692 0.59178,-0.0359 1.04009,0.0717 1.32701,0.30486 0.59177,0.48417 0.41245,1.327 -0.52004,2.54641 -1.16562,1.27321 -1.81119,2.08017 -1.95465,2.42089 -0.10342,0.40106 -0.19005,0.81099 -0.34053,1.19686 z m 4.12429,-21.23106 c -0.16139,-0.32278 -0.32278,-0.69578 -0.52004,-1.12078 -0.0359,0.043 -0.0897,0.0771 -0.12553,0.0986 0.26899,-0.16319 0.7711,-0.91277 1.5422,-2.25017 0.93249,-1.61393 1.45253,-2.48904 1.56013,-2.62712 0.95042,-1.20721 1.90084,-2.66692 2.88713,-4.37589 0.57384,-0.99884 1.4346,-2.51414 2.54642,-4.54589 0.7173,-1.27321 1.56013,-1.78428 2.52848,-1.53323 0.17933,0.0484 0.35865,0.12015 0.55591,0.21519 l 0.1076,0.17933 c 0.73523,0.53797 1.30907,1.28576 1.73945,2.24156 0.26899,0.59177 0.53797,1.47585 0.80696,2.65401 0.0359,0.16139 0,0.38017 -0.12553,0.65454 -0.12552,0.28154 -0.17932,0.49852 -0.14346,0.65454 0.0538,0.22774 0.23313,0.49852 0.55591,0.81592 0.34072,0.33534 0.53798,0.59716 0.60971,0.78903 0.0897,0.24568 0.12552,0.86615 0.10759,1.86499 -0.0179,0.89698 0.0717,1.47082 0.25106,1.72188 0.16139,0.19734 0.59177,0.43943 1.27321,0.72626 0.75316,0.31741 1.23734,0.57026 1.4346,0.76213 0.0717,0.0592 0.0897,0.26541 0.0359,0.61868 -0.0717,0.36367 -0.0717,0.595 0.0179,0.69004 0.14346,0.19188 0.48418,0.39093 1.04009,0.60074 0.55591,0.21519 0.95042,0.43396 1.14768,0.65453 0.21519,0.24568 0.39452,0.59716 0.53798,1.05802 0.14346,0.44294 0.32278,0.7711 0.52004,0.98629 0.19726,0.21519 0.43038,0.37658 0.69937,0.52004 0.14346,0.0897 0.34071,0.17933 0.59177,0.30486 0.39451,0.21519 0.6097,0.62763 0.6635,1.21941 0.0359,0.37658 -0.0897,0.80696 -0.35865,1.34494 -0.37658,0.7173 -0.57384,1.12974 -0.6097,1.25527 0.39451,0.0179 0.95042,0.0359 1.68565,0 0.78903,-0.0179 1.34494,-0.0179 1.70359,0 0.12553,0.44831 0.14346,0.95042 0.0538,1.47047 -0.0897,0.48417 -0.26899,0.95042 -0.53798,1.39873 0.37659,0.14346 0.89663,0.21519 1.57806,0.21519 0.37659,0 0.9325,-0.0179 1.68566,-0.0179 0.16139,0.32279 0.34072,0.73523 0.57384,1.20148 0.14346,0.32278 0.21519,0.59177 0.19726,0.78903 -0.0179,0.35865 -0.46625,0.84283 -1.34494,1.45253 -0.28692,0.17933 -1.27321,0.69937 -2.95886,1.51889 -1.25528,0.6097 -2.13397,1.23734 -2.63608,1.86498 1.12975,-0.17933 1.56013,0.25105 1.29114,1.29114 -0.1076,0.39451 -0.30486,0.80696 -0.57384,1.23734 -0.25106,0.39452 -0.48418,0.69937 -0.7173,0.89663 -0.28692,-0.0897 -0.73524,-0.34072 -1.30908,-0.73524 -0.5559,-0.41244 -1.05801,-0.6635 -1.48839,-0.77109 0.0717,-0.73524 0.10759,-1.12975 0.10759,-1.14768 0.0179,-0.50211 -0.0179,-0.8787 -0.12553,-1.12975 -0.0897,-0.21519 -0.32278,-0.34072 -0.69937,-0.37659 -0.39451,-0.0359 -0.6097,-0.10759 -0.6635,-0.23312 -0.19726,-0.37658 -0.28692,-0.89662 -0.30485,-1.55475 0,-0.75316 0,-1.30907 -0.0359,-1.66772 -0.75316,0.0179 -1.56012,-0.0538 -2.42088,-0.19726 -0.8249,-0.14346 -1.63186,-0.34072 -2.38503,-0.62764 0.14346,-0.89662 0.0359,-1.59599 -0.34072,-2.08017 -0.30485,-0.39451 -0.82489,-0.68143 -1.54219,-0.87869 -0.89663,-0.16139 -1.5422,-0.28692 -1.97258,-0.37658 -0.7711,-0.1614 -1.30907,-0.37659 -1.64979,-0.66351 -0.35865,-0.30485 -0.68144,-0.82489 -0.98629,-1.56012 -0.34072,-0.8249 -0.64557,-1.39874 -0.89662,-1.70359 -0.28692,-0.34072 -0.8787,-0.7711 -1.73946,-1.27321 -1.04008,-0.57384 -1.68565,-0.96836 -1.90084,-1.13872 -0.44832,-0.35327 -0.95043,-0.81234 -1.52427,-1.3808 z m 40.0433,18.50994 c -0.44831,-0.12553 -0.78903,-0.35865 -1.00422,-0.6635 -0.16139,-0.23313 -0.23312,-0.59178 -0.23312,-1.05802 0.0179,-0.44831 -0.1076,-0.78903 -0.34072,-1.04009 -0.25106,-0.26899 -0.50211,-0.44831 -0.73523,-0.52004 -0.0179,-0.0179 -0.17933,-0.0359 -0.46625,-0.0717 -0.26899,-0.0538 -0.52004,-0.46625 -0.73523,-1.23734 -0.12553,-0.49673 -0.17933,-1.21403 -0.16139,-2.14653 0.0538,-1.16561 0.0538,-1.90084 0.0179,-2.18776 h -0.30485 c 0.0717,-1.05802 0.0538,-1.99051 -0.0538,-2.81541 -0.12553,-0.98628 -0.37658,-1.88291 -0.7711,-2.67194 1.63186,-2.33123 2.8154,-3.96667 3.51477,-4.90454 1.45254,-1.94173 2.27743,-2.8545 2.47469,-2.73435 0.0538,0.99884 0.34072,1.89511 0.87869,2.68952 0.34072,0.46086 0.91456,1.1961 1.72152,2.2057 0.1614,0.23312 0.34072,0.62763 0.53798,1.16561 0.17932,0.53797 0.35865,0.91456 0.50211,1.12975 0.14346,0.19725 0.48418,0.50211 1.00422,0.95042 0.44831,0.37658 0.75316,0.73523 0.89662,1.09388 0.0897,0.17933 0.1076,0.48418 0.0538,0.91456 -0.0538,0.41245 -0.0359,0.7173 0.0359,0.89663 0.17932,0.37658 0.39451,0.68143 0.68143,0.89662 0.57384,0.46625 0.89663,0.73524 1.00422,0.8249 0.7173,0.7173 0.95043,1.4346 0.7173,2.13397 -0.25105,0.73523 -1.00422,1.02215 -2.25949,0.86076 -0.0179,0.30485 0.0179,1.11181 0.0717,2.39757 0.0359,1.04009 0.0179,1.84705 -0.0717,2.42089 -0.0897,0.48418 1.64187,6.53956 1.42668,6.89821 -1.14636,1.1235 -5.52691,0.8649 -6.77743,-0.36524 z m 25.00151,-1.59599 c -0.0359,-0.0179 -0.0717,-0.0359 -0.1076,-0.0359 0.12553,0.25106 0.46625,0.7173 1.07595,1.39874 l 0.26899,0.32278 c -0.36973,1.24462 -3.53394,1.22997 -4.03481,1.18355 0.52004,-0.66351 0.84282,-1.21941 0.96835,-1.70359 0.1076,-0.35865 0.19726,-0.69937 0.23312,-1.02215 0.0538,0.0179 0.0897,0.0359 0.12553,0.0538 0.0179,0 0.17933,-0.0538 0.44831,-0.19725 0.28692,-0.14346 0.48418,-0.17933 0.60971,-0.14346 0.14346,0.0179 0.26899,0.0717 0.41245,0.14346 z m -20.01627,-6.66552 c -0.25106,0.19726 -0.75317,0.37658 -1.47047,0.50211 -0.89662,0.16139 -1.4884,0.28692 -1.75738,0.39452 -0.60971,0.23312 -1.00422,0.59177 -1.20148,1.09388 0.41245,-0.30485 1.11181,-0.44831 2.0981,-0.44831 0.55591,0 1.41667,0.0179 2.56435,0.0897 0.96836,0 1.63186,-0.16139 2.02637,-0.46625 0.50212,-0.41244 0.64558,-1.11181 0.43039,-2.11603 l -2.42089,-0.46625 c 0.17932,0.64557 0.0897,1.11182 -0.26899,1.41667 z m -27.81333,-6.27638 -1.63185,-0.75316 c -0.0538,0.37658 0.0179,0.73523 0.23312,1.07595 0.0897,0.17932 0.30485,0.44831 0.6635,0.84283 0.64557,0.73523 0.91456,1.45253 0.7711,2.16983 -0.17933,-0.0359 -0.48418,0 -0.91456,0.0717 -0.43038,0.0717 -0.7173,0.0897 -0.89662,0.0717 0.5559,0.59177 0.5559,1.20148 0,1.84705 -0.1614,0.19726 -0.78904,0.69937 -1.84705,1.4884 0.80696,-0.26899 1.72152,-0.46625 2.72574,-0.55591 0.7173,-0.17933 1.327,-0.7173 1.79325,-1.59599 0.48418,-0.89663 0.6097,-1.66773 0.37658,-2.34916 -0.0897,-0.26899 -0.25105,-0.60971 -0.50211,-1.02216 -0.44831,-0.73523 -0.69937,-1.16561 -0.7711,-1.29114 z m -13.43145,-10.66088 -0.52004,0.78939 c 1.30907,-0.96871 2.67194,-0.60647 4.08861,1.08492 0.53798,0.64566 1.02216,1.41667 1.45254,2.31329 0.39451,0.79406 0.64557,1.50598 0.77109,2.13361 0.0359,-0.75316 0.0717,-1.34852 0.0897,-1.78428 0.0359,-0.80122 -0.0179,-1.38044 -0.1614,-1.7391 -0.0897,-0.23841 -0.37658,-0.59177 -0.87869,-1.05801 -0.41245,-0.36403 -0.59177,-0.78903 -0.57384,-1.27357 -0.39451,0.0305 -1.12975,-0.11656 -2.24156,-0.43935 -0.91456,-0.26898 -1.596,-0.27795 -2.02638,-0.0269 z"
       id="path29-7"
       sodipodi:nodetypes="sccccccccccccccccccccccscccscccscccsccccccccccccccccccccccccccccccccccccccccccccccccccccscccccccccscccccccccccccccccccccccccccccccccccccccccccccccccccccccccccccccccccccccccsccccccccccsccccccccccccczcccccccccccccccc"
       inkscape:label="path29" />
    <path
       inkscape:connector-curvature="0"
       style="display:inline;fill:#a3c1cf;fill-opacity:1;fill-rule:evenodd;stroke-width:0.1793251"
       d="m 513.34192,184.56614 c 0.35865,-0.30485 0.44831,-0.7711 0.26899,-1.41667 l 2.42089,0.46625 c 0.21519,1.00422 0.0717,1.70359 -0.43039,2.0981 -0.39451,0.32279 -1.05801,0.48418 -2.02637,0.48418 -1.14768,-0.0717 -2.00844,-0.1076 -2.56435,-0.1076 -0.98629,0 -1.68565,0.1614 -2.0981,0.44832 0.19726,-0.48418 0.59177,-0.86076 1.20148,-1.09389 0.26898,-0.0897 0.86076,-0.21519 1.75738,-0.37658 0.7173,-0.12553 1.20148,-0.30485 1.47047,-0.50211 z"
       id="path36" />
    <path
       inkscape:connector-curvature="0"
       style="display:inline;fill:#86a8b9;fill-opacity:1;fill-rule:evenodd;stroke-width:0.1793251"
       d="m 503.49697,178.48702 0.12553,0.46625 c 0.17932,0.87869 0.25105,1.88291 0.21519,3.04852 -0.0179,0.64557 -0.0717,1.64979 -0.16139,2.99473 -0.0179,0.7173 0.0179,1.95465 0.10759,3.67079 0.0179,1.54219 -0.14346,2.72574 -0.52004,3.51477 -2.76161,0.25105 -5.86393,0.32278 -9.28904,0.19726 0.30485,-0.0717 0.86076,-0.21519 1.68565,-0.39452 0.80697,-0.19726 1.4884,-0.39451 2.04431,-0.57384 1.66772,-0.55591 2.70781,-1.23734 3.08439,-2.04431 0.44831,-0.93249 0.32279,-1.6982 -0.41245,-2.32584 -0.95042,-0.59178 -1.56013,-1.09389 -1.82911,-1.4884 0.52004,-0.30485 0.86076,-0.75317 1.04008,-1.36287 0.1614,-0.53798 0.1614,-1.12975 0,-1.77532 -0.19725,-0.84283 -0.46624,-1.32701 -0.82489,-1.47047 -0.19726,-0.0717 -0.89663,-0.0897 -2.11604,-0.0359 -0.26899,-1.11182 -0.62764,-1.91878 -1.05802,-2.43882 -0.32278,-0.39452 -1.04008,-0.98629 -2.13397,-1.73946 -0.6097,-0.41244 -1.00422,-0.78903 -1.20147,-1.09388 -0.17933,-0.39451 -0.39452,-0.7711 -0.64557,-1.12975 -0.73524,-1.11719 -1.23735,-1.91878 -1.52427,-2.40295 -0.64557,-1.13477 -1.04008,-2.12994 -1.21941,-2.98541 0.0717,0.0771 0.17933,0.16677 0.28692,0.26899 0.17933,0.16139 0.39452,0.35506 0.64557,0.5829 0.37658,0.34062 0.68144,0.64906 0.91456,0.92343 v 0.009 c 0.55591,0.61508 1.4884,1.74268 2.77954,3.37992 1.23734,1.41128 2.36709,2.30432 3.35338,2.66297 0.28692,0.1076 0.64557,0.12553 1.09388,0.0359 0.46625,-0.1076 0.8249,-0.1076 1.09388,-0.0179 0.37659,0.10759 0.86077,0.37658 1.4884,0.82489 0.32279,0.25106 0.78903,0.59177 1.38081,1.02216 0.32278,0.21519 0.64557,0.41244 0.96835,0.59177 z"
       id="path50" />
    <path
       inkscape:connector-curvature="0"
       style="display:inline;fill:#a3c1cf;fill-opacity:1;fill-rule:evenodd;stroke-width:0.1793251"
       d="m 485.52859,178.28976 c 0.0717,0.12553 0.32279,0.55591 0.7711,1.29114 0.25106,0.41245 0.43038,0.75317 0.52004,1.02216 0.21519,0.68143 0.1076,1.45253 -0.37658,2.34916 -0.48418,0.87869 -1.09388,1.41666 -1.81118,1.59599 -1.00422,0.0897 -1.91878,0.28692 -2.72574,0.55591 1.05801,-0.78903 1.68565,-1.29114 1.84705,-1.4884 0.5559,-0.64557 0.5559,-1.25528 0,-1.84705 0.17932,0.0179 0.46624,0 0.89662,-0.0717 0.43038,-0.0717 0.73523,-0.1076 0.91456,-0.0717 0.14346,-0.7173 -0.12553,-1.4346 -0.7711,-2.1519 -0.35865,-0.39452 -0.57384,-0.68144 -0.6635,-0.86076 -0.21519,-0.34072 -0.28692,-0.69937 -0.23312,-1.07595 z"
       id="path57-3" />
    <path
       inkscape:connector-curvature="0"
       style="display:inline;fill:#a3c1cf;fill-opacity:1;fill-rule:evenodd;stroke-width:0.1793251"
       d="m 472.09714,167.62888 c 0.43038,-0.25105 1.11182,-0.24208 2.02638,0.0269 1.11181,0.32279 1.84705,0.46984 2.24156,0.43935 -0.0179,0.48454 0.16139,0.90954 0.57384,1.27357 0.50211,0.46624 0.78903,0.8196 0.87869,1.05801 0.14346,0.35866 0.19726,0.93788 0.1614,1.7391 -0.0179,0.43576 -0.0538,1.03112 -0.0897,1.78428 -0.12552,-0.62763 -0.37658,-1.33955 -0.77109,-2.13361 -0.43038,-0.89662 -0.91456,-1.66763 -1.45254,-2.31329 -1.41667,-1.69139 -2.79747,-2.05363 -4.10654,-1.08492 z"
       id="path64" />
    <path
       sodipodi:nodetypes="ccccccccccccccccccccccccccccccccccc"
       inkscape:connector-curvature="0"
       style="display:inline;fill:#86a8b9;fill-opacity:1;fill-rule:evenodd;stroke-width:0.1793251"
       d="m 465.8387,173.11623 c 0.0359,0.0233 0.0717,0.0394 0.0717,0.0448 0.12552,0.0663 0.23312,0.12195 0.35865,0.17036 l 0.34071,0.1076 0.39452,0.0359 c 0.0897,0 0.17933,-0.009 0.26899,-0.0269 l 0.35865,-0.13449 0.0359,-0.0179 c 0.0359,-0.0233 0.0897,-0.0556 0.12553,-0.0986 0.19726,0.425 0.35865,0.798 0.52004,1.12078 0.14346,0.2923 0.28692,0.54156 0.39452,0.7442 0.35865,0.62226 0.7173,1.07595 1.09388,1.3808 0.16139,0.1076 0.87869,0.62764 2.16984,1.5422 0.73523,0.52004 1.25527,0.96836 1.59599,1.34494 0.87869,0.98629 1.25536,2.43882 1.02224,4.37553 -1.30907,0.0897 -2.85136,0.1076 -4.48322,0.0179 -0.89662,-0.0538 -2.36709,-0.17932 -4.41139,-0.37658 0.87869,-0.52004 1.54219,-0.95042 1.99051,-1.29114 0.87869,-0.68144 1.3808,-1.27321 1.52426,-1.79325 0.25105,-0.87869 0.0538,-1.41667 -0.57384,-1.63186 -0.89663,-0.12553 -1.56013,-0.26899 -1.97258,-0.44831 -0.59177,-0.26899 -1.21941,-0.69937 -1.90084,-1.32701 -0.66351,-0.62764 -1.12975,-1.20686 -1.39874,-1.73945 -0.0359,-0.0771 0,-0.26361 0.12553,-0.55591 0.12553,-0.30485 0.16139,-0.52542 0.10759,-0.6635 -0.10759,-0.31741 -0.30485,-0.66351 -0.6097,-1.04009 -0.46625,-0.59177 -0.7173,-0.90918 -0.75317,-0.95006 -0.39451,-0.50749 -0.68143,-0.88766 -0.84283,-1.13872 -0.25105,-0.40707 -0.35865,-0.85538 -0.30485,-1.34494 0.21519,0.28692 0.37658,0.4788 0.48418,0.57393 0.30485,0.28692 0.75316,0.62755 1.34494,1.02207 0.7711,0.51466 1.25527,0.84641 1.45253,0.99489 l 1.29114,0.96836 c 0.0897,0.0538 0.14346,0.0986 0.17933,0.13449 z"
       id="path71-20"
       inkscape:label="path71" />
    <path
       inkscape:connector-curvature="0"
       style="display:inline;fill:#86a8b9;fill-opacity:1;fill-rule:evenodd;stroke-width:0.1793251"
       d="m 476.29335,186.30559 1.3808,1.5422 c 0.17933,1.69821 -0.25105,2.82796 -1.30907,3.38387 -0.84283,0.44831 -2.13397,0.53797 -3.87342,0.23312 0.57384,-0.39452 1.21941,-0.84283 1.93671,-1.32701 0.41245,-0.32278 0.6635,-0.59177 0.7173,-0.84283 0.0538,-0.21519 -0.0717,-0.5559 -0.34072,-1.00422 -0.44831,-0.69398 -0.86076,-1.33955 -1.21941,-1.9134 0.59177,-0.0359 1.4884,-0.0538 2.70781,-0.0717 z"
       id="path78" />
    <path
       inkscape:connector-curvature="0"
       style="display:inline;fill:#86a8b9;fill-opacity:1;fill-rule:evenodd;stroke-width:0.1793251"
       d="m 479.64673,198.38673 c 0.26899,-0.28692 0.43038,-0.60971 0.50211,-0.96836 0.1076,-0.6097 -0.0359,-1.3808 -0.43038,-2.34916 l 2.1519,0.21519 c 0.26899,0.64557 0.46625,1.68566 0.59177,3.13819 0,0.0538 0.0179,0.1076 0.0179,0.14346 -1.73886,0 -1.73322,0.001 -2.83334,-0.17932 z"
       id="path92"
       sodipodi:nodetypes="cccccccc" />
    <path
       inkscape:connector-curvature="0"
       style="display:inline;fill:#86a8b9;fill-opacity:1;fill-rule:evenodd;stroke-width:0.1793251"
       d="m 448.78488,194.11879 -0.0179,-0.0538 c 0,0 -0.0179,0 -0.0179,0.0179 -0.21519,-0.46624 -0.50211,-0.96835 -0.86076,-1.50633 -1.04008,-1.61392 -1.61392,-2.51055 -1.70359,-2.70781 -0.68143,-1.30907 -1.48839,-2.03892 -2.42088,-2.20031 -0.34072,-0.0717 -0.89663,-0.0897 -1.6498,-0.0897 -1.04008,0.0179 -1.81118,0 -2.33122,-0.0179 0.16139,-0.30485 0.62764,-0.75317 1.3808,-1.34494 0.39452,-0.34072 0.95042,-0.78903 1.63186,-1.34494 0.75317,-0.64557 1.3808,-0.93249 1.95464,-0.89662 0.1614,0.0179 0.44832,0.0538 0.86076,0.10759 0.39452,0.0359 0.8249,0.0179 1.25528,-0.0538 0.14346,-0.96836 0.0897,-1.99051 -0.14346,-3.06646 -0.28692,-1.38081 -0.80696,-2.1519 -1.5422,-2.33123 l 0.37659,-0.25106 c 0.0538,0.0179 0.0897,0.0359 0.14346,0.0359 0.87812,0.2879 1.49997,0.24033 2.36706,0.018 0.0179,0 0.4109,-0.17415 0.4288,-0.19215 0.0179,0.6635 -0.1962,1.57932 -0.1603,2.29662 0.0717,1.90084 0.0723,3.97461 0.25158,6.35964 0.34233,1.76577 0.34072,4.42395 0.64557,7.90286 v 0 c -0.0717,0 -0.10759,0 -0.16139,-0.0179 -0.0717,-0.21519 -0.17933,-0.43038 -0.28692,-0.6635 z"
       id="path99-6"
       sodipodi:nodetypes="cccccccccccccccccccccccccc"
       inkscape:label="path99" />
    <path
       inkscape:connector-curvature="0"
       style="display:inline;fill:#ccd9e0;fill-opacity:1;fill-rule:evenodd;stroke-width:0.1793251"
       d="m 443.31546,178.41529 c 0.59178,-0.23312 1.25528,-0.26899 2.02638,-0.0897 l 0.21519,0.0538 v 0 l -0.37659,0.25106 c 0.73524,0.17933 1.25528,0.95042 1.5422,2.33123 0.23312,1.07595 0.28692,2.0981 0.14346,3.06646 -0.43038,0.0717 -0.86076,0.0897 -1.25528,0.0538 -0.41244,-0.0538 -0.69936,-0.0897 -0.86076,-0.10759 -0.57384,-0.0359 -1.20147,0.25105 -1.95464,0.89662 -0.68144,0.55591 -1.23734,1.00422 -1.63186,1.34494 -0.75316,0.59177 -1.21941,1.04009 -1.3808,1.34494 0.52004,0.0179 1.29114,0.0359 2.33122,0.0179 0.75317,0 1.30908,0.0179 1.6498,0.0897 0.93249,0.16139 1.73945,0.89124 2.42088,2.20031 0.0897,0.19726 0.66351,1.09389 1.70359,2.70781 0.35865,0.53798 1.04401,1.70415 1.2592,2.1704 1.83411,6.303 1.47731,5.05278 -8.38776,5.14695 0.44831,-0.44832 3.81105,-6.06211 3.93658,-6.65388 0.10759,-0.50211 0.16139,-1.30908 0.16139,-2.38503 0,-1.16561 -0.0717,-1.86498 -0.25106,-2.11603 -0.48417,-0.71192 -1.54219,-1.05264 -3.19198,-1.01678 -0.89663,0.0359 -1.5422,0.0717 -1.95465,0.0897 -0.7173,0.0359 -1.23734,0.0179 -1.57806,-0.0717 1.88292,-1.07596 3.47891,-2.13397 4.78798,-3.17406 2.34916,-1.84705 2.3133,-2.68988 -0.0897,-2.52848 0.0897,-0.44832 0.23312,-0.8787 0.39452,-1.27321 0.19725,-0.37658 0.32278,-0.62764 0.39451,-0.7711 0.17933,-0.43038 0.0897,-0.93249 -0.26899,-1.4884 0.0179,0 0.0179,-0.0179 0.0359,-0.0179 z"
       id="path106"
       sodipodi:nodetypes="cccccccccccccccccccsccccccccccc" />
  </g>
</svg>
