<?xml version="1.0" encoding="UTF-8" standalone="no"?>
<!-- Created with Inkscape (http://www.inkscape.org/) -->

<svg
   xmlns:dc="http://purl.org/dc/elements/1.1/"
   xmlns:cc="http://creativecommons.org/ns#"
   xmlns:rdf="http://www.w3.org/1999/02/22-rdf-syntax-ns#"
   xmlns:svg="http://www.w3.org/2000/svg"
   xmlns="http://www.w3.org/2000/svg"
   xmlns:xlink="http://www.w3.org/1999/xlink"
   xmlns:sodipodi="http://sodipodi.sourceforge.net/DTD/sodipodi-0.dtd"
   xmlns:inkscape="http://www.inkscape.org/namespaces/inkscape"
   width="602.36218"
   height="248.03149"
   id="svg6408"
   version="1.1"
   inkscape:version="0.92.3 (2405546, 2018-03-11)"
   sodipodi:docname="mainLayer1Right.svg">
  <defs
     id="defs6410">
    <linearGradient
       inkscape:collect="always"
       xlink:href="#SVGID_1_-4"
       id="linearGradient6002"
       gradientUnits="userSpaceOnUse"
       gradientTransform="matrix(0,1,-1,-9.525e-4,-835.1,-67.17)"
       x1="205"
       y1="-679.70001"
       x2="357.5"
       y2="-679.70001" />
    <linearGradient
       id="SVGID_1_-4"
       gradientUnits="userSpaceOnUse"
       x1="205"
       y1="-679.70001"
       x2="357.5"
       y2="-679.70001"
       gradientTransform="matrix(0,1,-1,-9.525e-4,-4.086e-4,-1.735e-4)">
      <stop
         offset="0"
         style="stop-color:#9CB198"
         id="stop4-3" />
      <stop
         offset="1"
         style="stop-color:#C0D0BD"
         id="stop6-9" />
    </linearGradient>
    <linearGradient
       inkscape:collect="always"
       xlink:href="#SVGID_2_-94"
       id="linearGradient6004"
       gradientUnits="userSpaceOnUse"
       gradientTransform="matrix(0.0961,0.9954,-0.9954,0.0961,-835.1,-67.17)"
       x1="62.119999"
       y1="-550"
       x2="332.60001"
       y2="-550" />
    <linearGradient
       id="SVGID_2_-94"
       gradientUnits="userSpaceOnUse"
       x1="62.119999"
       y1="-550"
       x2="332.60001"
       y2="-550"
       gradientTransform="matrix(0.0961,0.9954,-0.9954,0.0961,-835.1,-67.17)">
      <stop
         offset="0"
         style="stop-color:#A3C1CF"
         id="stop11-4" />
      <stop
         offset="1"
         style="stop-color:#CCD9E0"
         id="stop13-01" />
    </linearGradient>
    <linearGradient
       inkscape:collect="always"
       xlink:href="#SVGID_3_"
       id="linearGradient6006"
       gradientUnits="userSpaceOnUse"
       gradientTransform="matrix(0.1922,0.9814,-0.9836,0.1807,-835.1,-67.17)"
       x1="141.8"
       y1="-673.59998"
       x2="444.5"
       y2="-673.59998" />
    <linearGradient
       id="SVGID_3_"
       gradientUnits="userSpaceOnUse"
       x1="141.8"
       y1="-673.59998"
       x2="444.5"
       y2="-673.59998"
       gradientTransform="matrix(0.1922,0.9814,-0.9836,0.1807,-835.1,-67.17)">
      <stop
         offset="0"
         style="stop-color:#86A8B9"
         id="stop18" />
      <stop
         offset="1"
         style="stop-color:#CBDBE3"
         id="stop20" />
    </linearGradient>
    <linearGradient
       inkscape:collect="always"
       xlink:href="#SVGID_4_"
       id="linearGradient6008"
       gradientUnits="userSpaceOnUse"
       gradientTransform="matrix(0.1789,0.9839,-0.9858,0.1681,-835.1,-67.17)"
       x1="81.18"
       y1="-419.20001"
       x2="426.89999"
       y2="-419.20001" />
    <linearGradient
       id="SVGID_4_"
       gradientUnits="userSpaceOnUse"
       x1="81.18"
       y1="-419.20001"
       x2="426.89999"
       y2="-419.20001"
       gradientTransform="matrix(0.1789,0.9839,-0.9858,0.1681,-835.1,-67.17)">
      <stop
         offset="0"
         style="stop-color:#C1D7E3"
         id="stop25" />
      <stop
         offset="1"
         style="stop-color:#DCE1E3"
         id="stop27" />
    </linearGradient>
    <linearGradient
       inkscape:collect="always"
       xlink:href="#SVGID_5_"
       id="linearGradient6010"
       gradientUnits="userSpaceOnUse"
       gradientTransform="matrix(0.0962,0.9954,-0.9954,0.0962,-835.1,-67.17)"
       x1="38.25"
       y1="-640.70001"
       x2="392.39999"
       y2="-640.70001" />
    <linearGradient
       id="SVGID_5_"
       gradientUnits="userSpaceOnUse"
       x1="38.25"
       y1="-640.70001"
       x2="392.39999"
       y2="-640.70001"
       gradientTransform="matrix(0.0962,0.9954,-0.9954,0.0962,-835.1,-67.17)">
      <stop
         offset="0"
         style="stop-color:#A3C1CF"
         id="stop32" />
      <stop
         offset="1"
         style="stop-color:#CCD9E0"
         id="stop34" />
    </linearGradient>
    <linearGradient
       inkscape:collect="always"
       xlink:href="#SVGID_6_"
       id="linearGradient6012"
       gradientUnits="userSpaceOnUse"
       gradientTransform="matrix(0.0962,0.9954,-0.9954,0.0962,-835.1,-67.17)"
       x1="38.650002"
       y1="-745.40002"
       x2="392.79999"
       y2="-745.40002" />
    <linearGradient
       id="SVGID_6_"
       gradientUnits="userSpaceOnUse"
       x1="38.650002"
       y1="-745.40002"
       x2="392.79999"
       y2="-745.40002"
       gradientTransform="matrix(0.0962,0.9954,-0.9954,0.0962,-835.1,-67.17)">
      <stop
         offset="0"
         style="stop-color:#A3C1CF"
         id="stop39" />
      <stop
         offset="1"
         style="stop-color:#CCD9E0"
         id="stop41" />
    </linearGradient>
    <linearGradient
       inkscape:collect="always"
       xlink:href="#SVGID_7_"
       id="linearGradient6014"
       gradientUnits="userSpaceOnUse"
       gradientTransform="matrix(0.1922,0.9814,-0.9836,0.1807,-835.1,-67.17)"
       x1="137.39999"
       y1="-540"
       x2="440.10001"
       y2="-540" />
    <linearGradient
       id="SVGID_7_"
       gradientUnits="userSpaceOnUse"
       x1="137.39999"
       y1="-540"
       x2="440.10001"
       y2="-540"
       gradientTransform="matrix(0.1922,0.9814,-0.9836,0.1807,-835.1,-67.17)">
      <stop
         offset="0"
         style="stop-color:#86A8B9"
         id="stop46" />
      <stop
         offset="1"
         style="stop-color:#CBDBE3"
         id="stop48" />
    </linearGradient>
    <linearGradient
       inkscape:collect="always"
       xlink:href="#SVGID_8_"
       id="linearGradient6016"
       gradientUnits="userSpaceOnUse"
       gradientTransform="matrix(0.0962,0.9954,-0.9954,0.0962,-835.1,-67.17)"
       x1="37.84"
       y1="-485.89999"
       x2="391.89999"
       y2="-485.89999" />
    <linearGradient
       id="SVGID_8_"
       gradientUnits="userSpaceOnUse"
       x1="37.84"
       y1="-485.89999"
       x2="391.89999"
       y2="-485.89999"
       gradientTransform="matrix(0.0962,0.9954,-0.9954,0.0962,-835.1,-67.17)">
      <stop
         offset="0"
         style="stop-color:#A3C1CF"
         id="stop53" />
      <stop
         offset="1"
         style="stop-color:#CCD9E0"
         id="stop55" />
    </linearGradient>
    <linearGradient
       inkscape:collect="always"
       xlink:href="#SVGID_9_"
       id="linearGradient6018"
       gradientUnits="userSpaceOnUse"
       gradientTransform="matrix(0.0962,0.9954,-0.9954,0.0962,-835.1,-67.17)"
       x1="37.639999"
       y1="-439.5"
       x2="391.70001"
       y2="-439.5" />
    <linearGradient
       id="SVGID_9_"
       gradientUnits="userSpaceOnUse"
       x1="37.639999"
       y1="-439.5"
       x2="391.70001"
       y2="-439.5"
       gradientTransform="matrix(0.0962,0.9954,-0.9954,0.0962,-835.1,-67.17)">
      <stop
         offset="0"
         style="stop-color:#A3C1CF"
         id="stop60" />
      <stop
         offset="1"
         style="stop-color:#CCD9E0"
         id="stop62" />
    </linearGradient>
    <linearGradient
       inkscape:collect="always"
       xlink:href="#SVGID_10_"
       id="linearGradient6020"
       gradientUnits="userSpaceOnUse"
       gradientTransform="matrix(0.1922,0.9814,-0.9836,0.1807,-835.1,-67.17)"
       x1="124.8"
       y1="-382.60001"
       x2="450.70001"
       y2="-382.60001" />
    <linearGradient
       id="SVGID_10_"
       gradientUnits="userSpaceOnUse"
       x1="124.8"
       y1="-382.60001"
       x2="450.70001"
       y2="-382.60001"
       gradientTransform="matrix(0.1922,0.9814,-0.9836,0.1807,-835.1,-67.17)">
      <stop
         offset="0"
         style="stop-color:#86A8B9"
         id="stop67" />
      <stop
         offset="1"
         style="stop-color:#CBDBE3"
         id="stop69" />
    </linearGradient>
    <linearGradient
       inkscape:collect="always"
       xlink:href="#SVGID_11_"
       id="linearGradient6022"
       gradientUnits="userSpaceOnUse"
       gradientTransform="matrix(0.1922,0.9814,-0.9836,0.1807,-835.1,-67.17)"
       x1="124.4"
       y1="-407.39999"
       x2="451.70001"
       y2="-407.39999" />
    <linearGradient
       id="SVGID_11_"
       gradientUnits="userSpaceOnUse"
       x1="124.4"
       y1="-407.39999"
       x2="451.70001"
       y2="-407.39999"
       gradientTransform="matrix(0.1922,0.9814,-0.9836,0.1807,-835.1,-67.17)">
      <stop
         offset="0"
         style="stop-color:#86A8B9"
         id="stop74" />
      <stop
         offset="1"
         style="stop-color:#CBDBE3"
         id="stop76" />
    </linearGradient>
    <linearGradient
       inkscape:collect="always"
       xlink:href="#SVGID_12_"
       id="linearGradient6024"
       gradientUnits="userSpaceOnUse"
       gradientTransform="matrix(0,1,-1,-0.0011,-835.1,-67.17)"
       x1="215.39999"
       y1="-240.2"
       x2="353"
       y2="-240.2" />
    <linearGradient
       id="SVGID_12_"
       gradientUnits="userSpaceOnUse"
       x1="215.39999"
       y1="-240.2"
       x2="353"
       y2="-240.2"
       gradientTransform="matrix(0,1,-1,-0.0011,-835.1,-67.17)">
      <stop
         offset="0"
         style="stop-color:#8EA68B"
         id="stop81" />
      <stop
         offset="1"
         style="stop-color:#C0D0BD"
         id="stop83" />
    </linearGradient>
    <linearGradient
       inkscape:collect="always"
       xlink:href="#SVGID_13_"
       id="linearGradient6026"
       gradientUnits="userSpaceOnUse"
       gradientTransform="matrix(0.1922,0.9814,-0.9836,0.1807,-835.1,-67.17)"
       x1="131.39999"
       y1="-430.39999"
       x2="444.70001"
       y2="-430.39999" />
    <linearGradient
       id="SVGID_13_"
       gradientUnits="userSpaceOnUse"
       x1="131.39999"
       y1="-430.39999"
       x2="444.70001"
       y2="-430.39999"
       gradientTransform="matrix(0.1922,0.9814,-0.9836,0.1807,-835.1,-67.17)">
      <stop
         offset="0"
         style="stop-color:#86A8B9"
         id="stop88" />
      <stop
         offset="1"
         style="stop-color:#CBDBE3"
         id="stop90" />
    </linearGradient>
    <linearGradient
       inkscape:collect="always"
       xlink:href="#SVGID_14_"
       id="linearGradient6028"
       gradientUnits="userSpaceOnUse"
       gradientTransform="matrix(0.1922,0.9814,-0.9836,0.1807,-835.1,-67.17)"
       x1="132.8"
       y1="-244.2"
       x2="439.79999"
       y2="-244.2" />
    <linearGradient
       id="SVGID_14_"
       gradientUnits="userSpaceOnUse"
       x1="132.8"
       y1="-244.2"
       x2="439.79999"
       y2="-244.2"
       gradientTransform="matrix(0.1922,0.9814,-0.9836,0.1807,-835.1,-67.17)">
      <stop
         offset="0"
         style="stop-color:#86A8B9"
         id="stop95" />
      <stop
         offset="1"
         style="stop-color:#CBDBE3"
         id="stop97" />
    </linearGradient>
    <linearGradient
       inkscape:collect="always"
       xlink:href="#SVGID_15_"
       id="linearGradient6030"
       gradientUnits="userSpaceOnUse"
       gradientTransform="matrix(0.0961,0.9954,-0.9954,0.0961,-835.1,-67.17)"
       x1="58.790001"
       y1="-257.29999"
       x2="382.29999"
       y2="-257.29999" />
    <linearGradient
       id="SVGID_15_"
       gradientUnits="userSpaceOnUse"
       x1="58.790001"
       y1="-257.29999"
       x2="382.29999"
       y2="-257.29999"
       gradientTransform="matrix(0.0961,0.9954,-0.9954,0.0961,-835.1,-67.17)">
      <stop
         offset="0"
         style="stop-color:#A3C1CF"
         id="stop102" />
      <stop
         offset="1"
         style="stop-color:#CCD9E0"
         id="stop104" />
    </linearGradient>
    <linearGradient
       inkscape:collect="always"
       xlink:href="#SVGID_16_"
       id="linearGradient6032"
       gradientUnits="userSpaceOnUse"
       gradientTransform="matrix(0.0961,0.9954,-0.9954,0.0961,-835.1,-67.17)"
       x1="37.18"
       y1="-298.20001"
       x2="391.20001"
       y2="-298.20001" />
    <linearGradient
       id="SVGID_16_"
       gradientUnits="userSpaceOnUse"
       x1="37.18"
       y1="-298.20001"
       x2="391.20001"
       y2="-298.20001"
       gradientTransform="matrix(0.0961,0.9954,-0.9954,0.0961,-835.1,-67.17)">
      <stop
         offset="0"
         style="stop-color:#A3C1CF"
         id="stop109" />
      <stop
         offset="1"
         style="stop-color:#CCD9E0"
         id="stop111" />
    </linearGradient>
    <filter
       style="color-interpolation-filters:sRGB"
       inkscape:label="Drop Shadow"
       id="filter8391">
      <feFlood
         flood-opacity="0.498039"
         flood-color="rgb(0,0,0)"
         result="flood"
         id="feFlood8393" />
      <feComposite
         in="flood"
         in2="SourceGraphic"
         operator="in"
         result="composite1"
         id="feComposite8395" />
      <feGaussianBlur
         in="composite1"
         stdDeviation="3"
         result="blur"
         id="feGaussianBlur8397" />
      <feOffset
         dx="6"
         dy="6"
         result="offset"
         id="feOffset8399" />
      <feComposite
         in="SourceGraphic"
         in2="offset"
         operator="over"
         result="composite2"
         id="feComposite8401" />
    </filter>
  </defs>
  <sodipodi:namedview
     id="base"
     pagecolor="#ffffff"
     bordercolor="#666666"
     borderopacity="1.0"
     inkscape:pageopacity="0.0"
     inkscape:pageshadow="2"
     inkscape:zoom="0.99999999"
     inkscape:cx="92.192658"
     inkscape:cy="-18.655928"
     inkscape:document-units="cm"
     inkscape:current-layer="g3803"
     showgrid="false"
     units="cm"
     inkscape:window-width="1920"
     inkscape:window-height="1017"
     inkscape:window-x="-8"
     inkscape:window-y="-8"
     inkscape:window-maximized="1"
     inkscape:snap-global="false" />
  <metadata
     id="metadata6413">
    <rdf:RDF>
      <cc:Work
         rdf:about="">
        <dc:format>image/svg+xml</dc:format>
        <dc:type
           rdf:resource="http://purl.org/dc/dcmitype/StillImage" />
        <dc:title />
      </cc:Work>
    </rdf:RDF>
  </metadata>
  <g
     id="g3803"
     inkscape:label="mainLayer1Right"
     style="display:inline"
     transform="translate(-2.5464738e-7,-803)">
    <path
       id="path4623"
       d="m 541.58288,1011.9571 c -4.6535,-1.99 -12.31938,-3.291 -20.99248,-3.291 -8.6731,0 -16.33714,1.301 -20.99618,3.291 z"
       inkscape:connector-curvature="0"
       style="clip-rule:evenodd;fill:#a2c760;fill-rule:evenodd;stroke-width:1.35944569" />
    <path
       id="path4589"
       d="m 512.64222,994.7031 v 2.211 h -0.676 v -1.032 h -0.277 v 1.172 c 0,0.075 0.059,0.14 0.139,0.14 h 0.814 v 2.797 h -1.131 v -1.929 h -0.371 v 2.114 c 0,0.104 0.084,0.186 0.188,0.186 h 1.314 v 8.717 h 0.607 v -8.903 -0.789 c 0.389,-0.036 0.707,-0.179 0.936,-0.412 0.275,-0.271 0.424,-0.66 0.424,-1.125 h -0.373 c 0,0.361 -0.107,0.662 -0.313,0.865 -0.162,0.161 -0.391,0.268 -0.674,0.297 v -4.309 z"
       inkscape:connector-curvature="0"
       style="clip-rule:evenodd;fill:#8d641a;fill-rule:evenodd" />
    <path
       id="path4587"
       d="m 512.78522,985.96512 2.072,5.208 c 0.654,1.647 2.645,5.80998 2.645,7.37398 0,2.615 -2.119,4.737 -4.734,4.737 -2.615,0 -4.738,-2.122 -4.738,-4.737 0,-1.518 2.033,-5.74098 2.686,-7.37398 z"
       inkscape:connector-curvature="0"
       style="clip-rule:evenodd;fill:#afb91a;fill-rule:evenodd" />
    <g
       inkscape:label="flower"
       id="g3709">
      <path
         style="clip-rule:evenodd;display:inline;fill:#ffffff;fill-rule:evenodd"
         inkscape:connector-curvature="0"
         d="m 516.61351,1009.9134 c -0.336,0.334 0.508,0.833 0.67,0.671 0.158,-0.158 -0.327,-1.016 -0.67,-0.671 m 0.884,-0.369 c 0.488,0 0.223,0.95 0,0.95 -0.228,0 -0.472,-0.95 0,-0.95 m 0,2.508 c -0.473,0 -0.229,-0.949 0,-0.949 0.223,0 0.489,0.949 0,0.949 m -1.251,-1.251 c 0,-0.488 0.951,-0.223 0.951,0 0,0.228 -0.951,0.471 -0.951,0 m 2.138,0.885 c 0.346,-0.344 -0.514,-0.829 -0.67,-0.671 -0.162,0.162 0.338,1.005 0.67,0.671 m -1.769,0 c 0.334,0.334 0.834,-0.509 0.672,-0.671 -0.159,-0.158 -1.016,0.327 -0.672,0.671 m 1.773,-1.773 c -0.346,-0.345 -0.828,0.513 -0.67,0.671 0.16,0.162 1.004,-0.337 0.67,-0.671 m 0.365,0.888 c 0,-0.488 -0.949,-0.223 -0.949,0 0,0.228 0.949,0.471 0.949,0"
         id="path5739-0" />
      <path
         style="clip-rule:evenodd;display:inline;fill:#fcea1e;fill-rule:evenodd"
         inkscape:connector-curvature="0"
         d="m 517.49751,1010.3814 c 0.223,0 0.402,0.179 0.402,0.402 0,0.223 -0.18,0.402 -0.402,0.402 -0.221,0 -0.4,-0.179 -0.4,-0.402 0,-0.223 0.18,-0.402 0.4,-0.402"
         id="path5741-31" />
    </g>
    <path
       style="clip-rule:evenodd;display:inline;fill:#57a633;fill-rule:evenodd"
       inkscape:connector-curvature="0"
       d="m 508.15499,1006.3487 c 2.943,0 5.342,-2.618 5.342,-5.826 0,-3.212 -2.398,-5.83098 -5.342,-5.83098 -2.941,0 -5.342,2.61898 -5.342,5.83098 0,3.208 2.401,5.826 5.342,5.826"
       id="path4629" />
    <path
       style="clip-rule:evenodd;display:inline;fill:#8d641a;fill-rule:evenodd"
       inkscape:connector-curvature="0"
       d="m 508.20513,1010.8579 h 0.631 v -5.767 c 0.697,-0.074 1.348,-0.39 1.84,-0.868 0.541,-0.532 0.889,-1.264 0.889,-2.108 h -0.684 c 0,0.646 -0.266,1.212 -0.684,1.622 -0.371,0.365 -0.867,0.604 -1.395,0.668 l -0.027,-2.658 h 0.783 c 0.135,0 0.244,-0.108 0.244,-0.24 v -1.54 h -0.484 v 1.297 h -0.539 l -0.012,-0.767 h -0.604 v 2.729 h -1.316 v -1.79 h -0.605 v 2.093 c 0,0.168 0.137,0.304 0.305,0.304 h 1.633 l 0.025,7.028 z"
       id="path4631" />
    <g
       id="g3407">
      <path
         d="m 503.01781,1008.814 c 0.081,0.073 0.10054,0.1844 0.13573,0.2838 0.13686,0.4524 0.27482,0.9172 0.24634,1.3953 0.003,0.093 -0.0642,0.1536 -0.14971,0.1687 0.0899,-0.6295 -0.26308,-1.221 -0.23236,-1.8478 z"
         id="path1044"
         inkscape:connector-curvature="0"
         style="fill:#287b24;stroke:#287b24;stroke-width:0.02759418" />
      <path
         d="m 505.25942,1010.0094 c 0.0464,-0.094 0.076,-0.2139 0.18377,-0.2558 -0.0709,0.3133 -0.15306,0.6334 -0.31952,0.911 -0.0447,0.089 -0.14411,0.114 -0.2346,0.1179 0.12848,-0.2553 0.25919,-0.5094 0.37035,-0.7731 z"
         id="path1120"
         inkscape:connector-curvature="0"
         style="fill:#30861e;stroke:#30861e;stroke-width:0.02759418" />
      <path
         d="m 501.65821,1008.9928 c 0.54015,0.1966 0.74516,0.7887 0.95742,1.2702 0.0698,0.1586 0.18712,0.4245 -0.01,0.5357 -0.1134,-0.4441 -0.28544,-0.8792 -0.56251,-1.249 -0.1106,-0.1983 -0.30275,-0.343 -0.38486,-0.5569 z"
         id="path1346"
         inkscape:connector-curvature="0"
         style="fill:#297d23;stroke:#297d23;stroke-width:0.02759418" />
      <path
         d="m 504.6243,1010.1591 c 0.10949,-0.2134 0.24355,-0.4374 0.45358,-0.5642 -0.1,0.214 -0.23517,0.4564 -0.45358,0.5642 z"
         id="path1394"
         inkscape:connector-curvature="0"
         style="fill:#368e1a;stroke:#368e1a;stroke-width:0.02759418" />
      <path
         d="m 503.61717,1010.554 c 0.062,-0.205 0.10836,-0.4753 0.32286,-0.5736 -0.0704,0.205 -0.11841,0.4591 -0.32286,0.5736 z"
         id="path1474"
         inkscape:connector-curvature="0"
         style="fill:#338a1c;stroke:#338a1c;stroke-width:0.02759418" />
      <path
         d="m 504.35115,1009.6659 c 0.11284,-0.1637 0.23907,-0.338 0.43012,-0.4128 -0.11731,0.1949 -0.3022,0.339 -0.4128,0.539 -0.1335,0.2067 -0.17595,0.4536 -0.27259,0.6765 -0.0307,0.078 -0.091,0.1379 -0.1698,0.167 0.0832,-0.3441 0.24577,-0.6664 0.42507,-0.9697 z"
         id="path1500"
         inkscape:connector-curvature="0"
         style="fill:#328a1c;stroke:#328a1c;stroke-width:0.02759418" />
      <path
         d="m 502.61618,1009.472 c 0.15976,0.054 0.25304,0.209 0.32734,0.352 0.0491,0.1228 0.0916,0.3044 -0.0374,0.3932 -0.0894,-0.2514 -0.19049,-0.4977 -0.28992,-0.7452 z"
         id="path1972"
         inkscape:connector-curvature="0"
         style="fill:#2f841f;stroke:#2f841f;stroke-width:0.02759418" />
    </g>
  </g>
</svg>
