<?xml version="1.0" encoding="UTF-8" standalone="no"?>
<!-- Created with Inkscape (http://www.inkscape.org/) -->

<svg
   xmlns:dc="http://purl.org/dc/elements/1.1/"
   xmlns:cc="http://creativecommons.org/ns#"
   xmlns:rdf="http://www.w3.org/1999/02/22-rdf-syntax-ns#"
   xmlns:svg="http://www.w3.org/2000/svg"
   xmlns="http://www.w3.org/2000/svg"
   xmlns:xlink="http://www.w3.org/1999/xlink"
   xmlns:sodipodi="http://sodipodi.sourceforge.net/DTD/sodipodi-0.dtd"
   xmlns:inkscape="http://www.inkscape.org/namespaces/inkscape"
   width="602.36218"
   height="248.03149"
   id="svg6408"
   version="1.1"
   inkscape:version="0.92.3 (2405546, 2018-03-11)"
   sodipodi:docname="sun.svg">
  <defs
     id="defs6410">
    <linearGradient
       inkscape:collect="always"
       xlink:href="#SVGID_1_-4"
       id="linearGradient6002"
       gradientUnits="userSpaceOnUse"
       gradientTransform="matrix(0,1,-1,-9.525e-4,-835.1,-67.17)"
       x1="205"
       y1="-679.70001"
       x2="357.5"
       y2="-679.70001" />
    <linearGradient
       id="SVGID_1_-4"
       gradientUnits="userSpaceOnUse"
       x1="205"
       y1="-679.70001"
       x2="357.5"
       y2="-679.70001"
       gradientTransform="matrix(0,1,-1,-9.525e-4,-4.086e-4,-1.735e-4)">
      <stop
         offset="0"
         style="stop-color:#9CB198"
         id="stop4-3" />
      <stop
         offset="1"
         style="stop-color:#C0D0BD"
         id="stop6-9" />
    </linearGradient>
    <linearGradient
       inkscape:collect="always"
       xlink:href="#SVGID_2_-94"
       id="linearGradient6004"
       gradientUnits="userSpaceOnUse"
       gradientTransform="matrix(0.0961,0.9954,-0.9954,0.0961,-835.1,-67.17)"
       x1="62.119999"
       y1="-550"
       x2="332.60001"
       y2="-550" />
    <linearGradient
       id="SVGID_2_-94"
       gradientUnits="userSpaceOnUse"
       x1="62.119999"
       y1="-550"
       x2="332.60001"
       y2="-550"
       gradientTransform="matrix(0.0961,0.9954,-0.9954,0.0961,-835.1,-67.17)">
      <stop
         offset="0"
         style="stop-color:#A3C1CF"
         id="stop11-4" />
      <stop
         offset="1"
         style="stop-color:#CCD9E0"
         id="stop13-01" />
    </linearGradient>
    <linearGradient
       inkscape:collect="always"
       xlink:href="#SVGID_3_"
       id="linearGradient6006"
       gradientUnits="userSpaceOnUse"
       gradientTransform="matrix(0.1922,0.9814,-0.9836,0.1807,-835.1,-67.17)"
       x1="141.8"
       y1="-673.59998"
       x2="444.5"
       y2="-673.59998" />
    <linearGradient
       id="SVGID_3_"
       gradientUnits="userSpaceOnUse"
       x1="141.8"
       y1="-673.59998"
       x2="444.5"
       y2="-673.59998"
       gradientTransform="matrix(0.1922,0.9814,-0.9836,0.1807,-835.1,-67.17)">
      <stop
         offset="0"
         style="stop-color:#86A8B9"
         id="stop18" />
      <stop
         offset="1"
         style="stop-color:#CBDBE3"
         id="stop20" />
    </linearGradient>
    <linearGradient
       inkscape:collect="always"
       xlink:href="#SVGID_4_"
       id="linearGradient6008"
       gradientUnits="userSpaceOnUse"
       gradientTransform="matrix(0.1789,0.9839,-0.9858,0.1681,-835.1,-67.17)"
       x1="81.18"
       y1="-419.20001"
       x2="426.89999"
       y2="-419.20001" />
    <linearGradient
       id="SVGID_4_"
       gradientUnits="userSpaceOnUse"
       x1="81.18"
       y1="-419.20001"
       x2="426.89999"
       y2="-419.20001"
       gradientTransform="matrix(0.1789,0.9839,-0.9858,0.1681,-835.1,-67.17)">
      <stop
         offset="0"
         style="stop-color:#C1D7E3"
         id="stop25" />
      <stop
         offset="1"
         style="stop-color:#DCE1E3"
         id="stop27" />
    </linearGradient>
    <linearGradient
       inkscape:collect="always"
       xlink:href="#SVGID_5_"
       id="linearGradient6010"
       gradientUnits="userSpaceOnUse"
       gradientTransform="matrix(0.0962,0.9954,-0.9954,0.0962,-835.1,-67.17)"
       x1="38.25"
       y1="-640.70001"
       x2="392.39999"
       y2="-640.70001" />
    <linearGradient
       id="SVGID_5_"
       gradientUnits="userSpaceOnUse"
       x1="38.25"
       y1="-640.70001"
       x2="392.39999"
       y2="-640.70001"
       gradientTransform="matrix(0.0962,0.9954,-0.9954,0.0962,-835.1,-67.17)">
      <stop
         offset="0"
         style="stop-color:#A3C1CF"
         id="stop32" />
      <stop
         offset="1"
         style="stop-color:#CCD9E0"
         id="stop34" />
    </linearGradient>
    <linearGradient
       inkscape:collect="always"
       xlink:href="#SVGID_6_"
       id="linearGradient6012"
       gradientUnits="userSpaceOnUse"
       gradientTransform="matrix(0.0962,0.9954,-0.9954,0.0962,-835.1,-67.17)"
       x1="38.650002"
       y1="-745.40002"
       x2="392.79999"
       y2="-745.40002" />
    <linearGradient
       id="SVGID_6_"
       gradientUnits="userSpaceOnUse"
       x1="38.650002"
       y1="-745.40002"
       x2="392.79999"
       y2="-745.40002"
       gradientTransform="matrix(0.0962,0.9954,-0.9954,0.0962,-835.1,-67.17)">
      <stop
         offset="0"
         style="stop-color:#A3C1CF"
         id="stop39" />
      <stop
         offset="1"
         style="stop-color:#CCD9E0"
         id="stop41" />
    </linearGradient>
    <linearGradient
       inkscape:collect="always"
       xlink:href="#SVGID_7_"
       id="linearGradient6014"
       gradientUnits="userSpaceOnUse"
       gradientTransform="matrix(0.1922,0.9814,-0.9836,0.1807,-835.1,-67.17)"
       x1="137.39999"
       y1="-540"
       x2="440.10001"
       y2="-540" />
    <linearGradient
       id="SVGID_7_"
       gradientUnits="userSpaceOnUse"
       x1="137.39999"
       y1="-540"
       x2="440.10001"
       y2="-540"
       gradientTransform="matrix(0.1922,0.9814,-0.9836,0.1807,-835.1,-67.17)">
      <stop
         offset="0"
         style="stop-color:#86A8B9"
         id="stop46" />
      <stop
         offset="1"
         style="stop-color:#CBDBE3"
         id="stop48" />
    </linearGradient>
    <linearGradient
       inkscape:collect="always"
       xlink:href="#SVGID_8_"
       id="linearGradient6016"
       gradientUnits="userSpaceOnUse"
       gradientTransform="matrix(0.0962,0.9954,-0.9954,0.0962,-835.1,-67.17)"
       x1="37.84"
       y1="-485.89999"
       x2="391.89999"
       y2="-485.89999" />
    <linearGradient
       id="SVGID_8_"
       gradientUnits="userSpaceOnUse"
       x1="37.84"
       y1="-485.89999"
       x2="391.89999"
       y2="-485.89999"
       gradientTransform="matrix(0.0962,0.9954,-0.9954,0.0962,-835.1,-67.17)">
      <stop
         offset="0"
         style="stop-color:#A3C1CF"
         id="stop53" />
      <stop
         offset="1"
         style="stop-color:#CCD9E0"
         id="stop55" />
    </linearGradient>
    <linearGradient
       inkscape:collect="always"
       xlink:href="#SVGID_9_"
       id="linearGradient6018"
       gradientUnits="userSpaceOnUse"
       gradientTransform="matrix(0.0962,0.9954,-0.9954,0.0962,-835.1,-67.17)"
       x1="37.639999"
       y1="-439.5"
       x2="391.70001"
       y2="-439.5" />
    <linearGradient
       id="SVGID_9_"
       gradientUnits="userSpaceOnUse"
       x1="37.639999"
       y1="-439.5"
       x2="391.70001"
       y2="-439.5"
       gradientTransform="matrix(0.0962,0.9954,-0.9954,0.0962,-835.1,-67.17)">
      <stop
         offset="0"
         style="stop-color:#A3C1CF"
         id="stop60" />
      <stop
         offset="1"
         style="stop-color:#CCD9E0"
         id="stop62" />
    </linearGradient>
    <linearGradient
       inkscape:collect="always"
       xlink:href="#SVGID_10_"
       id="linearGradient6020"
       gradientUnits="userSpaceOnUse"
       gradientTransform="matrix(0.1922,0.9814,-0.9836,0.1807,-835.1,-67.17)"
       x1="124.8"
       y1="-382.60001"
       x2="450.70001"
       y2="-382.60001" />
    <linearGradient
       id="SVGID_10_"
       gradientUnits="userSpaceOnUse"
       x1="124.8"
       y1="-382.60001"
       x2="450.70001"
       y2="-382.60001"
       gradientTransform="matrix(0.1922,0.9814,-0.9836,0.1807,-835.1,-67.17)">
      <stop
         offset="0"
         style="stop-color:#86A8B9"
         id="stop67" />
      <stop
         offset="1"
         style="stop-color:#CBDBE3"
         id="stop69" />
    </linearGradient>
    <linearGradient
       inkscape:collect="always"
       xlink:href="#SVGID_11_"
       id="linearGradient6022"
       gradientUnits="userSpaceOnUse"
       gradientTransform="matrix(0.1922,0.9814,-0.9836,0.1807,-835.1,-67.17)"
       x1="124.4"
       y1="-407.39999"
       x2="451.70001"
       y2="-407.39999" />
    <linearGradient
       id="SVGID_11_"
       gradientUnits="userSpaceOnUse"
       x1="124.4"
       y1="-407.39999"
       x2="451.70001"
       y2="-407.39999"
       gradientTransform="matrix(0.1922,0.9814,-0.9836,0.1807,-835.1,-67.17)">
      <stop
         offset="0"
         style="stop-color:#86A8B9"
         id="stop74" />
      <stop
         offset="1"
         style="stop-color:#CBDBE3"
         id="stop76" />
    </linearGradient>
    <linearGradient
       inkscape:collect="always"
       xlink:href="#SVGID_12_"
       id="linearGradient6024"
       gradientUnits="userSpaceOnUse"
       gradientTransform="matrix(0,1,-1,-0.0011,-835.1,-67.17)"
       x1="215.39999"
       y1="-240.2"
       x2="353"
       y2="-240.2" />
    <linearGradient
       id="SVGID_12_"
       gradientUnits="userSpaceOnUse"
       x1="215.39999"
       y1="-240.2"
       x2="353"
       y2="-240.2"
       gradientTransform="matrix(0,1,-1,-0.0011,-835.1,-67.17)">
      <stop
         offset="0"
         style="stop-color:#8EA68B"
         id="stop81" />
      <stop
         offset="1"
         style="stop-color:#C0D0BD"
         id="stop83" />
    </linearGradient>
    <linearGradient
       inkscape:collect="always"
       xlink:href="#SVGID_13_"
       id="linearGradient6026"
       gradientUnits="userSpaceOnUse"
       gradientTransform="matrix(0.1922,0.9814,-0.9836,0.1807,-835.1,-67.17)"
       x1="131.39999"
       y1="-430.39999"
       x2="444.70001"
       y2="-430.39999" />
    <linearGradient
       id="SVGID_13_"
       gradientUnits="userSpaceOnUse"
       x1="131.39999"
       y1="-430.39999"
       x2="444.70001"
       y2="-430.39999"
       gradientTransform="matrix(0.1922,0.9814,-0.9836,0.1807,-835.1,-67.17)">
      <stop
         offset="0"
         style="stop-color:#86A8B9"
         id="stop88" />
      <stop
         offset="1"
         style="stop-color:#CBDBE3"
         id="stop90" />
    </linearGradient>
    <linearGradient
       inkscape:collect="always"
       xlink:href="#SVGID_14_"
       id="linearGradient6028"
       gradientUnits="userSpaceOnUse"
       gradientTransform="matrix(0.1922,0.9814,-0.9836,0.1807,-835.1,-67.17)"
       x1="132.8"
       y1="-244.2"
       x2="439.79999"
       y2="-244.2" />
    <linearGradient
       id="SVGID_14_"
       gradientUnits="userSpaceOnUse"
       x1="132.8"
       y1="-244.2"
       x2="439.79999"
       y2="-244.2"
       gradientTransform="matrix(0.1922,0.9814,-0.9836,0.1807,-835.1,-67.17)">
      <stop
         offset="0"
         style="stop-color:#86A8B9"
         id="stop95" />
      <stop
         offset="1"
         style="stop-color:#CBDBE3"
         id="stop97" />
    </linearGradient>
    <linearGradient
       inkscape:collect="always"
       xlink:href="#SVGID_15_"
       id="linearGradient6030"
       gradientUnits="userSpaceOnUse"
       gradientTransform="matrix(0.0961,0.9954,-0.9954,0.0961,-835.1,-67.17)"
       x1="58.790001"
       y1="-257.29999"
       x2="382.29999"
       y2="-257.29999" />
    <linearGradient
       id="SVGID_15_"
       gradientUnits="userSpaceOnUse"
       x1="58.790001"
       y1="-257.29999"
       x2="382.29999"
       y2="-257.29999"
       gradientTransform="matrix(0.0961,0.9954,-0.9954,0.0961,-835.1,-67.17)">
      <stop
         offset="0"
         style="stop-color:#A3C1CF"
         id="stop102" />
      <stop
         offset="1"
         style="stop-color:#CCD9E0"
         id="stop104" />
    </linearGradient>
    <linearGradient
       inkscape:collect="always"
       xlink:href="#SVGID_16_"
       id="linearGradient6032"
       gradientUnits="userSpaceOnUse"
       gradientTransform="matrix(0.0961,0.9954,-0.9954,0.0961,-835.1,-67.17)"
       x1="37.18"
       y1="-298.20001"
       x2="391.20001"
       y2="-298.20001" />
    <linearGradient
       id="SVGID_16_"
       gradientUnits="userSpaceOnUse"
       x1="37.18"
       y1="-298.20001"
       x2="391.20001"
       y2="-298.20001"
       gradientTransform="matrix(0.0961,0.9954,-0.9954,0.0961,-835.1,-67.17)">
      <stop
         offset="0"
         style="stop-color:#A3C1CF"
         id="stop109" />
      <stop
         offset="1"
         style="stop-color:#CCD9E0"
         id="stop111" />
    </linearGradient>
    <filter
       style="color-interpolation-filters:sRGB"
       inkscape:label="Drop Shadow"
       id="filter8391">
      <feFlood
         flood-opacity="0.498039"
         flood-color="rgb(0,0,0)"
         result="flood"
         id="feFlood8393" />
      <feComposite
         in="flood"
         in2="SourceGraphic"
         operator="in"
         result="composite1"
         id="feComposite8395" />
      <feGaussianBlur
         in="composite1"
         stdDeviation="3"
         result="blur"
         id="feGaussianBlur8397" />
      <feOffset
         dx="6"
         dy="6"
         result="offset"
         id="feOffset8399" />
      <feComposite
         in="SourceGraphic"
         in2="offset"
         operator="over"
         result="composite2"
         id="feComposite8401" />
    </filter>
  </defs>
  <sodipodi:namedview
     id="base"
     pagecolor="#ffffff"
     bordercolor="#666666"
     borderopacity="1.0"
     inkscape:pageopacity="0.0"
     inkscape:pageshadow="2"
     inkscape:zoom="32"
     inkscape:cx="501.79506"
     inkscape:cy="121.10939"
     inkscape:document-units="cm"
     inkscape:current-layer="g4128"
     showgrid="false"
     units="cm"
     inkscape:window-width="1920"
     inkscape:window-height="1017"
     inkscape:window-x="-8"
     inkscape:window-y="-8"
     inkscape:window-maximized="1"
     inkscape:snap-global="false" />
  <metadata
     id="metadata6413">
    <rdf:RDF>
      <cc:Work
         rdf:about="">
        <dc:format>image/svg+xml</dc:format>
        <dc:type
           rdf:resource="http://purl.org/dc/dcmitype/StillImage" />
        <dc:title />
      </cc:Work>
    </rdf:RDF>
  </metadata>
  <g
     id="g4128"
     inkscape:label="sun">
    <path
       inkscape:label="sun"
       style="fill:#d4ff28;stroke-width:0.11729874"
       inkscape:connector-curvature="0"
       id="path2710"
       d="m 515.89567,128.0552 c -0.91382,0.075 -1.66733,0.14092 -0.75693,0.23633 -1.0866,0.0509 -0.75956,0.13724 0.35552,0.26112 -1.53377,-0.0782 -1.098,0.26546 0.14497,0.51819 -1.57404,-0.0284 -0.81764,0.19246 -0.2344,0.4792 -1.11747,-0.0809 -1.45321,-0.0565 -0.39486,0.18749 -0.9106,-0.072 -0.18177,0.12618 0.70254,0.36145 -0.9102,-0.0926 -1.66081,-0.16494 -0.78376,0.0891 -1.07518,-0.14622 -0.76904,-0.005 0.30412,0.31257 -1.49051,-0.35019 -1.12285,0.0571 0.0537,0.5212 -1.52388,-0.30389 -0.85606,0.0261 -0.31155,0.41763 -1.08358,-0.27713 -1.41767,-0.31362 -0.41959,0.10982 -0.88213,-0.23158 -0.20018,0.089 0.62897,0.47327 -0.87865,-0.25137 -1.60429,-0.4549 -0.78527,-0.0536 -1.03203,-0.33248 -0.75524,-0.14212 0.24625,0.356 -1.40542,-0.60363 -1.11397,-0.14448 -0.0346,0.51408 -1.43797,-0.5599 -0.85878,-0.1368 -0.37628,0.35028 -1.01998,-0.46111 -1.34298,-0.55585 -0.43125,0.0326 -0.82965,-0.38131 -0.21197,0.0512 0.5402,0.57195 -0.82294,-0.39993 -1.50366,-0.72648 -0.76401,-0.1907 -0.96073,-0.50619 -0.71992,-0.2717 0.18331,0.3909 -1.44176,-0.79967 -1.0999,-0.36157 -0.11933,0.4967 -1.31727,-0.79588 -0.82909,-0.29151 -0.42854,0.2776 -0.92761,-0.62991 -1.22989,-0.77909 -0.42995,-0.043 -0.75352,-0.51851 -0.21704,0.0135 0.43679,0.65535 -0.74358,-0.53538 -1.35939,-0.97407 -0.72031,-0.31949 -0.86154,-0.66363 -0.66332,-0.3913 0.11539,0.41608 -1.34067,-1.10035 -1.08341,-0.61421 -0.20035,0.4682 -1.16174,-1.00779 -0.76898,-0.43168 -0.46821,0.20035 -0.80738,-0.77872 -1.07971,-0.97694 -0.41608,-0.11539 -0.65457,-0.63908 -0.21589,-0.0233 0.3195,0.72031 -0.64181,-0.65383 -1.17387,-1.19031 -0.65536,-0.43679 -0.96522,-0.70206 -0.31035,0.72339 -0.23461,0.85849 -0.97495,-1.19209 -0.68259,-0.54958 -0.49667,0.11933 -0.66259,-0.90323 -0.89709,-1.14403 -0.39088,-0.18331 -0.53578,-0.73965 -0.20923,-0.0589 0.1907,0.76401 -0.52076,-0.75216 -0.95326,-1.36985 -0.57195,-0.5402 -0.58847,-0.91172 -0.49373,-0.58872 -0.0326,0.43125 -0.70651,-1.35783 -0.76974,-0.81659 -0.35028,0.37627 -0.7602,-1.34558 -0.57809,-0.64461 -0.51408,0.0346 -0.49812,-1.00149 -0.68848,-1.27828 -0.356,-0.24625 -0.40126,-0.81902 -0.19772,-0.0934 0.0537,0.78527 -0.3843,-0.82915 -0.70486,-1.51111 -0.47328,-0.62897 -0.42343,-0.99808 -0.38694,-0.66399 -0.10981,0.41959 -0.46181,-1.45855 -0.62209,-0.93619 -0.41764,0.31157 -0.52136,-1.46857 -0.46222,-0.71629 -0.52119,-0.0537 -0.31792,-1.07316 -0.45879,-1.3793 -0.31258,-0.30412 -0.25403,-0.87704 -0.18168,-0.12643 -0.0891,0.78376 -0.23526,-0.88431 -0.4334,-1.61314 -0.36144,-0.70254 -0.24397,-1.05835 -0.26837,-0.72261 -0.18749,0.39486 -0.19892,-1.52069 -0.45609,-1.03308 -0.4792,0.2344 -0.25846,-1.5597 -0.34085,-0.762 -0.51819,-0.14496 -0.12388,-1.11506 -0.21018,-1.44211 -0.26112,-0.35552 -0.0954,-0.9104 -0.16129,-0.15687 -0.23634,0.75693 -0.075,-0.91382 -0.14092,-1.66733 -0.23633,-0.75693 -0.0509,-1.08659 -0.13724,-0.75955 -0.26112,0.35552 0.0782,-1.53376 -0.26546,-1.09801 -0.51819,0.14496 0.0284,-1.57402 -0.19244,-0.81768 -0.4792,-0.2344 0.0809,-1.11747 0.0565,-1.45321 -0.18749,-0.39486 0.072,-0.9106 -0.12618,-0.18177 -0.36145,0.70254 0.0926,-0.91019 0.16494,-1.66081 -0.0891,-0.78376 0.14622,-1.07518 0.005,-0.76904 -0.31257,0.30412 0.35019,-1.49051 -0.0571,-1.12284 -0.5212,0.0537 0.30388,-1.52382 -0.026,-0.85617 -0.41763,-0.31157 0.27713,-1.08358 0.31362,-1.41767 -0.10982,-0.41959 0.23158,-0.88213 -0.089,-0.20018 -0.47327,0.62897 0.25137,-0.87865 0.4549,-1.60429 0.0537,-0.78527 0.33248,-1.03203 0.14212,-0.75524 -0.356,0.24625 0.46804,-1.5742 0.14701,-1.17726 -0.51411,-0.0346 0.5599,-1.43796 0.1368,-0.85878 -0.35027,-0.37627 0.46111,-1.01998 0.55585,-1.34298 -0.0326,-0.43125 0.38132,-0.82965 -0.0512,-0.21197 -0.57195,0.5402 0.39993,-0.82294 0.72648,-1.50366 0.19071,-0.76401 0.50619,-0.96073 0.2717,-0.71992 -0.3909,0.18331 0.83675,-1.28288 0.33691,-1.0727 -0.49667,-0.11933 0.79588,-1.31727 0.29151,-0.82909 -0.2776,-0.42854 0.62991,-0.92761 0.77909,-1.22989 0.043,-0.42995 0.51851,-0.75352 -0.0135,-0.21704 -0.65536,0.43679 0.53539,-0.74358 0.97407,-1.35939 0.3195,-0.72031 0.66363,-0.86155 0.3913,-0.66333 -0.41608,0.11539 1.04413,-1.12323 0.51584,-0.99954 -0.4682,-0.20035 1.00778,-1.16174 0.43167,-0.76898 -0.20037,-0.4682 0.77871,-0.80738 0.97694,-1.07971 0.11539,-0.41608 0.63908,-0.65458 0.0233,-0.21589 -0.72031,0.31949 0.65384,-0.64181 1.19031,-1.17386 0.43679,-0.65535 0.79994,-0.7361 0.49766,-0.58692 -0.42995,0.043 1.38524,-1.09424 0.57578,-0.88825 -0.42855,-0.2776 1.19203,-0.97492 0.54969,-0.68264 -0.11933,-0.49667 0.90323,-0.6626 1.14403,-0.89709 0.18331,-0.3909 0.73965,-0.53578 0.0589,-0.20923 -0.76401,0.1907 0.75216,-0.52076 1.36986,-0.95326 0.5402,-0.57195 0.91172,-0.58847 0.58872,-0.49373 -0.43125,-0.0326 1.35784,-0.70651 0.81658,-0.76974 -0.37628,-0.35028 1.34563,-0.7602 0.64455,-0.57809 -0.0346,-0.51411 1.00149,-0.49812 1.27828,-0.68848 0.24625,-0.356 0.81903,-0.40125 0.0934,-0.19772 -0.78527,0.0536 0.82915,-0.3843 1.51111,-0.70485 0.62897,-0.47327 0.99808,-0.42344 0.66399,-0.38695 -0.41959,-0.10982 1.6693,-0.56189 0.83863,-0.64923 -0.31155,-0.41763 1.4686,-0.52137 0.71623,-0.46223 0.0537,-0.5212 1.07317,-0.31792 1.37931,-0.45879 0.30412,-0.31257 0.87704,-0.25404 0.12644,-0.18169 -0.78375,-0.0891 0.8843,-0.23527 1.61314,-0.43341 0.70253,-0.36145 1.05835,-0.24397 0.72261,-0.26837 -0.39486,-0.18749 1.94294,-0.50589 1.47289,-0.54929 -0.23439,-0.47919 1.55974,-0.25845 0.76198,-0.34086 0.14496,-0.51819 1.11507,-0.12388 1.44212,-0.21018 0.35551,-0.26112 0.9104,-0.0954 0.15688,-0.16129 -0.75693,-0.23633 0.91381,-0.0751 1.66733,-0.14093 0.75693,-0.23634 1.0866,-0.0509 0.75956,-0.13724 -0.35551,-0.26112 1.53377,0.0782 1.09802,-0.26545 -0.14496,-0.51819 1.57403,0.0284 0.81768,-0.19243 0.23439,-0.4792 1.11747,0.0809 1.45321,0.0565 0.39486,-0.18749 0.91061,0.072 0.18177,-0.12618 -0.70253,-0.36144 0.91019,0.0926 1.66081,0.16493 0.78375,-0.0891 1.07519,0.14622 0.76905,0.005 -0.30412,-0.31257 1.4905,0.35019 1.12286,-0.0571 -0.0537,-0.52119 1.5239,0.3039 0.85605,-0.0261 0.31155,-0.41764 1.08358,0.27713 1.41767,0.31362 0.41959,-0.10981 0.88213,0.23158 0.20018,-0.089 -0.62897,-0.47328 0.87865,0.25137 1.6043,0.45491 0.78527,0.0536 1.03203,0.33249 0.75524,0.14212 -0.24625,-0.356 1.40541,0.60363 1.11398,0.14449 0.0346,-0.51407 1.43797,0.55991 0.85879,0.1368 0.37628,-0.35028 1.01999,0.46111 1.34298,0.55585 0.43125,-0.0326 0.82966,0.38131 0.21197,-0.0512 -0.5402,-0.57195 0.82294,0.39993 1.50366,0.72648 0.76401,0.1907 0.96073,0.50619 0.71992,0.2717 -0.18331,-0.39089 1.27245,0.54937 0.91883,0.1924 0.11933,-0.49668 1.0843,0.7535 1.24797,0.44908 0.42855,-0.2776 0.92761,0.6299 1.22989,0.77908 0.42995,0.043 0.75352,0.5185 0.21705,-0.0135 -0.43679,-0.65537 0.74358,0.53539 1.35939,0.97408 0.72031,0.31951 0.86155,0.66362 0.66332,0.39129 -0.11539,-0.41609 1.12322,1.04412 0.99956,0.51586 0.20037,-0.46819 1.16174,1.0078 0.76896,0.43166 0.4682,-0.20036 0.80738,0.77871 1.07971,0.97693 0.41608,0.11538 0.65457,0.63908 0.21589,0.0233 -0.3195,-0.72031 0.64181,0.65384 1.17387,1.19032 0.65536,0.43679 0.7361,0.79994 0.58692,0.49766 -0.043,-0.42995 0.9292,1.21943 0.89696,0.67631 0.2776,-0.42853 0.79147,0.85232 1.03916,0.86546 0.49667,-0.11931 1.07863,1.4057 0.63465,0.31411 0.20019,-0.5807 0.95002,1.36476 1.05656,1.11331 0.60455,0.10895 0.7065,1.35782 0.76973,0.81659 0.35027,-0.37627 0.63441,0.97342 0.87861,1.02787 0.51408,-0.0346 0.49812,1.00148 0.68848,1.27827 0.356,0.24624 0.40125,0.81903 0.19772,0.0934 -0.0537,-0.78526 1.18914,2.33034 1.08472,1.00345 1.00068,-0.10219 0.52136,1.46859 0.46223,0.71625 0.5212,0.0537 0.31792,1.07316 0.45879,1.3793 0.31257,0.30412 0.25404,0.87704 0.18169,0.12643 0.0891,-0.78376 0.76668,2.22391 0.89742,1.14969 1.02814,0.0733 0.25845,1.55972 0.34086,0.76197 0.51819,0.14496 0.23707,1.75733 0.41523,0.59484 0.49745,-0.40141 0.14205,1.66012 0.37343,1.49959 0.49746,0.40141 0.0905,1.251 0.28391,0.72491 0.51819,-0.14496 -0.0284,1.57402 0.19243,0.81768 0.4792,0.23439 -0.0809,1.11747 -0.0565,1.45321 0.18749,0.39486 -0.072,0.9106 0.12618,0.18177 0.36144,-0.70254 -0.0926,0.91019 -0.16493,1.66081 0.0891,0.78376 -0.14621,1.07518 -0.005,0.76904 0.31258,-0.30412 -0.35019,1.49051 0.0572,1.12284 0.52119,-0.0537 -0.3039,1.5239 0.0261,0.85607 0.41764,0.31156 -0.27713,1.08359 -0.31362,1.41768 0.10981,0.41959 -0.23158,0.88214 0.089,0.20018 0.47328,-0.62896 -0.25137,0.87864 -0.45491,1.60429 -0.0537,0.78526 -0.33248,1.03203 -0.14212,0.75524 0.356,-0.24624 -0.60363,1.40541 -0.14448,1.11397 0.51408,0.0346 -0.5599,1.43796 -0.1368,0.85877 0.35028,0.37627 -0.46111,1.01998 -0.55585,1.34297 0.0326,0.43125 -0.38131,0.82965 0.0512,0.21197 0.57195,-0.5402 -0.39993,0.82293 -0.72648,1.50366 -0.1907,0.764 -0.50621,0.96074 -0.2717,0.71992 0.39088,-0.1833 -0.71658,1.34644 -0.27892,0.99796 0.49667,0.11931 -0.79591,1.31733 -0.29142,0.82904 0.27761,0.42854 -0.62991,0.92761 -0.77909,1.22989 -0.043,0.42995 -0.51851,0.75353 0.0136,0.21705 0.65536,-0.43679 -0.53539,0.74359 -0.97407,1.35939 -0.3195,0.72031 -0.66363,0.86155 -0.3913,0.66333 0.41608,-0.11538 -0.49954,0.59528 -0.85717,1.03224 -0.45396,0.65427 -0.28965,0.62327 0.65629,-0.22198 0.92217,-0.45391 -1.00779,1.16172 -0.43169,0.76897 0.20035,0.46819 -0.77871,0.80738 -0.97693,1.07971 -0.11539,0.41609 -0.63908,0.65457 -0.0233,0.21588 0.72031,-0.31951 -0.65383,0.64182 -1.19031,1.17387 -0.43679,0.65537 -0.79994,0.73609 -0.49766,0.58691 0.42995,-0.043 -0.59301,0.50154 -1.01922,0.87114 -0.55788,0.56739 -0.39009,0.56481 0.68489,-0.10645 0.98642,-0.28979 -1.19206,0.97492 -0.54963,0.68261 0.11933,0.49666 -0.90323,0.66259 -1.14403,0.89708 -0.18331,0.39089 -0.73965,0.53578 -0.0589,0.20923 0.76401,-0.1907 -0.75216,0.52076 -1.36985,0.95325 -0.5402,0.57195 -0.91172,0.58847 -0.58872,0.49373 0.43125,0.0326 -1.43676,0.85104 -0.86964,0.77772 0.37628,0.35028 -1.34561,0.76022 -0.64456,0.57808 0.0346,0.51407 -1.00149,0.49812 -1.27828,0.68849 -0.24625,0.356 -0.81902,0.40126 -0.0934,0.19772 0.78527,-0.0536 -0.82915,0.38431 -1.51111,0.70486 -0.62897,0.47328 -0.99808,0.42343 -0.66399,0.38694 0.41959,0.10981 -1.45854,0.46181 -0.93621,0.62209 0.31155,0.41764 -1.46857,0.52137 -0.71627,0.46222 -0.0537,0.52119 -1.07316,0.31793 -1.3793,0.45879 -0.30412,0.31258 -0.87704,0.25403 -0.12644,0.18168 0.78376,0.0891 -0.88431,0.23526 -1.61314,0.43341 -0.70254,0.36144 -1.05835,0.24397 -0.72261,0.26837 0.39486,0.18749 -1.52069,0.19892 -1.03308,0.4561 0.2344,0.47919 -1.55971,0.25845 -0.762,0.34085 -0.14497,0.51818 -1.11507,0.12387 -1.44212,0.21017 -0.35552,0.26111 -0.9104,0.0954 -0.15688,0.16128 0.75693,0.23633 z"
       sodipodi:nodetypes="ccccccccccccccccccccccccccccccccccccccccccccccccccccccccccccccccccccccccccccccccccccccccccccccccccccccccccccccccccccccccccccccccccccccccccccccccccccccccccccccccccccccccccccccccccccccccccccccccccccccccccccccccccc" />
  </g>
</svg>
