<?xml version="1.0" encoding="UTF-8" standalone="no"?>
<!-- Created with Inkscape (http://www.inkscape.org/) -->

<svg
   xmlns:dc="http://purl.org/dc/elements/1.1/"
   xmlns:cc="http://creativecommons.org/ns#"
   xmlns:rdf="http://www.w3.org/1999/02/22-rdf-syntax-ns#"
   xmlns:svg="http://www.w3.org/2000/svg"
   xmlns="http://www.w3.org/2000/svg"
   xmlns:sodipodi="http://sodipodi.sourceforge.net/DTD/sodipodi-0.dtd"
   xmlns:inkscape="http://www.inkscape.org/namespaces/inkscape"
   id="svg2"
   sodipodi:docname="twitter.svg"
   viewBox="0 0 68.055 68.086"
   version="1.1"
   inkscape:version="0.92.3 (2405546, 2018-03-11)">
  <defs
     id="defs4">
    <filter
       id="filter3816"
       inkscape:collect="always"
       color-interpolation-filters="sRGB">
      <feGaussianBlur
         id="feGaussianBlur3818"
         stdDeviation="0.63462833"
         inkscape:collect="always" />
    </filter>
    <radialGradient
       id="radialGradient3958"
       gradientUnits="userSpaceOnUse"
       cy="1355.4"
       cx="-181.81"
       r="31.731"
       inkscape:collect="always">
      <stop
         id="stop3798"
         style="stop-color:#f63ec5"
         offset="0" />
      <stop
         id="stop3804"
         style="stop-color:#f876c2"
         offset=".87786" />
      <stop
         id="stop3800"
         style="stop-color:#f99dd2"
         offset="1" />
    </radialGradient>
  </defs>
  <sodipodi:namedview
     id="base"
     fit-margin-left="0"
     inkscape:zoom="11.313708"
     borderopacity="1.0"
     inkscape:current-layer="g3946"
     inkscape:cx="23.708049"
     inkscape:cy="27.772279"
     inkscape:window-maximized="1"
     inkscape:snap-bbox="true"
     showgrid="false"
     fit-margin-right="0"
     inkscape:document-units="px"
     bordercolor="#666666"
     inkscape:window-x="-8"
     inkscape:window-y="-8"
     fit-margin-bottom="0"
     inkscape:window-width="1920"
     inkscape:pageopacity="0.0"
     inkscape:pageshadow="2"
     pagecolor="#ffffff"
     inkscape:window-height="1017"
     fit-margin-top="0"
     inkscape:snap-global="false">
    <inkscape:grid
       id="grid3788"
       originy="-223.90914"
       enabled="true"
       originx="-288.01513"
       visible="true"
       snapvisiblegridlinesonly="true"
       type="xygrid"
       empspacing="4"
       spacingx="1"
       spacingy="1" />
  </sodipodi:namedview>
  <g
     id="layer1"
     inkscape:label="Layer 1"
     inkscape:groupmode="layer"
     transform="translate(-288.02,-760.37)">
    <g
       id="g3966">
      <g
         id="g3946"
         transform="translate(80.08)">
        <circle
           id="path3948"
           style="fill:none;stroke:#000000;filter:url(#filter3816)"
           transform="matrix(1.0085,0,0,1.0085,425.31,-572.52)"
           cx="-181.81483"
           cy="1355.4458"
           r="31.731417" />
        <circle
           id="path3950"
           style="fill:url(#radialGradient3958)"
           transform="matrix(1.0085,0,0,1.0085,425.31,-572.52)"
           cx="-181.81483"
           cy="1355.4458"
           r="31.731417" />
        <circle
           id="path3952"
           style="fill:#71123b"
           transform="matrix(0.88241,0,0,0.88241,402.39,-401.65)"
           cx="-181.81483"
           cy="1355.4458"
           r="31.731417" />
        <circle
           id="path3954"
           style="fill:#4267b2;fill-opacity:1"
           transform="matrix(0.85089,0,0,0.85089,396.66,-358.94)"
           cx="-181.81483"
           cy="1355.4458"
           r="31.731417" />
        <g
           id="Dark_Blue"
           transform="matrix(0.13556196,0,0,0.13556196,215.00268,767.31373)">
          <circle
             class="st0"
             cx="198.69597"
             cy="198.69597"
             r="200"
             id="circle4"
             style="fill:#1da1f2" />
        </g>
        <g
           id="Logo__x2014__FIXED"
           transform="matrix(0.13556196,0,0,0.13556196,214.8259,767.13695)">
          <path
             class="st1"
             d="m 163.4,305.5 c 88.7,0 137.2,-73.5 137.2,-137.2 0,-2.1 0,-4.2 -0.1,-6.2 9.4,-6.8 17.6,-15.3 24.1,-25 -8.6,3.8 -17.9,6.4 -27.7,7.6 10,-6 17.6,-15.4 21.2,-26.7 -9.3,5.5 -19.6,9.5 -30.6,11.7 -8.8,-9.4 -21.3,-15.2 -35.2,-15.2 -26.6,0 -48.2,21.6 -48.2,48.2 0,3.8 0.4,7.5 1.3,11 -40.1,-2 -75.6,-21.2 -99.4,-50.4 -4.1,7.1 -6.5,15.4 -6.5,24.2 0,16.7 8.5,31.5 21.5,40.1 -7.9,-0.2 -15.3,-2.4 -21.8,-6 0,0.2 0,0.4 0,0.6 0,23.4 16.6,42.8 38.7,47.3 -4,1.1 -8.3,1.7 -12.7,1.7 -3.1,0 -6.1,-0.3 -9.1,-0.9 6.1,19.2 23.9,33.1 45,33.5 -16.5,12.9 -37.3,20.6 -59.9,20.6 -3.9,0 -7.7,-0.2 -11.5,-0.7 21.1,13.8 46.5,21.8 73.7,21.8"
             id="path7"
             inkscape:connector-curvature="0"
             style="fill:#ffffff" />
        </g>
      </g>
    </g>
  </g>
  <metadata
     id="metadata22">
    <rdf:RDF>
      <cc:Work>
        <dc:format>image/svg+xml</dc:format>
        <dc:type
           rdf:resource="http://purl.org/dc/dcmitype/StillImage" />
        <cc:license
           rdf:resource="http://creativecommons.org/licenses/publicdomain/" />
        <dc:publisher>
          <cc:Agent
             rdf:about="http://openclipart.org/">
            <dc:title>Openclipart</dc:title>
          </cc:Agent>
        </dc:publisher>
      </cc:Work>
      <cc:License
         rdf:about="http://creativecommons.org/licenses/publicdomain/">
        <cc:permits
           rdf:resource="http://creativecommons.org/ns#Reproduction" />
        <cc:permits
           rdf:resource="http://creativecommons.org/ns#Distribution" />
        <cc:permits
           rdf:resource="http://creativecommons.org/ns#DerivativeWorks" />
      </cc:License>
    </rdf:RDF>
  </metadata>
</svg>
