<?xml version="1.0" encoding="UTF-8" standalone="no"?>
<!-- Created with Inkscape (http://www.inkscape.org/) -->

<svg
   xmlns:dc="http://purl.org/dc/elements/1.1/"
   xmlns:cc="http://creativecommons.org/ns#"
   xmlns:rdf="http://www.w3.org/1999/02/22-rdf-syntax-ns#"
   xmlns:svg="http://www.w3.org/2000/svg"
   xmlns="http://www.w3.org/2000/svg"
   xmlns:xlink="http://www.w3.org/1999/xlink"
   xmlns:sodipodi="http://sodipodi.sourceforge.net/DTD/sodipodi-0.dtd"
   xmlns:inkscape="http://www.inkscape.org/namespaces/inkscape"
   width="800mm"
   height="800mm"
   viewBox="0 0 800 800"
   version="1.1"
   id="svg8"
   sodipodi:docname="cowTorso.svg"
   inkscape:version="0.92.3 (2405546, 2018-03-11)">
  <defs
     id="defs2">
    <linearGradient
       id="linearGradient4098">
      <stop
         offset="0"
         style="stop-color:#ffb142"
         id="stop4100" />
      <stop
         offset="1"
         style="stop-color:#c87600"
         id="stop4104" />
    </linearGradient>
    <linearGradient
       x1="346.23999"
       y1="537.40997"
       gradientTransform="matrix(0.64148,0,0,0.77805,125.37,117.53)"
       x2="359.47"
       gradientUnits="userSpaceOnUse"
       xlink:href="#linearGradient4098"
       y2="537.40997"
       id="linearGradient3211" />
    <linearGradient
       x1="186.21001"
       y1="354.01999"
       x2="186.21001"
       gradientUnits="userSpaceOnUse"
       xlink:href="#linearGradient4098"
       y2="362.28"
       id="linearGradient3327" />
    <linearGradient
       x1="195.75"
       y1="354.01999"
       x2="195.75"
       gradientUnits="userSpaceOnUse"
       xlink:href="#linearGradient4098"
       y2="362.28"
       id="linearGradient3329" />
    <linearGradient
       x1="176.39"
       y1="354.01999"
       x2="176.39"
       gradientUnits="userSpaceOnUse"
       xlink:href="#linearGradient4098"
       y2="362.28"
       id="linearGradient3331" />
    <linearGradient
       x1="229.44"
       y1="354.01999"
       x2="229.44"
       gradientUnits="userSpaceOnUse"
       xlink:href="#linearGradient4098"
       y2="362.28"
       id="linearGradient3333" />
    <linearGradient
       x1="238.98"
       y1="354.01999"
       x2="238.98"
       gradientUnits="userSpaceOnUse"
       xlink:href="#linearGradient4098"
       y2="362.28"
       id="linearGradient3335" />
    <linearGradient
       x1="219.61"
       y1="354.01999"
       x2="219.61"
       gradientUnits="userSpaceOnUse"
       xlink:href="#linearGradient4098"
       y2="362.28"
       id="linearGradient3337" />
    <linearGradient
       x1="346.23999"
       y1="537.40997"
       gradientTransform="matrix(0.64148,0,0,0.77805,-36.81,-248.67)"
       x2="359.47"
       gradientUnits="userSpaceOnUse"
       xlink:href="#linearGradient4098"
       y2="537.40997"
       id="linearGradient3211-9" />
    <linearGradient
       gradientTransform="matrix(1.7812,0,0,1.7055,-137.689,-258.09)"
       x1="186.21001"
       y1="354.01999"
       x2="186.21001"
       gradientUnits="userSpaceOnUse"
       xlink:href="#linearGradient4098"
       y2="362.28"
       id="linearGradient3327-5" />
    <linearGradient
       gradientTransform="matrix(1.7812,0,0,1.7055,-154.6887,-258.09)"
       x1="195.75"
       y1="354.01999"
       x2="195.75"
       gradientUnits="userSpaceOnUse"
       xlink:href="#linearGradient4098"
       y2="362.28"
       id="linearGradient3329-8" />
    <linearGradient
       gradientTransform="matrix(1.7812,0,0,1.7055,-120.189,-258.09)"
       x1="176.39"
       y1="354.01999"
       x2="176.39"
       gradientUnits="userSpaceOnUse"
       xlink:href="#linearGradient4098"
       y2="362.28"
       id="linearGradient3331-5" />
    <linearGradient
       gradientTransform="matrix(1.7812,0,0,1.7055,-214.689,-258.09)"
       x1="229.44"
       y1="354.01999"
       x2="229.44"
       gradientUnits="userSpaceOnUse"
       xlink:href="#linearGradient4098"
       y2="362.28"
       id="linearGradient3333-9" />
    <linearGradient
       gradientTransform="matrix(1.7812,0,0,1.7055,-231.689,-258.09)"
       x1="238.98"
       y1="354.01999"
       x2="238.98"
       gradientUnits="userSpaceOnUse"
       xlink:href="#linearGradient4098"
       y2="362.28"
       id="linearGradient3335-4" />
    <linearGradient
       gradientTransform="matrix(1.7812,0,0,1.7055,-197.189,-258.09)"
       x1="219.61"
       y1="354.01999"
       x2="219.61"
       gradientUnits="userSpaceOnUse"
       xlink:href="#linearGradient4098"
       y2="362.28"
       id="linearGradient3337-8" />
    <linearGradient
       id="linearGradient3173">
      <stop
         offset="0"
         style="stop-color:#a5a5a5"
         id="stop3175" />
      <stop
         offset="1"
         style="stop-color:#000000"
         id="stop3177" />
    </linearGradient>
    <linearGradient
       x1="346.23999"
       y1="537.40997"
       gradientTransform="translate(0,-2)"
       x2="359.47"
       gradientUnits="userSpaceOnUse"
       y2="537.40997"
       id="linearGradient3211-7">
      <stop
         offset="0"
         style="stop-color:#ffb142"
         id="stop4100-1" />
      <stop
         offset="1"
         style="stop-color:#c87600"
         id="stop4104-7" />
    </linearGradient>
    <radialGradient
       r="167.56"
       gradientTransform="matrix(0,-1.4798,1.3255,-3.8491e-6,-461.83,1155.7)"
       cx="488.95001"
       cy="582.84998"
       gradientUnits="userSpaceOnUse"
       xlink:href="#linearGradient3173"
       id="radialGradient3475" />
    <radialGradient
       r="59.255001"
       gradientTransform="matrix(-2.8422e-8,-2.2818,2.0268,0,-1051.3,1276.7)"
       cx="355.12"
       cy="615.59998"
       gradientUnits="userSpaceOnUse"
       xlink:href="#linearGradient3173"
       id="radialGradient3483" />
    <radialGradient
       r="123.55"
       gradientTransform="matrix(-5.8291e-6,0.89419,-1.9479,1.1251e-8,336.39,255.17)"
       cx="414.67999"
       cy="-8.8804998"
       gradientUnits="userSpaceOnUse"
       id="radialGradient4090">
      <stop
         offset="0"
         style="stop-color:#ffb142"
         id="stop3205" />
      <stop
         offset=".88679"
         style="stop-color:#ffb141"
         id="stop4092" />
      <stop
         offset="1"
         style="stop-color:#c87600"
         id="stop3207" />
    </radialGradient>
    <radialGradient
       r="59.255001"
       gradientTransform="matrix(2.8422e-8,-2.2818,-2.0268,0,1762.1,1276.7)"
       cx="347.67999"
       cy="652.28003"
       gradientUnits="userSpaceOnUse"
       xlink:href="#linearGradient3173"
       id="radialGradient4126" />
    <radialGradient
       r="104.49"
       gradientTransform="matrix(0,-1.2392,1.1275,1.6466e-6,-212.98,1086.1)"
       cx="411.32999"
       cy="565.32001"
       gradientUnits="userSpaceOnUse"
       id="radialGradient3225">
      <stop
         offset="0"
         style="stop-color:#ff0000"
         id="stop3221" />
      <stop
         offset="1"
         style="stop-color:#7f0000"
         id="stop3223" />
    </radialGradient>
    <radialGradient
       r="83.844002"
       gradientTransform="matrix(0.5904,1.0226,-1.374,0.7933,843.26,-174.76)"
       cx="314.89999"
       cy="491.28"
       gradientUnits="userSpaceOnUse"
       id="radialGradient3287">
      <stop
         offset="0"
         style="stop-color:#ffffff"
         id="stop3273" />
      <stop
         offset=".30189"
         style="stop-color:#ffffff"
         id="stop3289" />
      <stop
         offset="1"
         style="stop-color:#4d4d4d"
         id="stop3275" />
    </radialGradient>
    <linearGradient
       x1="311"
       y1="313.35999"
       gradientTransform="translate(2,-16)"
       x2="311"
       gradientUnits="userSpaceOnUse"
       y2="521.44"
       id="linearGradient3346">
      <stop
         offset="0"
         style="stop-color:#ffffff"
         id="stop3201" />
      <stop
         offset="1"
         style="stop-color:#ffffff;stop-opacity:0"
         id="stop3203" />
    </linearGradient>
    <radialGradient
       r="279.59"
       gradientTransform="matrix(0,0.96845,-1.0593,0,795.93,169.32)"
       cx="318.07999"
       cy="434.95001"
       gradientUnits="userSpaceOnUse"
       id="radialGradient3318">
      <stop
         offset="0"
         style="stop-color:#d6ff01"
         id="stop2424" />
      <stop
         offset="1"
         style="stop-color:#00c003"
         id="stop2426" />
    </radialGradient>
  </defs>
  <sodipodi:namedview
     id="base"
     pagecolor="#ffffff"
     bordercolor="#666666"
     borderopacity="1.0"
     inkscape:pageopacity="0.0"
     inkscape:pageshadow="2"
     inkscape:zoom="0.7071068"
     inkscape:cx="673.30283"
     inkscape:cy="1334.1245"
     inkscape:document-units="mm"
     inkscape:current-layer="g1048"
     showgrid="false"
     inkscape:window-width="1920"
     inkscape:window-height="1017"
     inkscape:window-x="-8"
     inkscape:window-y="-8"
     inkscape:window-maximized="1"
     inkscape:measure-start="0,0"
     inkscape:measure-end="0,0"
     inkscape:snap-center="false"
     inkscape:snap-object-midpoints="false"
     inkscape:snap-bbox="false">
    <inkscape:grid
       type="xygrid"
       id="grid4703" />
  </sodipodi:namedview>
  <metadata
     id="metadata5">
    <rdf:RDF>
      <cc:Work
         rdf:about="">
        <dc:format>image/svg+xml</dc:format>
        <dc:type
           rdf:resource="http://purl.org/dc/dcmitype/StillImage" />
        <dc:title />
      </cc:Work>
    </rdf:RDF>
  </metadata>
  <g
     id="g1048"
     inkscape:label="cowTorso">
    <g
       style="display:inline"
       inkscape:label="cowTorso"
       id="g5975"
       transform="matrix(0.26458333,0,0,0.26458333,-54.936745,-11.780991)">
      <path
         transform="matrix(1.2168,0,0,1.2168,-76.15,-121.55)"
         d="m 441.29,560.71 c 0.02,49.72 -40.29,90.04 -90.02,90.04 -49.72,0 -90.03,-40.32 -90.02,-90.04 -0.01,-49.73 40.3,-90.05 90.02,-90.05 49.73,0 90.04,40.32 90.02,90.05 z"
         style="display:inline;fill:#ffffff;stroke:#000000;stroke-width:3.28740001;stroke-linecap:round;stroke-linejoin:round"
         id="path2383-19"
         inkscape:connector-curvature="0" />
      <path
         sodipodi:nodetypes="ccccccccccccccccccccccccc"
         d="m 441.09,500.82 c -5.4,6.55 -6.24,17.01 -4.56,21.04 1.24,2.98 9.47,4.44 17.35,5.18 -3.09,-9.37 -7.41,-18.18 -12.79,-26.22 z m -193.42,29.39 c -2.86,9.72 -4.41,19.98 -4.4,30.63 0,5.56 0.42,11.03 1.23,16.36 8.18,4.75 18.8,20.39 27.85,21.57 11.34,1.48 8.88,-21.69 1.98,-23.17 -6.91,-1.48 -9.86,-12.33 -10.36,-24.16 -0.33,-7.94 -4.68,-15.67 -16.3,-21.23 z m 211.54,27.73 c -2.92,1.36 -5.63,3.39 -7.89,6.32 -11.83,15.28 -21.69,4.93 -33.53,10.35 -11.83,5.43 -3.94,19.23 0.5,32.54 3.21,9.64 -2.61,28.82 4.4,34.76 22.44,-19.8 36.59,-48.79 36.58,-81.07 0,-0.97 -0.01,-1.93 -0.03,-2.9 -0.01,0.01 -0.03,0 -0.03,0 z M 304.4,587.43 c -1.97,10.36 33.03,13.31 38.95,34.51 5.91,21.2 32.54,9.86 32.04,-1.97 -0.49,-11.83 -17.74,-17.25 -13.31,-24.16 25.64373,-18.34067 5.35494,-34.73608 -16.0525,-36.645 -26.68616,-6.44858 -38.44837,14.59335 -41.6275,28.265 z"
         style="display:inline;fill:#4d4d4d;fill-rule:evenodd"
         id="path3173-1"
         inkscape:connector-curvature="0" />
      <path
         d="m 454.19,523.12 c 0.07,1.69 0.12,3.4 0.12,5.1 0,60.46 -49.06,109.53 -109.53,109.53 -47.26,0 -87.59,-30 -102.94,-71.97 2.66,58.11 50.68,104.47 109.44,104.47 60.47,0 109.53,-49.07 109.53,-109.53 0,-13.2 -2.34,-25.87 -6.62,-37.6 z"
         style="display:inline;fill:#000000;fill-opacity:0.31373004"
         id="path3221-68"
         inkscape:connector-curvature="0" />
    </g>
  </g>
</svg>
