<?xml version="1.0" encoding="UTF-8" standalone="no"?>
<!-- Created with Inkscape (http://www.inkscape.org/) -->

<svg
   xmlns:dc="http://purl.org/dc/elements/1.1/"
   xmlns:cc="http://creativecommons.org/ns#"
   xmlns:rdf="http://www.w3.org/1999/02/22-rdf-syntax-ns#"
   xmlns:svg="http://www.w3.org/2000/svg"
   xmlns="http://www.w3.org/2000/svg"
   xmlns:sodipodi="http://sodipodi.sourceforge.net/DTD/sodipodi-0.dtd"
   xmlns:inkscape="http://www.inkscape.org/namespaces/inkscape"
   width="210mm"
   height="297mm"
   viewBox="0 0 210 297"
   version="1.1"
   id="svg5324"
   inkscape:version="0.92.3 (2405546, 2018-03-11)"
   sodipodi:docname="deerHorn1.svg">
  <defs
     id="defs5318" />
  <sodipodi:namedview
     id="base"
     pagecolor="#ffffff"
     bordercolor="#666666"
     borderopacity="1.0"
     inkscape:pageopacity="0.0"
     inkscape:pageshadow="2"
     inkscape:zoom="7.9195959"
     inkscape:cx="594.5977"
     inkscape:cy="764.61241"
     inkscape:document-units="mm"
     inkscape:current-layer="svg5324"
     showgrid="false"
     inkscape:window-width="1920"
     inkscape:window-height="1017"
     inkscape:window-x="-8"
     inkscape:window-y="-8"
     inkscape:window-maximized="1" />
  <metadata
     id="metadata5321">
    <rdf:RDF>
      <cc:Work
         rdf:about="">
        <dc:format>image/svg+xml</dc:format>
        <dc:type
           rdf:resource="http://purl.org/dc/dcmitype/StillImage" />
        <dc:title></dc:title>
      </cc:Work>
    </rdf:RDF>
  </metadata>
  <g
     id="g6455"
     inkscape:label="deerHorn1">
    <path
       transform="scale(0.26458333)"
       inkscape:connector-curvature="0"
       id="path6449"
       d="m 553.37084,341.05186 c -2.20639,-1.47954 -3.34613,-3.46438 -3.34613,-5.82727 0,-1.95821 0.44686,-3.84623 1.0807,-4.56607 l 0.30028,-0.34104 0.004,0.37141 c 0.002,0.20428 -0.0611,1.01399 -0.14077,1.79937 -0.27088,2.6718 0.28712,4.33455 2.05516,6.1241 l 0.97085,0.98267 0.0895,1.07491 c 0.0493,0.59119 0.0686,1.07139 0.043,1.0671 -0.0256,-0.004 -0.50107,-0.31262 -1.05666,-0.68518 z"
       style="fill:#e7c5b5;fill-opacity:1;stroke-width:0.95447487;stroke-miterlimit:4;stroke-dasharray:none" />
    <path
       transform="scale(0.26458333)"
       inkscape:connector-curvature="0"
       id="path6447"
       d="m 573.78972,355.41959 c -0.15909,-0.11088 -0.68172,-0.69914 -1.1614,-1.30724 -0.97991,-1.24224 -1.07709,-1.29402 -2.80779,-1.49609 -1.2978,-0.15152 -2.20537,-0.50318 -5.114,-1.98153 -2.98813,-1.51875 -3.97982,-2.18789 -6.70508,-4.52427 -1.5185,-1.30181 -2.5525,-2.7865 -2.84922,-4.09108 -0.42216,-1.85607 -0.55952,-3.60592 -0.37211,-4.74036 0.0738,-0.44673 0.16897,-0.21981 1.11703,2.66333 0.56999,1.73342 1.2158,3.48834 1.43512,3.89982 0.76333,1.43216 1.94924,2.68203 3.15202,3.32204 0.56922,0.30288 0.3872,0.0472 -0.61144,-0.85893 -1.74753,-1.58561 -2.19919,-2.38444 -2.98216,-5.2744 -0.44783,-1.65298 -0.5691,-5.11009 -0.24496,-6.98352 0.26093,-1.50812 0.85633,-3.29911 1.35606,-4.07908 0.3549,-0.55393 1.47484,-1.66832 1.57548,-1.56768 0.0238,0.0238 -0.0986,0.51751 -0.27206,1.09706 -0.17346,0.57955 -0.3135,1.31362 -0.31119,1.63126 0.004,0.56951 0.007,0.57368 0.22097,0.30018 0.11922,-0.15253 0.35882,-0.48073 0.53244,-0.72932 0.28394,-0.40654 1.36924,-1.32931 1.56345,-1.32931 0.0426,0 -0.1864,0.35513 -0.50898,0.78918 -0.68348,0.91966 -1.53613,2.65138 -1.98565,4.03282 -1.46363,4.49794 -0.14995,9.49534 3.44957,13.12254 0.52471,0.52874 1.29447,1.34867 1.71058,1.82206 0.41612,0.4734 1.08996,1.10614 1.49742,1.4061 0.88854,0.6541 2.3752,1.40166 2.98618,1.50157 0.42545,0.0696 0.43252,0.0645 0.1894,-0.13651 -0.13889,-0.11483 -0.65028,-0.41072 -1.13642,-0.65754 -1.86215,-0.94544 -2.96075,-1.88652 -3.52702,-3.02134 -0.27543,-0.55197 -0.32419,-0.81941 -0.32419,-1.77827 0,-1.10626 0.20884,-2.55967 0.36779,-2.55967 0.0442,0 0.1822,0.4946 0.30663,1.09911 0.12444,0.60451 0.39568,1.53849 0.60278,2.0755 0.31751,0.82334 0.49928,1.09009 1.1596,1.70171 0.96228,0.89131 2.40474,1.84621 3.28228,2.17284 0.87488,0.32564 2.5574,0.50231 2.45339,0.25762 -0.0403,-0.0949 -0.28043,-0.65556 -0.53352,-1.24587 -0.76044,-1.77367 -1.11795,-3.37888 -1.03816,-4.66137 0.0819,-1.31715 0.46661,-3.12313 0.61531,-2.88874 0.057,0.0899 0.10451,0.62213 0.10558,1.18284 0.003,1.34649 0.32191,3.15702 0.78109,4.42824 0.20428,0.56556 0.88446,1.92927 1.5115,3.03046 2.06459,3.62576 2.1808,3.92702 1.66988,4.32891 -0.39333,0.30939 -0.75836,0.3242 -1.1562,0.0469 z"
       style="fill:#e7c5b5;fill-opacity:1;stroke-width:0.95447487;stroke-miterlimit:4;stroke-dasharray:none" />
    <path
       style="display:inline;fill:#000000;fill-opacity:1;stroke-width:0.125;stroke-miterlimit:4;stroke-dasharray:none"
       d="m 151.82312,94.337915 c -0.15341,-0.0394 -0.29629,-0.14185 -0.5761,-0.41326 l -0.20112,-0.19507 -0.12908,-0.0114 c -0.28874,-0.0254 -0.60431,-0.13786 -1.02847,-0.36642 -0.12733,-0.0686 -0.3729,-0.19429 -0.5457,-0.27927 -0.55309,-0.27201 -1.15834,-0.64285 -1.57923,-0.96762 -0.0955,-0.0737 -0.22945,-0.1722 -0.29766,-0.21893 -0.38755,-0.26546 -0.64732,-0.55344 -0.77021,-0.85387 -0.1384,-0.33835 -0.16972,-0.3748 -0.52039,-0.60568 -0.39004,-0.2568 -0.57437,-0.44885 -0.73178,-0.76245 -0.24918,-0.49643 -0.33664,-1.21477 -0.20925,-1.71853 0.0517,-0.20459 0.38964,-0.86019 0.48795,-0.94672 0.1134,-0.0998 0.23998,0.0187 0.31488,0.29471 0.0357,0.13161 0.0361,0.3473 0.001,0.61893 -0.0422,0.32847 -0.0469,0.42293 -0.0285,0.58238 0.0308,0.267 0.13111,0.52646 0.29906,0.77361 0.0878,0.12922 0.29218,0.37207 0.3131,0.37207 0.0313,0 0.0393,-0.0798 0.0486,-0.48585 l 0.01,-0.42797 0.0855,0.0769 c 0.0976,0.0879 0.14625,0.17577 0.20438,0.36976 0.0225,0.0749 0.0446,0.13628 0.0491,0.13635 0.005,7e-5 0.006,-0.0613 0.003,-0.13634 -0.007,-0.18117 0.0236,-0.67857 0.0555,-0.89181 0.014,-0.0939 0.0436,-0.24254 0.0658,-0.33035 0.14698,-0.58304 0.68501,-1.31432 1.01566,-1.38045 l 0.0561,-0.0112 -0.0105,0.0894 c -0.006,0.0492 -0.0479,0.22295 -0.0935,0.38618 -0.0456,0.16322 -0.083,0.30759 -0.083,0.32081 0,0.0132 0.0215,-0.006 0.0477,-0.0418 0.0707,-0.0976 0.15819,-0.16386 0.32437,-0.2457 0.17437,-0.0859 0.39561,-0.15224 0.55768,-0.16731 l 0.11519,-0.0107 -0.12152,0.15548 c -0.29417,0.37642 -0.41547,0.56797 -0.54451,0.85987 -0.1898,0.42935 -0.33261,0.86627 -0.39883,1.2202 -0.0487,0.26053 -0.0521,0.71127 -0.007,0.95276 0.0689,0.37031 0.26005,0.8395 0.47485,1.16582 0.0974,0.148 0.40222,0.47956 0.44085,0.47956 0.009,0 0.0221,-0.0577 0.0282,-0.12816 0.0262,-0.29855 0.0908,-0.61379 0.19826,-0.96732 0.0664,-0.21839 0.15743,-0.43413 0.17478,-0.41423 0.006,0.007 0.0207,0.069 0.0319,0.13718 0.0536,0.32549 0.18786,0.95678 0.24103,1.13376 0.15429,0.51351 0.37299,0.79332 0.78536,1.00477 0.1689,0.0866 0.50239,0.20885 0.52047,0.19078 0.005,-0.005 -0.0129,-0.0572 -0.0396,-0.11616 -0.13316,-0.29367 -0.18101,-0.52779 -0.19445,-0.95147 -0.0108,-0.34112 -1.2e-4,-0.45433 0.0693,-0.73251 0.0969,-0.38853 0.27954,-0.79682 0.42159,-0.94265 0.0443,-0.0454 0.0884,-0.0826 0.0981,-0.0826 0.0238,0 0.0231,0.29802 -0.002,0.73746 -0.031,0.55166 0.0143,0.93263 0.15304,1.28952 0.0967,0.24854 0.52503,0.94418 0.90481,1.46931 0.14259,0.19716 0.17319,0.26977 0.17232,0.40891 -0.001,0.1757 -0.10197,0.36478 -0.24894,0.46663 -0.12433,0.0862 -0.30876,0.13617 -0.40812,0.11068 z m 0.23617,-0.24179 c 0.0338,-0.0141 0.082,-0.0453 0.10696,-0.0692 0.10729,-0.10277 0.0422,-0.27039 -0.39331,-1.01302 -0.41009,-0.69925 -0.52307,-0.95675 -0.60949,-1.38906 -0.0578,-0.28934 -0.0754,-0.4664 -0.088,-0.8847 l -0.0109,-0.36381 -0.031,0.0992 c -0.16038,0.5136 -0.21296,0.96038 -0.15328,1.30261 0.0448,0.25679 0.19178,0.69947 0.33278,1.00213 l 0.0722,0.15499 -0.19412,-0.008 c -0.10677,-0.005 -0.23877,-0.0208 -0.29334,-0.0359 -0.32443,-0.0896 -0.68229,-0.3171 -1.0727,-0.682 -0.10264,-0.0959 -0.13753,-0.14191 -0.18194,-0.23978 -0.0998,-0.2199 -0.19548,-0.55742 -0.26752,-0.94377 -0.0165,-0.0887 -0.0343,-0.16123 -0.0395,-0.16123 -0.0119,0 -0.0935,0.36461 -0.11833,0.52869 -0.0103,0.0679 -0.0153,0.21678 -0.0111,0.33073 0.006,0.16853 0.0154,0.22798 0.0494,0.31866 0.0639,0.17058 0.14079,0.28784 0.28574,0.43571 0.15481,0.15792 0.35089,0.29093 0.65708,0.44569 0.2709,0.13693 0.42199,0.22666 0.39615,0.23528 -0.0292,0.01 -0.22288,-0.0576 -0.39177,-0.13612 -0.40178,-0.18686 -0.78194,-0.49188 -1.02098,-0.81919 -0.10605,-0.14519 -0.15013,-0.19286 -0.28859,-0.31204 -0.25409,-0.21871 -0.54596,-0.61776 -0.73331,-1.0026 -0.24399,-0.50121 -0.34664,-0.93957 -0.34664,-1.4803 0,-0.53582 0.11079,-0.98584 0.38221,-1.55242 0.13265,-0.2769 0.24541,-0.45078 0.41919,-0.64636 0.0686,-0.0772 0.12464,-0.14599 0.12464,-0.15296 0,-0.0182 -0.27226,0.15373 -0.38182,0.24105 -0.0948,0.0755 -0.19746,0.20233 -0.29148,0.35991 l -0.0532,0.0892 -5.5e-4,-0.11763 c -7.5e-4,-0.15685 0.0189,-0.25232 0.10802,-0.52564 0.0437,-0.13396 0.0688,-0.23598 0.0603,-0.24454 -0.0196,-0.0196 -0.18771,0.10631 -0.29602,0.22174 -0.20823,0.22192 -0.33802,0.49656 -0.45069,0.95371 -0.0974,0.39515 -0.11827,0.55667 -0.12843,0.99393 -0.0139,0.5959 0.0168,0.84018 0.17556,1.3988 0.12524,0.44073 0.15012,0.50601 0.25285,0.66342 0.16139,0.24729 0.32964,0.43091 0.5761,0.62874 0.23759,0.19072 0.21503,0.20774 -0.0452,0.0341 -0.22713,-0.15157 -0.39575,-0.3204 -0.54984,-0.5505 -0.16571,-0.24746 -0.24692,-0.42375 -0.36568,-0.79375 -0.0555,-0.17281 -0.13798,-0.42209 -0.18337,-0.55397 -0.0454,-0.13188 -0.1119,-0.34271 -0.1478,-0.46852 -0.0359,-0.1258 -0.0774,-0.25214 -0.0922,-0.28075 l -0.0269,-0.052 -0.0152,0.041 c -0.008,0.0225 -0.0213,0.16749 -0.0288,0.3221 -0.0141,0.29011 0.007,0.55164 0.0741,0.90951 0.06,0.3212 0.0881,0.4006 0.21031,0.59321 0.20129,0.31736 0.26245,0.3881 0.5664,0.65508 0.28972,0.25448 0.60832,0.50955 0.83946,0.67208 0.40169,0.28245 1.6623,0.91786 2.04895,1.03276 0.0303,0.009 0.17415,0.0271 0.31967,0.0402 0.41709,0.0376 0.44348,0.0502 0.61698,0.29644 0.21535,0.30559 0.35986,0.45299 0.47945,0.48905 0.0657,0.0198 0.0809,0.0189 0.14847,-0.009 z m -5.32705,-3.66608 c -0.0143,-0.0798 -0.0403,-0.31541 -0.0528,-0.47807 l -0.011,-0.14321 -0.0684,-0.0496 c -0.10133,-0.0734 -0.32894,-0.30905 -0.42615,-0.44124 -0.10072,-0.13696 -0.23338,-0.40627 -0.26881,-0.5457 -0.067,-0.26373 -0.0718,-0.54603 -0.0164,-0.96738 0.029,-0.22061 0.0368,-0.40491 0.0179,-0.42384 -0.0224,-0.0225 -0.0666,0.0166 -0.13834,0.12249 -0.17602,0.25979 -0.26292,0.69331 -0.24936,1.24392 0.007,0.27633 0.0119,0.31953 0.0528,0.44649 0.14921,0.46299 0.49372,0.89 0.86778,1.07559 0.0537,0.0266 0.13726,0.0854 0.18579,0.1307 0.0485,0.0453 0.0946,0.0826 0.10247,0.0829 0.008,3.5e-4 0.01,-0.0236 0.005,-0.0531 z"
       id="path5305"
       inkscape:connector-curvature="0" />
  </g>
</svg>
