<?xml version="1.0" encoding="UTF-8" standalone="no"?>
<!-- Created with Inkscape (http://www.inkscape.org/) -->

<svg
   xmlns:dc="http://purl.org/dc/elements/1.1/"
   xmlns:cc="http://creativecommons.org/ns#"
   xmlns:rdf="http://www.w3.org/1999/02/22-rdf-syntax-ns#"
   xmlns:svg="http://www.w3.org/2000/svg"
   xmlns="http://www.w3.org/2000/svg"
   xmlns:sodipodi="http://sodipodi.sourceforge.net/DTD/sodipodi-0.dtd"
   xmlns:inkscape="http://www.inkscape.org/namespaces/inkscape"
   width="210mm"
   height="297mm"
   viewBox="0 0 210 297"
   version="1.1"
   id="svg5890"
   inkscape:version="0.92.3 (2405546, 2018-03-11)"
   sodipodi:docname="deerHorn2.svg">
  <defs
     id="defs5884" />
  <sodipodi:namedview
     id="base"
     pagecolor="#ffffff"
     bordercolor="#666666"
     borderopacity="1.0"
     inkscape:pageopacity="0.0"
     inkscape:pageshadow="2"
     inkscape:zoom="11.2"
     inkscape:cx="645.55628"
     inkscape:cy="625.44862"
     inkscape:document-units="mm"
     inkscape:current-layer="layer1"
     showgrid="false"
     inkscape:window-width="1920"
     inkscape:window-height="1017"
     inkscape:window-x="-8"
     inkscape:window-y="-8"
     inkscape:window-maximized="1" />
  <metadata
     id="metadata5887">
    <rdf:RDF>
      <cc:Work
         rdf:about="">
        <dc:format>image/svg+xml</dc:format>
        <dc:type
           rdf:resource="http://purl.org/dc/dcmitype/StillImage" />
        <dc:title></dc:title>
      </cc:Work>
    </rdf:RDF>
  </metadata>
  <g
     inkscape:label="deerHorn2"
     id="layer1">
    <path
       style="display:inline;fill:#000000;fill-opacity:1;stroke-width:0.125;stroke-miterlimit:4;stroke-dasharray:none"
       d="m 163.53626,133.59141 c -0.24844,-0.10498 -0.37223,-0.33952 -0.3064,-0.58055 0.01,-0.0364 0.12072,-0.22241 0.24618,-0.41341 0.12546,-0.191 0.25895,-0.40905 0.29666,-0.48457 0.12274,-0.24583 0.18407,-0.54109 0.22395,-1.07813 0.0425,-0.57207 0.0596,-0.71316 0.10315,-0.85162 0.0819,-0.26012 0.2157,-0.48783 0.28672,-0.48783 0.11157,0 0.16085,0.42902 0.11323,0.98565 -0.01,0.11729 -0.0184,0.36207 -0.0186,0.54397 -4.2e-4,0.45206 0.0445,0.65765 0.1645,0.75254 0.0718,0.0568 0.17256,0.0365 0.40974,-0.0824 0.56308,-0.28228 1.02756,-0.76808 1.33102,-1.39212 0.13523,-0.27809 0.18304,-0.32633 0.23893,-0.24103 0.0949,0.14487 0.12544,0.4091 0.0673,0.58264 -0.0182,0.0542 0.13542,-0.11905 0.25611,-0.28891 0.48077,-0.67661 0.68874,-1.39763 0.55509,-1.92449 -0.0506,-0.19959 -0.12911,-0.39382 -0.32839,-0.81278 -0.22678,-0.47677 -0.32585,-0.78291 -0.32585,-1.00695 0,-0.13518 0.0202,-0.1754 0.0881,-0.1754 0.0725,0 0.16505,0.0666 0.33064,0.23814 0.24135,0.24997 0.38666,0.51258 0.55214,0.99781 0.0516,0.15143 0.0854,0.22581 0.1079,0.23786 0.0586,0.0314 0.0708,-0.006 0.067,-0.2034 -0.009,-0.47733 -0.12298,-0.99112 -0.32631,-1.47403 -0.0751,-0.17835 -0.0937,-0.31091 -0.0503,-0.35887 0.0163,-0.018 0.046,-0.0328 0.0658,-0.0328 0.0768,0 0.24309,0.10393 0.39006,0.24378 0.22094,0.21026 0.29854,0.32286 0.39608,0.57478 0.15531,0.40108 0.16972,0.42995 0.21473,0.42995 0.0306,0 0.0501,-0.0177 0.0809,-0.0735 0.0617,-0.11182 0.0647,-0.32831 0.0112,-0.81117 -0.0237,-0.21374 -0.0472,-0.42768 -0.0524,-0.47543 -0.007,-0.0657 -0.004,-0.0868 0.0125,-0.0869 0.012,-4e-5 0.0964,0.0369 0.18749,0.0822 0.37992,0.18863 0.55371,0.45063 0.55371,0.83476 0,0.18889 -0.0335,0.34794 -0.11341,0.53806 -0.0587,0.13959 -0.0806,0.13334 0.26224,0.0747 0.13187,-0.0226 0.28256,-0.0411 0.33486,-0.0412 0.10502,-1.8e-4 0.11477,0.013 0.0715,0.0967 -0.0369,0.0714 -0.33388,0.34645 -0.50637,0.46904 -0.16074,0.11424 -0.20611,0.13984 -0.40344,0.22766 -0.13996,0.0623 -0.24605,0.14677 -0.30908,0.24617 -0.0482,0.076 -0.0613,0.1344 -0.0302,0.1344 0.009,0 0.082,-0.0435 0.16123,-0.0968 0.19305,-0.12966 0.23823,-0.15129 0.31593,-0.15129 0.0861,0 0.11752,0.0429 0.11752,0.16047 0,0.0756 -0.0167,0.11993 -0.12712,0.33853 -0.0699,0.13836 -0.16409,0.30035 -0.20928,0.35997 -0.18343,0.24202 -0.20717,0.33241 -0.17621,0.67086 0.0248,0.2715 0.009,0.50031 -0.0511,0.72882 -0.12766,0.4874 -0.42373,0.91732 -0.80158,1.16399 -0.1426,0.0931 -0.6296,0.335 -0.98294,0.48826 -0.62504,0.27112 -1.40512,0.55583 -2.22979,0.81382 -0.13181,0.0412 -0.30097,0.16121 -0.5318,0.37716 -0.24352,0.22781 -0.29923,0.25787 -0.49534,0.26718 -0.12252,0.006 -0.15422,0.001 -0.23834,-0.0343 z m 0.25379,-0.31889 c 0.0586,-0.0292 0.16799,-0.12074 0.32157,-0.26909 0.12801,-0.12366 0.25989,-0.24154 0.29307,-0.26197 0.0332,-0.0204 0.18945,-0.0744 0.34727,-0.11999 0.52281,-0.15095 1.1114,-0.36272 1.55897,-0.56092 0.28139,-0.1246 1.15725,-0.54493 1.32419,-0.63548 0.616,-0.33414 0.89263,-0.70751 0.96803,-1.30658 0.0443,-0.35194 -0.0474,-0.94192 -0.19806,-1.27482 -0.042,-0.0927 -0.15711,-0.23803 -0.17468,-0.22047 -0.004,0.004 0.0214,0.0795 0.0572,0.167 0.14441,0.35356 0.19203,0.61356 0.1779,0.97125 -0.0173,0.43778 -0.12536,0.70743 -0.39191,0.97788 -0.1718,0.17431 -0.34786,0.29802 -0.59599,0.41879 -0.19454,0.0947 -0.51976,0.2006 -0.661,0.21526 l -0.10749,0.0112 0.27286,-0.16249 c 0.24842,-0.14794 0.29071,-0.18026 0.47237,-0.36093 0.22383,-0.22262 0.30187,-0.32722 0.53666,-0.71933 0.17666,-0.29504 0.26179,-0.50722 0.29856,-0.74414 0.0281,-0.1808 0.0102,-0.30485 -0.0853,-0.59121 -0.0466,-0.13983 -0.0817,-0.25721 -0.0781,-0.26085 0.0131,-0.0131 0.17671,0.0387 0.21714,0.0688 0.0634,0.0472 0.27258,0.38374 0.31114,0.50052 0.0325,0.0982 0.41913,-0.4223 0.42875,-0.57718 0.005,-0.0838 1.2e-4,-0.0986 -0.03,-0.0876 -0.0159,0.006 -0.0959,0.0529 -0.17777,0.10461 -0.15904,0.10046 -0.28898,0.17078 -0.29831,0.16146 -0.0129,-0.0129 0.12719,-0.49874 0.16569,-0.57473 0.0501,-0.0988 0.12445,-0.18627 0.19579,-0.23019 0.0289,-0.0178 0.13515,-0.059 0.23606,-0.0916 0.1043,-0.0337 0.2256,-0.0865 0.28112,-0.12243 0.098,-0.0634 0.20513,-0.17011 0.20513,-0.20422 0,-0.0254 -0.12905,-0.008 -0.39629,0.0523 -0.12051,0.0274 -0.22203,0.0497 -0.2256,0.0497 -0.019,0 -1.1e-4,-0.091 0.0529,-0.25474 0.0898,-0.27737 0.12172,-0.44261 0.12213,-0.63235 5.3e-4,-0.20333 -0.0364,-0.33842 -0.12797,-0.46967 -0.0586,-0.084 -0.2404,-0.23132 -0.26056,-0.21117 -0.005,0.005 -7.9e-4,0.0301 0.009,0.0559 0.0391,0.10286 0.0679,0.39922 0.0772,0.79295 0.008,0.3562 0.006,0.42686 -0.0178,0.50818 -0.0324,0.11133 -0.0846,0.20528 -0.12674,0.22782 -0.11362,0.0608 -0.20287,-0.0403 -0.44569,-0.50478 -0.21435,-0.41004 -0.28566,-0.52436 -0.3806,-0.61013 -0.0713,-0.0644 -0.12817,-0.0808 -0.10653,-0.0307 0.0911,0.21098 0.1706,0.51075 0.22456,0.84724 0.042,0.26198 0.0599,0.77482 0.0326,0.9356 -0.0212,0.12502 -0.0873,0.27966 -0.12588,0.29445 -0.0613,0.0235 -0.15475,-0.1547 -0.28062,-0.53527 -0.0436,-0.13187 -0.11089,-0.30303 -0.1495,-0.38033 -0.0898,-0.1797 -0.3176,-0.52477 -0.41592,-0.62988 -0.12658,-0.13533 -0.15841,-0.10472 -0.10613,0.10205 0.0223,0.0882 0.073,0.20825 0.14539,0.34406 0.0611,0.11471 0.15086,0.28298 0.19943,0.37393 0.2773,0.51921 0.32596,0.65665 0.3533,0.998 0.0447,0.55779 -0.0964,1.12043 -0.40634,1.62064 -0.15058,0.24301 -0.27978,0.40432 -0.53819,0.67193 -0.13188,0.13658 -0.33032,0.3496 -0.44099,0.47339 -0.33193,0.37128 -0.5684,0.56204 -0.89019,0.71811 -0.19337,0.0938 -0.46474,0.19472 -0.49465,0.184 -0.0219,-0.008 0.0725,-0.0524 0.31275,-0.14748 0.53582,-0.21206 0.92913,-0.57822 1.1961,-1.11354 0.14357,-0.28788 0.21606,-0.58835 0.16488,-0.68349 -0.0247,-0.0459 -0.0629,-0.0647 -0.0629,-0.0309 0,0.0125 -0.0439,0.11174 -0.0975,0.22049 -0.20971,0.42523 -0.55755,0.87834 -0.85836,1.11813 -0.13686,0.1091 -0.44234,0.26623 -0.58963,0.3033 -0.12711,0.032 -0.31057,0.0317 -0.41971,-7.4e-4 -0.0975,-0.029 -0.11034,-0.0253 -0.12567,0.0358 -0.0291,0.11588 -0.25064,0.39151 -0.39171,0.4873 -0.0534,0.0363 -0.0971,0.0612 -0.0971,0.0554 0,-0.006 0.0493,-0.0638 0.1095,-0.12878 0.13534,-0.14612 0.20016,-0.23911 0.24266,-0.34817 0.0373,-0.0956 0.0388,-0.15882 0.0202,-0.82838 -0.008,-0.30568 -0.005,-0.52053 0.0148,-0.82449 0.0145,-0.2261 0.0263,-0.46661 0.0263,-0.53446 0,-0.11698 -0.002,-0.12309 -0.0357,-0.11808 -0.10842,0.0161 -0.17622,0.3742 -0.27858,1.47154 -0.0343,0.36798 -0.0601,0.56843 -0.0808,0.62875 -0.0386,0.11217 -0.0851,0.20493 -0.26969,0.53741 -0.15539,0.27997 -0.24411,0.49945 -0.24448,0.60484 -1.9e-4,0.0526 0.008,0.0673 0.0535,0.095 0.0734,0.0448 0.15458,0.0412 0.2601,-0.0114 z m 3.97312,-2.43208 c 0.17627,-0.14287 0.36297,-0.35034 0.42993,-0.47777 0.0993,-0.18897 0.16571,-0.46671 0.20303,-0.84917 0.0134,-0.13774 -0.002,-0.12146 -0.0414,0.0441 -0.086,0.36009 -0.26629,0.69759 -0.63225,1.18362 -0.0805,0.10688 -0.15131,0.20732 -0.15741,0.2232 -0.0102,0.0265 -0.007,0.0263 0.0377,-0.002 0.0268,-0.0172 0.099,-0.0719 0.16033,-0.12164 z"
       id="path5307"
       inkscape:connector-curvature="0" />
    <path
       style="display:inline;fill:#e7c5b5;fill-opacity:1;stroke-width:0.67491567;stroke-miterlimit:4;stroke-dasharray:none"
       d="m 618.19021,503.75008 c -0.0982,-0.0557 -0.20864,-0.14487 -0.24538,-0.19817 -0.1629,-0.23633 0.20974,-1.19155 1.0997,-2.81899 0.33619,-0.61478 0.67338,-1.29385 0.74931,-1.50906 0.0759,-0.21522 0.259,-1.56107 0.40681,-2.9908 0.26947,-2.60645 0.45436,-3.91579 0.64142,-4.54252 0.10184,-0.34122 0.29948,-0.58182 0.39744,-0.48386 0.0297,0.0297 0.005,0.90323 -0.0543,1.94127 -0.0595,1.03805 -0.0948,2.91794 -0.0784,4.17755 0.0345,2.64559 0.0384,2.62889 -0.86108,3.6575 -0.27113,0.31005 -0.49297,0.60328 -0.49297,0.65162 0,0.0483 0.18021,-0.0361 0.40047,-0.18765 0.4605,-0.31684 1.25271,-1.25602 1.39902,-1.65858 l 0.0995,-0.27375 1.04494,0.006 1.04494,0.006 0.96396,-0.47822 c 0.78919,-0.39152 1.10111,-0.60989 1.72038,-1.20442 1.15787,-1.1116 2.35155,-2.80532 2.90939,-4.12816 0.18111,-0.42948 0.22368,-0.47575 0.32515,-0.35349 0.22314,0.26888 -0.0698,1.52934 -0.60258,2.59287 -0.91694,1.83033 -2.28607,3.15695 -4.11598,3.98819 -1.4721,0.6687 -1.67519,0.77738 -1.46354,0.78316 0.44373,0.0121 2.07065,-0.72366 3.01183,-1.36211 0.98843,-0.67052 4.58916,-4.46189 5.50111,-5.79239 1.37988,-2.01317 2.05955,-4.29083 1.92657,-6.45614 -0.0302,-0.49107 -0.11452,-1.13393 -0.18747,-1.42857 -0.073,-0.29464 -0.63634,-1.54018 -1.25196,-2.76786 -1.05486,-2.10361 -1.41469,-2.99258 -1.26991,-3.13736 0.10169,-0.10169 0.47782,0.30814 1.03164,1.12405 0.77134,1.1364 1.02322,1.62891 1.47591,2.88591 0.47941,1.33119 0.79379,1.98542 0.9903,2.06083 0.18227,0.0699 0.44602,-0.35745 0.58939,-0.9551 0.13796,-0.57507 0.0557,-3.02252 -0.13731,-4.08613 -0.12846,-0.70784 -0.55771,-2.32322 -0.71516,-2.69131 -0.12139,-0.28378 0.10817,-0.16486 0.45808,0.23731 0.18832,0.21645 0.66041,0.98989 1.04907,1.71875 1.10839,2.07856 1.43854,2.48128 1.87214,2.28372 0.25124,-0.11447 0.50998,-0.63397 0.60215,-1.20896 0.0814,-0.50752 -0.0525,-3.55717 -0.1866,-4.25062 -0.0514,-0.26576 -0.0774,-0.49921 -0.0579,-0.51878 0.0196,-0.0196 0.25785,0.18145 0.52953,0.44669 0.39583,0.38646 0.52408,0.58589 0.64564,1.00405 0.22216,0.76421 0.13857,1.96589 -0.21858,3.14216 -0.30281,0.99733 -0.33787,1.27514 -0.16088,1.27514 0.0639,0 0.4757,-0.0795 0.91518,-0.17664 0.43947,-0.0971 0.91654,-0.1775 1.06014,-0.17857 l 0.2611,-0.002 -0.21645,0.23194 c -0.37042,0.39692 -0.69123,0.58226 -1.62182,0.93694 -1.29299,0.49281 -1.5615,0.79754 -1.97366,2.23984 -0.30165,1.05557 -0.33902,1.23414 -0.25828,1.23414 0.0393,0 0.46486,-0.22476 0.94569,-0.49946 0.48083,-0.27471 0.89523,-0.47847 0.92088,-0.45282 0.10992,0.10992 -0.10348,0.63895 -0.50084,1.24157 -0.40626,0.61611 -0.94553,1.21495 -1.02009,1.13277 -0.019,-0.021 -0.12555,-0.21894 -0.23672,-0.43992 -0.57701,-1.14706 -1.19933,-1.76486 -1.69141,-1.67912 -0.14276,0.0249 -0.12909,0.11981 0.15171,1.05412 0.50193,1.67005 0.42152,2.52643 -0.38903,4.14282 -1.12086,2.23521 -2.58711,3.91423 -4.29625,4.91968 -0.50086,0.29464 -0.91192,0.56632 -0.91347,0.60373 -0.009,0.22089 2.23998,-0.45575 3.20168,-0.9632 1.22173,-0.64468 2.22846,-1.5656 2.82589,-2.58503 0.59823,-1.02082 0.79028,-3.24547 0.41396,-4.79539 -0.10357,-0.42658 -0.29005,-1.02598 -0.41439,-1.33199 -0.12435,-0.30602 -0.20907,-0.57341 -0.18828,-0.5942 0.0827,-0.0827 0.52126,0.71034 0.7237,1.3087 0.5276,1.55944 0.69391,3.80446 0.37108,5.00917 -0.53252,1.98721 -1.68351,3.18173 -4.34717,4.51153 -3.66483,1.82962 -5.93624,2.77393 -9.2259,3.83555 l -2.12768,0.68663 -1.02798,0.93767 c -0.90012,0.82105 -1.56482,1.27643 -1.85951,1.27394 -0.0491,-4.5e-4 -0.16964,-0.0463 -0.26785,-0.10202 z"
       id="path6445"
       inkscape:connector-curvature="0"
       transform="scale(0.26458333)" />
  </g>
</svg>
