<?xml version="1.0" encoding="UTF-8" standalone="no"?>
<!-- Created with Inkscape (http://www.inkscape.org/) -->

<svg
   xmlns:dc="http://purl.org/dc/elements/1.1/"
   xmlns:cc="http://creativecommons.org/ns#"
   xmlns:rdf="http://www.w3.org/1999/02/22-rdf-syntax-ns#"
   xmlns:svg="http://www.w3.org/2000/svg"
   xmlns="http://www.w3.org/2000/svg"
   xmlns:sodipodi="http://sodipodi.sourceforge.net/DTD/sodipodi-0.dtd"
   xmlns:inkscape="http://www.inkscape.org/namespaces/inkscape"
   id="svg2"
   viewBox="0 0 269.8 257.64"
   version="1.0"
   inkscape:version="0.92.3 (2405546, 2018-03-11)"
   sodipodi:docname="elephantParts3.svg">
  <defs
     id="defs41" />
  <sodipodi:namedview
     pagecolor="#ffffff"
     bordercolor="#666666"
     borderopacity="1"
     objecttolerance="10"
     gridtolerance="10"
     guidetolerance="10"
     inkscape:pageopacity="0"
     inkscape:pageshadow="2"
     inkscape:window-width="1920"
     inkscape:window-height="1017"
     id="namedview39"
     showgrid="false"
     inkscape:zoom="1.2954292"
     inkscape:cx="15.966668"
     inkscape:cy="199.6397"
     inkscape:window-x="-8"
     inkscape:window-y="-8"
     inkscape:window-maximized="1"
     inkscape:current-layer="svg2" />
  <path
     id="path2404"
     style="fill:#939dac;stroke:#000000;stroke-width:4;stroke-linecap:round;stroke-linejoin:round"
     d="m 154.73467,172.2203 c 0,15.78 -12.8,28.58 -28.58,28.58 -15.79,0 -28.590015,-12.8 -28.580015,-28.58 -0.01,-15.79 12.790015,-28.59 28.580015,-28.59 15.78,0 28.58,12.8 28.58,28.59 z"
     inkscape:connector-curvature="0" />
  <path
     id="path3188"
     style="fill:#939dac;fill-rule:evenodd"
     d="m 154.66467,170.7103 h -45.68 c 7.66,-63.28 -7.36001,-94.750002 -7.36001,-94.750002 h 60.40001 c 0,0 -15.02,32.170002 -7.36,94.750002 z"
     inkscape:connector-curvature="0" />
  <path
     id="path3183"
     style="fill:none;stroke:#000000;stroke-width:4;stroke-linecap:round"
     d="m 162.02467,75.960298 c 0,0 -15.02,32.170002 -7.36,94.750002 m -45.68,0 c 7.66,-63.28 -7.36001,-94.750002 -7.36001,-94.750002"
     inkscape:connector-curvature="0" />
  <path
     id="path3192"
     style="fill:none;stroke:#000000;stroke-width:4;stroke-linecap:round"
     d="m 115.96467,64.750298 c 14.5,-14.499 31,-0.5 31,-0.5"
     inkscape:connector-curvature="0" />
  <path
     id="path3194"
     style="fill:none;stroke:#000000;stroke-width:4;stroke-linecap:round"
     d="m 120.93467,87.250298 c 9.85,-7.89 21.07,-0.27 21.07,-0.27"
     inkscape:connector-curvature="0" />
  <path
     id="path3196"
     style="fill:none;stroke:#000000;stroke-width:4;stroke-linecap:round"
     d="m 122.58467,109.7503 c 8.31,-5.68 17.76,-0.2 17.76,-0.2"
     inkscape:connector-curvature="0" />
  <path
     id="path3287"
     style="fill:#000000;fill-opacity:0.31373004"
     d="m 152.59467,161.3403 c -0.41,15.42 -13.04,27.81 -28.57,27.81 -11.94,0 -22.16001,-7.35 -26.430015,-17.75 -0.01,0.27 -0.03,0.54 -0.03,0.81 -0.01,15.79 12.800015,28.6 28.590015,28.6 15.79,0 28.57,-12.81 28.56,-28.6 0,-3.85 -0.74,-7.52 -2.12,-10.87 z"
     inkscape:connector-curvature="0" />
  <metadata
     id="metadata36">
    <rdf:RDF>
      <cc:Work>
        <dc:format>image/svg+xml</dc:format>
        <dc:type
           rdf:resource="http://purl.org/dc/dcmitype/StillImage" />
        <cc:license
           rdf:resource="http://creativecommons.org/licenses/publicdomain/" />
        <dc:publisher>
          <cc:Agent
             rdf:about="http://openclipart.org/">
            <dc:title>Openclipart</dc:title>
          </cc:Agent>
        </dc:publisher>
        <dc:title>Cartoon elephant</dc:title>
        <dc:date>2006-12-26T00:00:00</dc:date>
        <dc:description />
        <dc:source>https://openclipart.org/detail/17810/-by--17810</dc:source>
        <dc:creator>
          <cc:Agent>
            <dc:title>lemmling</dc:title>
          </cc:Agent>
        </dc:creator>
      </cc:Work>
      <cc:License
         rdf:about="http://creativecommons.org/licenses/publicdomain/">
        <cc:permits
           rdf:resource="http://creativecommons.org/ns#Reproduction" />
        <cc:permits
           rdf:resource="http://creativecommons.org/ns#Distribution" />
        <cc:permits
           rdf:resource="http://creativecommons.org/ns#DerivativeWorks" />
      </cc:License>
    </rdf:RDF>
  </metadata>
</svg>
