<?xml version="1.0" encoding="UTF-8" standalone="no"?>
<!-- Created with Inkscape (http://www.inkscape.org/) -->

<svg
   xmlns:dc="http://purl.org/dc/elements/1.1/"
   xmlns:cc="http://creativecommons.org/ns#"
   xmlns:rdf="http://www.w3.org/1999/02/22-rdf-syntax-ns#"
   xmlns:svg="http://www.w3.org/2000/svg"
   xmlns="http://www.w3.org/2000/svg"
   xmlns:sodipodi="http://sodipodi.sourceforge.net/DTD/sodipodi-0.dtd"
   xmlns:inkscape="http://www.inkscape.org/namespaces/inkscape"
   id="svg2"
   viewBox="0 0 269.8 257.64"
   version="1.0"
   inkscape:version="0.92.3 (2405546, 2018-03-11)"
   sodipodi:docname="elephantParts2.svg">
  <defs
     id="defs41" />
  <sodipodi:namedview
     pagecolor="#ffffff"
     bordercolor="#666666"
     borderopacity="1"
     objecttolerance="10"
     gridtolerance="10"
     guidetolerance="10"
     inkscape:pageopacity="0"
     inkscape:pageshadow="2"
     inkscape:window-width="1920"
     inkscape:window-height="1017"
     id="namedview39"
     showgrid="false"
     inkscape:zoom="1.2954292"
     inkscape:cx="15.966668"
     inkscape:cy="199.6397"
     inkscape:window-x="-8"
     inkscape:window-y="-8"
     inkscape:window-maximized="1"
     inkscape:current-layer="svg2" />
  <path
     id="path3220"
     style="fill:#939dac;stroke:#000000;stroke-width:4;stroke-linecap:round;stroke-linejoin:round"
     d="m 174.11358,137.05063 c 0,22.68 -18.38,25.57 -41.06,25.57 -22.68,0 -41.059996,-2.89 -41.059996,-25.57 0,-22.68 19.149996,-35.2 41.059996,-41.069996 34.08,-9.13 41.06,18.389996 41.06,41.069996 z"
     inkscape:connector-curvature="0" />
  <path
     id="path3235"
     style="fill:#ffffff;stroke:#000000;stroke-width:4;stroke-linecap:round;stroke-linejoin:round"
     d="m 166.01358,149.84063 c 1.64,6.13 -3.25,8.27 -9.55,9.96 -6.29,1.69 -11.61,2.27 -13.25,-3.85 -1.64,-6.13 2.13,-12.47 8.43,-14.15 6.29,-1.69 12.73,1.91 14.37,8.04 z"
     inkscape:connector-curvature="0" />
  <path
     id="path3237"
     style="fill:#ffffff;stroke:#000000;stroke-width:4;stroke-linecap:round;stroke-linejoin:round"
     d="m 124.57358,156.48063 c -1.64,6.13 -6.96,5.54 -13.25,3.85 -6.3,-1.69 -11.19,-3.83 -9.55,-9.96 1.64,-6.13 8.08,-9.73 14.37,-8.04 6.3,1.69 10.07,8.02 8.43,14.15 z"
     inkscape:connector-curvature="0" />
  <path
     id="path3224"
     style="fill:#ffffff;stroke:#000000;stroke-width:4;stroke-linecap:round;stroke-linejoin:round"
     d="m 144.85358,155.47063 c 0,6.34 -5.28,7.15 -11.8,7.15 -6.52,0 -11.8,-0.81 -11.8,-7.15 0,-6.35 5.28,-11.49 11.8,-11.49 6.52,0 11.8,5.14 11.8,11.49 z"
     inkscape:connector-curvature="0" />
  <path
     id="path3358"
     style="fill:#000000;fill-opacity:0.31373004"
     d="m 151.57358,94.790634 c 10.56,8.159996 13.35,24.669996 13.34,39.249996 0.01,23.47 -19,26.47 -42.47,26.47 -5.09,0 -9.94,-0.16 -14.46,-0.62 6.93,2.22 15.62,2.71 25.06,2.71 22.68,0 41.07,-2.88 41.06,-25.56 0.01,-17.77 -4.28,-38.489996 -22.53,-42.249996 z"
     inkscape:connector-curvature="0" />
  <metadata
     id="metadata36">
    <rdf:RDF>
      <cc:Work>
        <dc:format>image/svg+xml</dc:format>
        <dc:type
           rdf:resource="http://purl.org/dc/dcmitype/StillImage" />
        <cc:license
           rdf:resource="http://creativecommons.org/licenses/publicdomain/" />
        <dc:publisher>
          <cc:Agent
             rdf:about="http://openclipart.org/">
            <dc:title>Openclipart</dc:title>
          </cc:Agent>
        </dc:publisher>
        <dc:title>Cartoon elephant</dc:title>
        <dc:date>2006-12-26T00:00:00</dc:date>
        <dc:description />
        <dc:source>https://openclipart.org/detail/17810/-by--17810</dc:source>
        <dc:creator>
          <cc:Agent>
            <dc:title>lemmling</dc:title>
          </cc:Agent>
        </dc:creator>
      </cc:Work>
      <cc:License
         rdf:about="http://creativecommons.org/licenses/publicdomain/">
        <cc:permits
           rdf:resource="http://creativecommons.org/ns#Reproduction" />
        <cc:permits
           rdf:resource="http://creativecommons.org/ns#Distribution" />
        <cc:permits
           rdf:resource="http://creativecommons.org/ns#DerivativeWorks" />
      </cc:License>
    </rdf:RDF>
  </metadata>
</svg>
