<?xml version="1.0" encoding="UTF-8" standalone="no"?>
<!-- Created with Inkscape (http://www.inkscape.org/) -->

<svg
   xmlns:dc="http://purl.org/dc/elements/1.1/"
   xmlns:cc="http://creativecommons.org/ns#"
   xmlns:rdf="http://www.w3.org/1999/02/22-rdf-syntax-ns#"
   xmlns:svg="http://www.w3.org/2000/svg"
   xmlns="http://www.w3.org/2000/svg"
   xmlns:sodipodi="http://sodipodi.sourceforge.net/DTD/sodipodi-0.dtd"
   xmlns:inkscape="http://www.inkscape.org/namespaces/inkscape"
   id="Layer_1"
   xml:space="preserve"
   version="1.0"
   viewBox="0 0 371.329 304.117"
   inkscape:version="0.92.3 (2405546, 2018-03-11)"
   sodipodi:docname="monkeyFoot.svg"><defs
   id="defs51" /><sodipodi:namedview
   pagecolor="#ffffff"
   bordercolor="#666666"
   borderopacity="1"
   objecttolerance="10"
   gridtolerance="10"
   guidetolerance="10"
   inkscape:pageopacity="0"
   inkscape:pageshadow="2"
   inkscape:window-width="1920"
   inkscape:window-height="1017"
   id="namedview49"
   showgrid="false"
   inkscape:zoom="1.545799"
   inkscape:cx="52.41037"
   inkscape:cy="91.87937"
   inkscape:window-x="-8"
   inkscape:window-y="-8"
   inkscape:window-maximized="1"
   inkscape:current-layer="Layer_1" />
<path
   id="path307"
   style="fill:#a05b2c;stroke:#010101;stroke-width:4;stroke-linecap:round;stroke-linejoin:round"
   d="m 10.809244,267.59011 c 2.805,-13.632 16.412,-20.055 30.869,-20.055 16.532999,0 29.950999,13.418 29.950999,29.95 0,16.532 -13.418,15.94 -29.950999,15.94 -5.504,0 -21.311,0.283 -25.217,0.283 -8.2400002,0 -14.9280002,0.295 -14.9280002,-7.945 0,-6.809 3.039,-16.384 9.2760002,-18.173 z"
   inkscape:connector-curvature="0" /><path
   id="path3349_4_"
   style="fill:#010101;fill-opacity:0.3137"
   d="m 65.139243,258.34011 c 2.541,4.4 7.004,13.519 7.004,18.964 0,13.432 -8.865,15.548 -21.054999,15.874 12.108999,-5.048 12.050999,-25.588 14.050999,-34.838 z"
   inkscape:connector-curvature="0" /><path
   id="path2510_4_"
   style="fill:none;stroke:#010101;stroke-width:4;stroke-linecap:round"
   d="m 52.389244,291.78011 c 2.687999,-8.696 -0.385,-18.84 -0.385,-18.84"
   inkscape:connector-curvature="0" /><path
   id="path2512_4_"
   style="fill:none;stroke:#010101;stroke-width:4;stroke-linecap:round"
   d="m 39.919244,292.71011 c -3.295,-14.01 0.471,-25.119 0.471,-25.119"
   inkscape:connector-curvature="0" /><path
   id="path2514_8_"
   style="fill:none;stroke:#010101;stroke-width:4;stroke-linecap:round"
   d="m 27.849244,292.26011 c -6.764,-10.628 -0.967,-19.322 -0.967,-19.322"
   inkscape:connector-curvature="0" /><path
   id="path2514_7_"
   style="fill:none;stroke:#010101;stroke-width:4;stroke-linecap:round"
   d="m 14.569244,292.26011 c -6.7640002,-9.33 -0.967,-16.961 -0.967,-16.961"
   inkscape:connector-curvature="0" /><path
   id="path3327_4_"
   style="fill:#010101;fill-opacity:0.3137"
   d="m 11.309244,269.31011 c -2.4900002,2.929 -3.9710002,6.541 -3.9710002,10.44 0,5.636 3.0780002,10.65 7.8590002,13.901 -7.9530002,-0.259 -13.6580002,-1.671 -13.6580002,-9.324 0,-6.343 3.904,-11.907 9.7700002,-15.017 z"
   inkscape:connector-curvature="0" />
<metadata
   id="metadata46"><rdf:RDF><cc:Work><dc:format>image/svg+xml</dc:format><dc:type
         rdf:resource="http://purl.org/dc/dcmitype/StillImage" /><cc:license
         rdf:resource="http://creativecommons.org/licenses/publicdomain/" /><dc:publisher><cc:Agent
           rdf:about="http://openclipart.org/"><dc:title>Openclipart</dc:title></cc:Agent></dc:publisher><dc:title>Angry Cartoon monkey</dc:title><dc:date>2012-06-14T05:00:08</dc:date><dc:description>Remix for 404 page</dc:description><dc:source>https://openclipart.org/detail/170663/angry-cartoon-monkey-by-kuba-170663</dc:source><dc:creator><cc:Agent><dc:title>kuba</dc:title></cc:Agent></dc:creator><dc:subject><rdf:Bag><rdf:li>angry</rdf:li><rdf:li>brown</rdf:li><rdf:li>monkey</rdf:li><rdf:li>sad</rdf:li></rdf:Bag></dc:subject></cc:Work><cc:License
       rdf:about="http://creativecommons.org/licenses/publicdomain/"><cc:permits
         rdf:resource="http://creativecommons.org/ns#Reproduction" /><cc:permits
         rdf:resource="http://creativecommons.org/ns#Distribution" /><cc:permits
         rdf:resource="http://creativecommons.org/ns#DerivativeWorks" /></cc:License></rdf:RDF></metadata></svg>