<?xml version="1.0" encoding="UTF-8" standalone="no"?>
<!-- Created with Inkscape (http://www.inkscape.org/) -->

<svg
   xmlns:dc="http://purl.org/dc/elements/1.1/"
   xmlns:cc="http://creativecommons.org/ns#"
   xmlns:rdf="http://www.w3.org/1999/02/22-rdf-syntax-ns#"
   xmlns:svg="http://www.w3.org/2000/svg"
   xmlns="http://www.w3.org/2000/svg"
   xmlns:sodipodi="http://sodipodi.sourceforge.net/DTD/sodipodi-0.dtd"
   xmlns:inkscape="http://www.inkscape.org/namespaces/inkscape"
   id="svg2"
   sodipodi:docname="turkeyTail.svg"
   viewBox="0 0 250 300"
   sodipodi:version="0.32"
   version="1.0"
   inkscape:output_extension="org.inkscape.output.svg.inkscape"
   inkscape:version="0.92.3 (2405546, 2018-03-11)">
  <defs
     id="defs26" />
  <sodipodi:namedview
     id="base"
     bordercolor="#666666"
     inkscape:pageshadow="2"
     guidetolerance="10.0"
     pagecolor="#ffffff"
     gridtolerance="10.0"
     inkscape:zoom="1.5336405"
     objecttolerance="10.0"
     borderopacity="1.0"
     inkscape:current-layer="svg2"
     inkscape:cx="44.546862"
     inkscape:cy="146.19769"
     inkscape:window-y="-8"
     inkscape:window-x="-8"
     inkscape:window-height="1017"
     showgrid="false"
     inkscape:pageopacity="0.0"
     inkscape:window-width="1920"
     inkscape:window-maximized="1" />
  <path
     id="path4116"
     style="fill:#ffffff;stroke:#000000;stroke-width:3.63322639;stroke-linecap:round;stroke-linejoin:round"
     d="m 208.30796,91.65778 c 2.94217,-9.280238 1.50998,-14.765233 -0.40013,-16.077592 -4.26169,-3.665396 -9.63309,-3.48848 -14.64318,-4.508128 -3.01081,0.121282 -6.4673,-0.704126 -10.76801,8.09688 -3.54711,8.50466 -5.92519,19.081947 -7.9086,28.4397 -3.90737,19.08103 -3.83719,36.38768 1.26873,38.73309 6.38493,3.48233 17.70287,-14.16601 26.18868,-36.3024 2.25638,-5.8236 4.37257,-12.02925 6.26251,-18.38155 z"
     inkscape:connector-curvature="0" />
  <path
     id="path4118"
     style="fill:#ffffff;stroke:#000000;stroke-width:3.63322639;stroke-linecap:round;stroke-linejoin:round"
     d="m 224.61507,104.51065 c 5.15877,-8.150654 5.14666,-13.834987 3.62421,-15.626418 -3.19986,-4.702382 -8.42932,-6.001954 -13.00983,-8.353473 -2.94173,-0.709049 -6.06312,-2.442957 -12.415,4.873224 -5.54529,7.240449 -10.47698,16.802217 -14.71946,25.294497 -8.53138,17.35961 -12.77942,34.08124 -8.43409,37.74085 5.29626,5.10326 20.62076,-8.83768 34.32915,-27.89382 3.62988,-5.00603 7.22256,-10.41599 10.62502,-16.03486 z"
     inkscape:connector-curvature="0" />
  <path
     id="path4120"
     style="fill:#ffffff;stroke:#000000;stroke-width:3.63322639;stroke-linecap:round;stroke-linejoin:round"
     d="m 238.84912,118.55238 c 6.66426,-6.85014 7.78531,-12.41148 6.65299,-14.49549 -2.1936,-5.296565 -7.04972,-7.709427 -11.06177,-11.008462 -2.73206,-1.331472 -5.44712,-3.715426 -13.11387,2.057603 -6.86192,5.873739 -13.58826,14.149099 -19.4334,21.526129 -11.78965,15.11653 -19.27691,30.55063 -15.75363,35.0757 4.15993,6.14762 21.92493,-4.15462 39.12509,-19.79309 4.54404,-4.10577 9.1314,-8.61589 13.58459,-13.36239 z"
     inkscape:connector-curvature="0" />
  <metadata
     id="metadata23">
    <rdf:RDF>
      <cc:Work>
        <dc:format>image/svg+xml</dc:format>
        <dc:type
           rdf:resource="http://purl.org/dc/dcmitype/StillImage" />
        <cc:license
           rdf:resource="http://creativecommons.org/licenses/publicdomain/" />
        <dc:publisher>
          <cc:Agent
             rdf:about="http://openclipart.org/">
            <dc:title>Openclipart</dc:title>
          </cc:Agent>
        </dc:publisher>
        <dc:title>Turkey-RoundCartoon</dc:title>
        <dc:date>2009-05-14T16:34:30</dc:date>
        <dc:description>lemmling's cow base; pitr's chicken beak and feet</dc:description>
        <dc:source>https://openclipart.org/detail/26015/turkey-roundcartoon-by-bloodsong</dc:source>
        <dc:creator>
          <cc:Agent>
            <dc:title>bloodsong</dc:title>
          </cc:Agent>
        </dc:creator>
        <dc:subject>
          <rdf:Bag>
            <rdf:li>animal</rdf:li>
            <rdf:li>bird</rdf:li>
            <rdf:li>cartoon</rdf:li>
            <rdf:li>colour</rdf:li>
            <rdf:li>fowl</rdf:li>
            <rdf:li>outline</rdf:li>
            <rdf:li>remix</rdf:li>
            <rdf:li>turkey</rdf:li>
          </rdf:Bag>
        </dc:subject>
      </cc:Work>
      <cc:License
         rdf:about="http://creativecommons.org/licenses/publicdomain/">
        <cc:permits
           rdf:resource="http://creativecommons.org/ns#Reproduction" />
        <cc:permits
           rdf:resource="http://creativecommons.org/ns#Distribution" />
        <cc:permits
           rdf:resource="http://creativecommons.org/ns#DerivativeWorks" />
      </cc:License>
    </rdf:RDF>
  </metadata>
</svg>
