<?xml version="1.0" encoding="UTF-8" standalone="no"?>
<!-- Created with Inkscape (http://www.inkscape.org/) -->

<svg
   xmlns:dc="http://purl.org/dc/elements/1.1/"
   xmlns:cc="http://creativecommons.org/ns#"
   xmlns:rdf="http://www.w3.org/1999/02/22-rdf-syntax-ns#"
   xmlns:svg="http://www.w3.org/2000/svg"
   xmlns="http://www.w3.org/2000/svg"
   xmlns:sodipodi="http://sodipodi.sourceforge.net/DTD/sodipodi-0.dtd"
   xmlns:inkscape="http://www.inkscape.org/namespaces/inkscape"
   width="210mm"
   height="297mm"
   viewBox="0 0 210 297"
   version="1.1"
   id="svg886"
   sodipodi:docname="woodenStick.svg"
   inkscape:version="0.92.3 (2405546, 2018-03-11)">
  <defs
     id="defs880" />
  <sodipodi:namedview
     id="base"
     pagecolor="#ffffff"
     bordercolor="#666666"
     borderopacity="1.0"
     inkscape:pageopacity="0.0"
     inkscape:pageshadow="2"
     inkscape:zoom="1.4"
     inkscape:cx="271.04295"
     inkscape:cy="860.10077"
     inkscape:document-units="mm"
     inkscape:current-layer="layer1"
     showgrid="false"
     inkscape:window-width="1920"
     inkscape:window-height="1017"
     inkscape:window-x="-8"
     inkscape:window-y="-8"
     inkscape:window-maximized="1" />
  <metadata
     id="metadata883">
    <rdf:RDF>
      <cc:Work
         rdf:about="">
        <dc:format>image/svg+xml</dc:format>
        <dc:type
           rdf:resource="http://purl.org/dc/dcmitype/StillImage" />
      </cc:Work>
    </rdf:RDF>
  </metadata>
  <g
     inkscape:label="Layer 1"
     inkscape:groupmode="layer"
     id="layer1">
    <path
       id="path3072"
       style="fill:#000000;fill-opacity:1;stroke-width:0.15590993"
       inkscape:connector-curvature="0"
       d="m 165.11232,44.894142 c -0.44864,-0.266521 -2.14018,-0.260191 -3.76032,0.01547 -5.38482,0.913191 -16.0273,1.533682 -21.31054,1.243648 -2.86733,-0.156664 -5.4163,-0.213438 -5.66245,-0.123915 -0.55239,0.200892 -7.52522,-1.341047 -8.09521,-1.790717 -0.22832,-0.180747 0.23426,-1.075623 1.02971,-1.990359 1.40855,-1.623799 1.42387,-1.713978 0.63922,-3.825878 -1.11543,-2.998616 -1.86551,-3.323068 -5.04235,-2.177661 -6.51152,2.344901 -15.38837,3.655445 -26.304873,3.882866 -14.0092,0.290418 -20.97518,0.05826 -26.53657,-0.88712 -1.97355,-0.335724 -4.11826,-0.580997 -4.76629,-0.542741 -0.6471,0.03626 -2.19625,-0.05399 -3.44024,-0.203794 -1.24545,-0.14927 -3.48806,-0.367232 -4.98513,-0.483057 -8.30336,-0.6433 -19.17076,-1.736054 -26.82623,-2.696269 -4.77868,-0.599618 -9.17097,-0.915051 -9.76175,-0.700197 -1.41202,0.513528 -1.86034,2.776875 -1.35119,6.822171 0.40849,3.245764 1.85811,7.781848 2.67236,8.361673 1.0076,0.716884 5.84814,1.672258 9.40563,1.854974 2.04427,0.105947 6.30931,0.479274 9.47928,0.829469 17.78026,1.968016 30.17923,6.327774 37.54136,13.196213 2.33314,2.177505 3.05964,2.615047 3.85672,2.325166 1.52968,-0.556318 4.34189,-2.982589 4.82097,-4.16052 0.40929,-1.0049 0.33109,-1.197107 -1.39983,-3.429384 -2.79394,-3.604222 -3.70233,-5.294529 -2.98291,-5.556169 0.32821,-0.119363 2.61291,-0.0046 5.07611,0.254211 2.46226,0.260845 5.00924,0.444428 5.65887,0.410568 0.64816,-0.03333 2.87199,0.128424 4.94038,0.35998 4.977273,0.557252 15.848123,1.194186 24.572783,1.440391 7.42207,0.20896 16.13955,0.882479 20.70644,1.602255 3.43506,0.540797 13.87214,3.04592 16.39677,3.934412 l 1.90669,0.671933 0.60243,-1.194589 c 0.63199,-1.250135 0.67818,-5.319882 0.0787,-6.968243 -0.19236,-0.528941 -0.89703,-1.125395 -1.56532,-1.325305 -0.81254,-0.245326 -0.94842,-0.381721 -0.41121,-0.41451 0.4417,-0.02626 2.04705,-0.228526 3.56848,-0.451703 2.46517,-0.36068 2.81576,-0.509748 3.22319,-1.382909 0.59989,-1.288229 -0.8072,-6.206421 -1.97368,-6.90036 z m -0.57082,5.368763 c -0.28624,0.248435 -2.50166,0.506673 -4.92595,0.573772 -4.85791,0.135931 -7.67658,0.883979 -7.69651,2.042578 -0.0271,1.49467 1.27445,2.587414 3.72807,3.130115 4.30436,0.951294 5.04392,1.452106 4.66862,3.166309 -0.21948,1.002227 -1.79367,0.879611 -6.46329,-0.501246 -7.85067,-2.322606 -17.50845,-3.423935 -33.63041,-3.83834 -5.20157,-0.133924 -12.36496,-0.498343 -15.91617,-0.811092 -3.55266,-0.312216 -8.800073,-0.754637 -11.661413,-0.981498 -2.85987,-0.227394 -7.02834,-0.567825 -9.26376,-0.756882 -5.96178,-0.504464 -6.08709,0.25946 -1.29707,7.819459 1.45133,2.289166 1.73255,2.984872 1.48815,3.667679 -0.53008,1.480172 -2.17473,1.688434 -3.50308,0.444508 -2.97493,-2.783554 -7.28895,-5.531352 -11.68845,-7.446763 -8.85641,-3.856396 -15.20718,-5.266223 -30.35654,-6.737766 -6.2491,-0.605686 -12.16236,-1.393234 -13.14091,-1.747407 -1.70449,-0.617726 -1.82402,-0.771677 -2.83729,-3.65316 -1.08621,-3.088876 -1.22067,-6.558724 -0.28453,-7.370341 0.26257,-0.228214 5.37902,0.178886 11.36998,0.904998 5.99096,0.726112 15.05199,1.646309 20.13542,2.043846 5.08397,0.399003 12.07515,1.069928 15.53458,1.490709 8.06547,0.983642 12.80111,1.195774 22.24451,0.991458 15.473363,-0.333502 19.820953,-0.791497 29.338603,-3.08164 3.26796,-0.785364 4.70135,-0.944999 5.03784,-0.558058 0.63634,0.732456 -0.12475,1.604833 -2.00341,2.296365 -1.48452,0.54819 -2.58486,1.915562 -2.25874,2.81227 0.67568,1.857886 6.60916,4.122892 9.90139,3.778296 0.70623,-0.07436 1.67009,0.02138 2.14284,0.212771 0.91459,0.3708 6.75874,0.720619 10.31499,0.618442 5.64432,-0.163136 14.24961,-0.719608 16.69653,-1.080287 1.49932,-0.220112 3.03368,-0.293702 3.41251,-0.164378 0.93403,0.323912 1.5539,2.178869 0.91349,2.735283 z"
       sodipodi:nodetypes="cccsccccccccccscccccsccsccccccccscccccccccccccccccccccccsccccccscccccc" />
    <path
       style="fill:#ac724f;fill-opacity:1;stroke-width:0.18708867;stroke-miterlimit:4;stroke-dasharray:none"
       d="m 81.091297,64.744629 c -0.30869,-0.143512 -1.27688,-0.865729 -2.15152,-1.604933 -4.32539,-3.655597 -10.37771,-6.79057 -17.66092,-9.147985 -5.85197,-1.894153 -10.91609,-2.753896 -24.90175,-4.227605 -9.69412,-1.021498 -12.20774,-1.504057 -13.05029,-2.505364 -0.24987,-0.296957 -0.77516,-1.49646 -1.1673,-2.665566 -0.59747,-1.781256 -0.7274,-2.451021 -0.80193,-4.13392 -0.0624,-1.409988 -0.016,-2.184427 0.15598,-2.599569 l 0.24492,-0.591292 2.35146,0.119276 c 1.2933,0.0656 4.96135,0.414401 8.15121,0.775112 8.99022,1.016612 14.14355,1.535723 22.31992,2.248356 4.14695,0.361438 9.11415,0.827589 11.03823,1.035889 9.15166,0.990761 10.90304,1.140497 15.00427,1.282798 4.68824,0.16267 16.66476,-0.0301 22.076473,-0.355332 6.20013,-0.372616 9.53502,-0.852352 15.90253,-2.287639 4.68691,-1.056465 6.76589,-1.251356 6.8869,-0.645597 0.10239,0.512623 -0.47577,1.038089 -1.91562,1.741019 -0.71291,0.348037 -1.45819,0.779399 -1.65618,0.958581 -0.46377,0.41971 -0.88295,1.233437 -0.88295,1.714035 0,0.705867 1.11701,1.688971 2.88054,2.535218 2.20901,1.060015 4.39243,1.596533 6.49728,1.596533 0.89977,0 2.22681,0.124291 2.94897,0.276202 1.93179,0.406365 7.73548,0.705766 11.05929,0.570528 4.86585,-0.197981 11.92373,-0.65251 14.66379,-0.94435 2.78933,-0.297088 4.20874,-0.345598 4.69151,-0.160341 0.78991,0.303115 1.14072,2.147333 0.47613,2.50301 -0.20578,0.110133 -1.57387,0.283212 -3.04019,0.384623 -7.59455,0.525239 -9.30769,0.974024 -9.30769,2.438302 0,1.517716 1.11351,2.321292 4.41073,3.183029 2.45478,0.641567 3.52082,1.103486 3.81492,1.653008 0.30132,0.563028 0.22859,1.231419 -0.17361,1.595406 -0.47811,0.43268 -1.59536,0.300622 -4.82415,-0.570215 -10.51746,-2.836654 -16.64874,-3.560886 -35.50068,-4.193374 -8.32649,-0.279357 -11.50442,-0.482562 -25.046193,-1.601524 -6.77829,-0.560093 -12.85553,-1.018353 -13.50498,-1.018352 -3.26674,1e-6 -3.25706,1.137433 0.0565,6.642988 1.11432,1.851439 2.13199,3.624394 2.2615,3.939894 0.55959,1.363318 -0.93485,2.697128 -2.30714,2.059151 z"
       id="path868"
       inkscape:connector-curvature="0" />
    <path
       style="fill:#2b0000;fill-opacity:1;stroke-width:1.41421366;stroke-miterlimit:4;stroke-dasharray:none"
       d="m 108.58458,51.179438 c -2.29005,-0.17562 -3.20107,-0.3714 -7.95127,-1.70866 -2.160874,-0.60832 -5.255533,-1.35136 -6.877021,-1.65119 -3.016356,-0.55776 -3.319312,-0.64452 -3.319315,-0.95059 0,-0.29043 1.43477,-0.19965 2.962249,0.18744 0.788887,0.19991 2.40252,0.49698 3.585855,0.66013 3.690212,0.50881 4.500352,0.66512 7.483552,1.44385 2.40734,0.6284 3.30309,0.77328 5.27391,0.85298 2.4196,0.0978 7.18893,-0.2461 7.36509,-0.53113 0.1397,-0.22604 -1.44623,-0.9837 -3.24745,-1.55143 -2.33578,-0.73621 -2.65636,-0.6593 -2.65636,0.63726 0,0.29421 -0.0873,0.58887 -0.19395,0.6548 -0.26768,0.16543 -1.57251,-0.0737 -1.96399,-0.35998 -0.2858,-0.20898 -0.29395,-0.31149 -0.0733,-0.92179 0.36478,-1.00879 0.1338,-1.14135 -2.03897,-1.1702 -1.85042,-0.0246 -2.65211,-0.24607 -2.65211,-0.73278 0,-0.67025 2.12654,-0.98287 4.47783,-0.65828 1.60852,0.22205 8.14643,2.18982 9.40725,2.83138 0.78967,0.40182 1.08201,0.83794 1.08201,1.61416 0,0.98498 -0.31567,1.17622 -2.25037,1.36329 -2.0203,0.19534 -5.80006,0.19118 -8.41368,-0.009 z"
       id="path817"
       inkscape:connector-curvature="0" />
    <path
       style="fill:#2b0000;fill-opacity:1;stroke-width:1.41421366;stroke-miterlimit:4;stroke-dasharray:none"
       d="m 57.931505,47.173513 c -0.823191,-0.0842 -3.012128,-0.2384 -4.864307,-0.34257 -1.852175,-0.10417 -4.335781,-0.36458 -5.519116,-0.57869 -3.874916,-0.70111 -7.857723,-1.84373 -7.857722,-2.25428 -2e-6,-0.34915 1.673852,-0.15788 4.312863,0.49283 4.018746,0.99092 4.078598,0.99969 8.222077,1.20379 5.574747,0.27461 10.289879,0.87446 10.289878,1.30906 1e-6,0.3765 -1.882621,0.44627 -4.583673,0.16986 z"
       id="path821"
       inkscape:connector-curvature="0" />
  </g>
</svg>
